<svg width="189" height="37" viewBox="0 0 189 37" fill="none" xmlns="http://www.w3.org/2000/svg">
<path fill-rule="evenodd" clip-rule="evenodd" d="M97.5879 31.3918H101.698V34.3343H91.0541L97.8204 26.378C98.2151 25.9805 98.4771 25.4705 98.5704 24.918C98.5679 24.7269 98.5241 24.5385 98.4419 24.3658C98.3597 24.1932 98.241 24.0404 98.0941 23.918C97.8142 23.633 97.4336 23.4692 97.0341 23.4618C96.8045 23.4505 96.575 23.4852 96.359 23.564C96.143 23.6428 95.945 23.764 95.7766 23.9205C95.6173 24.0819 95.4935 24.2748 95.4132 24.4868C95.3329 24.6989 95.2979 24.9254 95.3104 25.1518V25.6143H92.0979L92.1479 25.1055C92.4291 22.2468 93.9216 20.518 96.8804 20.518C97.1942 20.5147 97.5079 20.5335 97.8191 20.5743C98.8693 20.7317 99.8284 21.2598 100.523 22.063C101.253 22.8317 101.663 23.8502 101.668 24.9105C101.682 25.9851 101.302 27.0276 100.6 27.8418L97.5879 31.3918Z" fill="#020912"/>
<path fill-rule="evenodd" clip-rule="evenodd" d="M91.5929 18.8643L85.0116 36.3768H82.8791L78.5854 26.6143L74.3504 36.383H72.1804L65.5254 18.8643H69.2941L73.2754 29.5493L78.5879 18.478L83.7441 29.5493L87.9316 18.8705L91.5929 18.8643Z" fill="#020912"/>
<path fill-rule="evenodd" clip-rule="evenodd" d="M107.334 26.7943C107.369 28.4178 108.01 29.9695 109.13 31.1452C110.25 32.3208 111.769 33.0356 113.389 33.1493V32.0855C113.03 31.9852 112.713 31.7699 112.487 31.4727C112.262 31.1754 112.139 30.8125 112.139 30.4393C112.139 30.0661 112.262 29.7032 112.487 29.4059C112.713 29.1087 113.03 28.8934 113.389 28.793V26.793H111.172V26.6518C111.172 26.3567 111.054 26.0738 110.846 25.8651C110.637 25.6565 110.354 25.5393 110.059 25.5393C109.764 25.5393 109.481 25.6565 109.272 25.8651C109.064 26.0738 108.947 26.3567 108.947 26.6518V26.793L107.334 26.7943Z" fill="#F7BC22"/>
<path fill-rule="evenodd" clip-rule="evenodd" d="M113.703 20.1443C112.079 20.1796 110.528 20.8201 109.352 21.9403C108.176 23.0604 107.462 24.5794 107.348 26.1993H108.412C108.512 25.8397 108.727 25.5229 109.024 25.2971C109.322 25.0714 109.685 24.9492 110.058 24.9493C110.431 24.9492 110.794 25.0714 111.091 25.2971C111.389 25.5229 111.604 25.8397 111.704 26.1993H113.704V23.9818H113.844C114.139 23.9818 114.422 23.8646 114.631 23.6559C114.839 23.4473 114.957 23.1644 114.957 22.8693C114.957 22.5742 114.839 22.2913 114.631 22.0826C114.422 21.874 114.139 21.7568 113.844 21.7568H113.704L113.703 20.1443Z" fill="#B2D239"/>
<path fill-rule="evenodd" clip-rule="evenodd" d="M120.353 26.5143C120.318 24.8908 119.677 23.3391 118.557 22.1634C117.437 20.9877 115.918 20.273 114.298 20.1593V21.223C114.657 21.3233 114.974 21.5384 115.2 21.8357C115.426 22.133 115.548 22.496 115.548 22.8693C115.548 23.2426 115.426 23.6056 115.2 23.9029C114.974 24.2001 114.657 24.4153 114.298 24.5155V26.5155H116.515V26.6555C116.515 26.9506 116.633 27.2336 116.841 27.4422C117.05 27.6508 117.333 27.768 117.628 27.768C117.923 27.768 118.206 27.6508 118.415 27.4422C118.623 27.2336 118.74 26.9506 118.74 26.6555V26.5155L120.353 26.5143Z" fill="#0090D4"/>
<path fill-rule="evenodd" clip-rule="evenodd" d="M113.984 33.163C115.607 33.1278 117.159 32.4874 118.334 31.3674C119.51 30.2475 120.224 28.7288 120.338 27.1093H119.274C119.174 27.4689 118.959 27.7857 118.661 28.0115C118.364 28.2372 118.001 28.3593 117.628 28.3593C117.255 28.3593 116.892 28.2372 116.594 28.0115C116.297 27.7857 116.082 27.4689 115.982 27.1093H113.982V29.3268H113.842C113.547 29.3268 113.264 29.444 113.055 29.6526C112.846 29.8613 112.729 30.1442 112.729 30.4393C112.729 30.7344 112.846 31.0173 113.055 31.2259C113.264 31.4346 113.547 31.5518 113.842 31.5518H113.982V32.5243L113.984 33.163Z" fill="#DC2E2B"/>
<path fill-rule="evenodd" clip-rule="evenodd" d="M113.843 34.193C111.844 34.193 109.927 33.3989 108.513 31.9854C107.1 30.5718 106.305 28.6546 106.305 26.6555C106.305 24.6565 107.1 22.7393 108.513 21.3257C109.927 19.9122 111.844 19.118 113.843 19.118C115.842 19.1184 117.759 19.9126 119.172 21.3261C120.586 22.7396 121.38 24.6566 121.38 26.6555C121.38 28.6545 120.586 30.5715 119.172 31.985C117.759 33.3985 115.842 34.1927 113.843 34.193ZM113.843 36.6555C116.495 36.6555 119.039 35.602 120.914 33.7266C122.789 31.8512 123.843 29.3077 123.843 26.6555C123.843 24.0034 122.789 21.4598 120.914 19.5845C119.039 17.7091 116.495 16.6555 113.843 16.6555C111.191 16.6555 108.647 17.7091 106.772 19.5845C104.896 21.4598 103.843 24.0034 103.843 26.6555C103.843 29.3077 104.896 31.8512 106.772 33.7266C108.647 35.602 111.191 36.6555 113.843 36.6555Z" fill="#020912"/>
<path d="M0 8.6543V7.91602L0.955078 7.75195V1.03125L0 0.867188V0.123047H3.33984C4.09375 0.123047 4.75 0.302734 5.30859 0.662109C5.87109 1.02148 6.30859 1.51562 6.62109 2.14453C6.93359 2.77344 7.08984 3.49219 7.08984 4.30078V4.48242C7.08984 5.27148 6.93945 5.98242 6.63867 6.61523C6.33789 7.24414 5.91016 7.74219 5.35547 8.10938C4.80469 8.47266 4.15234 8.6543 3.39844 8.6543H0ZM2.10938 7.75195H3.33984C3.87891 7.75195 4.3418 7.60547 4.72852 7.3125C5.11523 7.01562 5.41211 6.62109 5.61914 6.12891C5.83008 5.63281 5.93555 5.08398 5.93555 4.48242V4.28906C5.93555 3.66797 5.83008 3.11328 5.61914 2.625C5.41211 2.13281 5.11523 1.74414 4.72852 1.45898C4.3418 1.17383 3.87891 1.03125 3.33984 1.03125H2.10938V7.75195Z" fill="#777777"/>
<path d="M7.94531 8.6543V7.91602L8.90039 7.75195V1.03125L7.94531 0.867188V0.123047H14.2617V2.17383H13.3359L13.207 1.01367H10.0547V3.79102H13.2012V4.69922H10.0547V7.78711H13.3945L13.5234 6.60938H14.4434V8.6543H7.94531Z" fill="#777777"/>
<path d="M18.6738 8.77734C18.1543 8.77734 17.6543 8.70117 17.1738 8.54883C16.6934 8.39648 16.2344 8.16211 15.7969 7.8457V6.02344H16.6934L16.8867 7.36523C17.1406 7.52148 17.416 7.64258 17.7129 7.72852C18.0098 7.81445 18.3301 7.85742 18.6738 7.85742C19.0645 7.85742 19.3945 7.79883 19.6641 7.68164C19.9375 7.56055 20.1465 7.39453 20.291 7.18359C20.4355 6.97266 20.5078 6.72656 20.5078 6.44531C20.5078 6.18359 20.4453 5.95312 20.3203 5.75391C20.1953 5.55469 19.9883 5.38086 19.6992 5.23242C19.4141 5.08008 19.0234 4.94727 18.5273 4.83398C17.9414 4.69727 17.4453 4.51562 17.0391 4.28906C16.6367 4.05859 16.3301 3.78125 16.1191 3.45703C15.9121 3.12891 15.8086 2.75391 15.8086 2.33203C15.8086 1.88672 15.9258 1.48828 16.1602 1.13672C16.3984 0.785156 16.7285 0.507812 17.1504 0.304688C17.5723 0.101562 18.0645 0 18.627 0C19.2246 0 19.752 0.0917969 20.209 0.275391C20.6699 0.455078 21.0488 0.673828 21.3457 0.931641V2.63672H20.4492L20.2559 1.41797C20.0801 1.27734 19.8613 1.16016 19.5996 1.06641C19.3379 0.972656 19.0137 0.925781 18.627 0.925781C18.2988 0.925781 18.0098 0.984375 17.7598 1.10156C17.5098 1.21484 17.3145 1.375 17.1738 1.58203C17.0332 1.78906 16.9629 2.0332 16.9629 2.31445C16.9629 2.56055 17.0254 2.77539 17.1504 2.95898C17.2793 3.14258 17.4863 3.30469 17.7715 3.44531C18.0605 3.58203 18.4453 3.71094 18.9258 3.83203C19.8242 4.05469 20.5039 4.38477 20.9648 4.82227C21.4297 5.25586 21.6621 5.79297 21.6621 6.43359C21.6621 6.89062 21.5391 7.29688 21.293 7.65234C21.0469 8.00391 20.6992 8.2793 20.25 8.47852C19.8047 8.67773 19.2793 8.77734 18.6738 8.77734Z" fill="#777777"/>
<path d="M22.6641 8.6543V7.91602L23.6191 7.75195V1.03125L22.6641 0.867188V0.123047H28.9805V2.17383H28.0547L27.9258 1.01367H24.7734V3.79102H27.9199V4.69922H24.7734V7.78711H28.1133L28.2422 6.60938H29.1621V8.6543H22.6641Z" fill="#777777"/>
<path d="M30.3281 8.6543V7.91602L31.2832 7.75195V1.03125L30.3281 0.867188V0.123047H32.4492L36.6328 6.77344L36.668 6.76172V1.03125L35.6191 0.867188V0.123047H38.6836V0.867188L37.7285 1.03125V8.6543H36.6738L32.3789 1.96875L32.3438 1.98047V7.75195L33.3926 7.91602V8.6543H30.3281Z" fill="#777777"/>
<path d="M43.0898 8.6543L40.2305 0.960938L39.5508 0.867188V0.123047H42.2461V0.867188L41.4668 0.990234L43.377 6.41602L43.5762 7.08984H43.6113L43.8223 6.41602L45.8027 0.984375L44.9355 0.867188V0.123047H47.625V0.867188L46.9395 0.960938L44.0801 8.6543H43.0898Z" fill="#777777"/>
<path d="M51.5742 8.77734C51.0234 8.77734 50.5293 8.67188 50.0918 8.46094C49.6543 8.25 49.2812 7.95312 48.9727 7.57031C48.668 7.18359 48.4336 6.72656 48.2695 6.19922C48.1094 5.67188 48.0293 5.08984 48.0293 4.45312V4.33008C48.0293 3.69727 48.1094 3.11719 48.2695 2.58984C48.4336 2.05859 48.668 1.59961 48.9727 1.21289C49.2812 0.826172 49.6543 0.527344 50.0918 0.316406C50.5293 0.105469 51.0234 0 51.5742 0C52.1562 0 52.668 0.105469 53.1094 0.316406C53.5508 0.527344 53.9199 0.826172 54.2168 1.21289C54.5176 1.59961 54.7441 2.05859 54.8965 2.58984C55.0488 3.11719 55.125 3.69727 55.125 4.33008V4.45312C55.125 5.08984 55.0488 5.67188 54.8965 6.19922C54.7441 6.72656 54.5176 7.18359 54.2168 7.57031C53.9199 7.95312 53.5508 8.25 53.1094 8.46094C52.668 8.67188 52.1562 8.77734 51.5742 8.77734ZM51.5742 7.81641C52.1406 7.81641 52.5977 7.67578 52.9453 7.39453C53.2969 7.11328 53.5547 6.7207 53.7188 6.2168C53.8828 5.70898 53.9648 5.12109 53.9648 4.45312V4.31836C53.9648 3.6543 53.8809 3.07227 53.7129 2.57227C53.5488 2.06836 53.291 1.67578 52.9395 1.39453C52.5879 1.10938 52.1328 0.966797 51.5742 0.966797C51.0625 0.966797 50.6289 1.10938 50.2734 1.39453C49.918 1.67969 49.6484 2.07422 49.4648 2.57812C49.2812 3.07812 49.1895 3.6582 49.1895 4.31836V4.45312C49.1895 5.11719 49.2812 5.70312 49.4648 6.21094C49.6484 6.71484 49.918 7.10938 50.2734 7.39453C50.6289 7.67578 51.0625 7.81641 51.5742 7.81641Z" fill="#777777"/>
<path d="M56.0156 8.6543V7.91602L56.9707 7.75195V1.03125L56.0156 0.867188V0.123047H59.0801V0.867188L58.125 1.03125V7.76953H61.1426L61.2773 6.42188H62.1621V8.6543H56.0156Z" fill="#777777"/>
<path d="M65.0508 8.6543L62.1914 0.960938L61.5117 0.867188V0.123047H64.207V0.867188L63.4277 0.990234L65.3379 6.41602L65.5371 7.08984H65.5723L65.7832 6.41602L67.7637 0.984375L66.8965 0.867188V0.123047H69.5859V0.867188L68.9004 0.960938L66.041 8.6543H65.0508Z" fill="#777777"/>
<path d="M70.4414 8.6543V7.91602L71.3965 7.75195V1.03125L70.4414 0.867188V0.123047H73.5059V0.867188L72.5508 1.03125V7.75195L73.5059 7.91602V8.6543H70.4414Z" fill="#777777"/>
<path d="M74.4609 8.6543V7.91602L75.416 7.75195V1.03125L74.4609 0.867188V0.123047H77.8008C78.5547 0.123047 79.2109 0.302734 79.7695 0.662109C80.332 1.02148 80.7695 1.51562 81.082 2.14453C81.3945 2.77344 81.5508 3.49219 81.5508 4.30078V4.48242C81.5508 5.27148 81.4004 5.98242 81.0996 6.61523C80.7988 7.24414 80.3711 7.74219 79.8164 8.10938C79.2656 8.47266 78.6133 8.6543 77.8594 8.6543H74.4609ZM76.5703 7.75195H77.8008C78.3398 7.75195 78.8027 7.60547 79.1895 7.3125C79.5762 7.01562 79.873 6.62109 80.0801 6.12891C80.291 5.63281 80.3965 5.08398 80.3965 4.48242V4.28906C80.3965 3.66797 80.291 3.11328 80.0801 2.625C79.873 2.13281 79.5762 1.74414 79.1895 1.45898C78.8027 1.17383 78.3398 1.03125 77.8008 1.03125H76.5703V7.75195Z" fill="#777777"/>
<path d="M86.2148 8.77734C85.6641 8.77734 85.1699 8.67188 84.7324 8.46094C84.2949 8.25 83.9219 7.95312 83.6133 7.57031C83.3086 7.18359 83.0742 6.72656 82.9102 6.19922C82.75 5.67188 82.6699 5.08984 82.6699 4.45312V4.33008C82.6699 3.69727 82.75 3.11719 82.9102 2.58984C83.0742 2.05859 83.3086 1.59961 83.6133 1.21289C83.9219 0.826172 84.2949 0.527344 84.7324 0.316406C85.1699 0.105469 85.6641 0 86.2148 0C86.7969 0 87.3086 0.105469 87.75 0.316406C88.1914 0.527344 88.5605 0.826172 88.8574 1.21289C89.1582 1.59961 89.3848 2.05859 89.5371 2.58984C89.6895 3.11719 89.7656 3.69727 89.7656 4.33008V4.45312C89.7656 5.08984 89.6895 5.67188 89.5371 6.19922C89.3848 6.72656 89.1582 7.18359 88.8574 7.57031C88.5605 7.95312 88.1914 8.25 87.75 8.46094C87.3086 8.67188 86.7969 8.77734 86.2148 8.77734ZM86.2148 7.81641C86.7812 7.81641 87.2383 7.67578 87.5859 7.39453C87.9375 7.11328 88.1953 6.7207 88.3594 6.2168C88.5234 5.70898 88.6055 5.12109 88.6055 4.45312V4.31836C88.6055 3.6543 88.5215 3.07227 88.3535 2.57227C88.1895 2.06836 87.9316 1.67578 87.5801 1.39453C87.2285 1.10938 86.7734 0.966797 86.2148 0.966797C85.7031 0.966797 85.2695 1.10938 84.9141 1.39453C84.5586 1.67969 84.2891 2.07422 84.1055 2.57812C83.9219 3.07812 83.8301 3.6582 83.8301 4.31836V4.45312C83.8301 5.11719 83.9219 5.70312 84.1055 6.21094C84.2891 6.71484 84.5586 7.10938 84.9141 7.39453C85.2695 7.67578 85.7031 7.81641 86.2148 7.81641Z" fill="#777777"/>
<path d="M93.6445 8.6543V7.91602L94.5996 7.75195V1.03125L93.6445 0.867188V0.123047H99.9609V2.17383H99.0352L98.9062 1.01367H95.7539V3.79102H98.9004V4.69922H95.7539V7.78711H99.0938L99.2227 6.60938H100.143V8.6543H93.6445Z" fill="#777777"/>
<path d="M104.361 8.6543V7.91602L105.316 7.75195V1.03125L104.361 0.867188V0.123047H106.857L109.605 6.59766H109.641L112.301 0.123047H114.873V0.867188L113.918 1.03125V7.75195L114.873 7.91602V8.6543H111.809V7.91602L112.816 7.75195V1.69922L112.787 1.69336L110.016 8.34961H109.248L106.383 1.70508L106.354 1.71094L106.395 5.2793V7.75195L107.426 7.91602V8.6543H104.361Z" fill="#777777"/>
<path d="M115.834 8.6543V7.91602L116.467 7.82812L119.449 0.123047H120.439L123.369 7.82812L123.996 7.91602V8.6543H121.547V7.91602L122.191 7.80469L121.629 6.23438H118.213L117.633 7.80469L118.277 7.91602V8.6543H115.834ZM118.57 5.26758H121.277L120.023 1.79883L119.953 1.60547H119.918L119.848 1.79883L118.57 5.26758Z" fill="#777777"/>
<path d="M124.898 8.6543V7.91602L125.854 7.75195V1.03125L124.898 0.867188V0.123047H127.02L131.203 6.77344L131.238 6.76172V1.03125L130.189 0.867188V0.123047H133.254V0.867188L132.299 1.03125V8.6543H131.244L126.949 1.96875L126.914 1.98047V7.75195L127.963 7.91602V8.6543H124.898Z" fill="#777777"/>
<path d="M136.318 8.6543V7.91602L137.273 7.75195V0.996094H135.34L135.17 2.17969H134.303V0.123047H141.393V2.17969H140.537L140.361 0.996094H138.428V7.75195L139.383 7.91602V8.6543H136.318Z" fill="#777777"/>
<path d="M142.453 8.6543V7.91602L143.408 7.75195V1.03125L142.453 0.867188V0.123047H145.518V0.867188L144.562 1.03125V7.75195L145.518 7.91602V8.6543H142.453Z" fill="#777777"/>
<path d="M146.473 8.6543V7.91602L147.428 7.75195V1.03125L146.473 0.867188V0.123047H149.812C150.566 0.123047 151.223 0.302734 151.781 0.662109C152.344 1.02148 152.781 1.51562 153.094 2.14453C153.406 2.77344 153.562 3.49219 153.562 4.30078V4.48242C153.562 5.27148 153.412 5.98242 153.111 6.61523C152.811 7.24414 152.383 7.74219 151.828 8.10938C151.277 8.47266 150.625 8.6543 149.871 8.6543H146.473ZM148.582 7.75195H149.812C150.352 7.75195 150.814 7.60547 151.201 7.3125C151.588 7.01562 151.885 6.62109 152.092 6.12891C152.303 5.63281 152.408 5.08398 152.408 4.48242V4.28906C152.408 3.66797 152.303 3.11328 152.092 2.625C151.885 2.13281 151.588 1.74414 151.201 1.45898C150.814 1.17383 150.352 1.03125 149.812 1.03125H148.582V7.75195Z" fill="#777777"/>
<path d="M158.227 8.77734C157.676 8.77734 157.182 8.67188 156.744 8.46094C156.307 8.25 155.934 7.95312 155.625 7.57031C155.32 7.18359 155.086 6.72656 154.922 6.19922C154.762 5.67188 154.682 5.08984 154.682 4.45312V4.33008C154.682 3.69727 154.762 3.11719 154.922 2.58984C155.086 2.05859 155.32 1.59961 155.625 1.21289C155.934 0.826172 156.307 0.527344 156.744 0.316406C157.182 0.105469 157.676 0 158.227 0C158.809 0 159.32 0.105469 159.762 0.316406C160.203 0.527344 160.572 0.826172 160.869 1.21289C161.17 1.59961 161.396 2.05859 161.549 2.58984C161.701 3.11719 161.777 3.69727 161.777 4.33008V4.45312C161.777 5.08984 161.701 5.67188 161.549 6.19922C161.396 6.72656 161.17 7.18359 160.869 7.57031C160.572 7.95312 160.203 8.25 159.762 8.46094C159.32 8.67188 158.809 8.77734 158.227 8.77734ZM158.227 7.81641C158.793 7.81641 159.25 7.67578 159.598 7.39453C159.949 7.11328 160.207 6.7207 160.371 6.2168C160.535 5.70898 160.617 5.12109 160.617 4.45312V4.31836C160.617 3.6543 160.533 3.07227 160.365 2.57227C160.201 2.06836 159.943 1.67578 159.592 1.39453C159.24 1.10938 158.785 0.966797 158.227 0.966797C157.715 0.966797 157.281 1.10938 156.926 1.39453C156.57 1.67969 156.301 2.07422 156.117 2.57812C155.934 3.07812 155.842 3.6582 155.842 4.31836V4.45312C155.842 5.11719 155.934 5.70312 156.117 6.21094C156.301 6.71484 156.57 7.10938 156.926 7.39453C157.281 7.67578 157.715 7.81641 158.227 7.81641Z" fill="#777777"/>
<path d="M165.656 8.6543V7.91602L166.611 7.75195V1.03125L165.656 0.867188V0.123047H169.576C170.186 0.123047 170.705 0.230469 171.135 0.445312C171.564 0.65625 171.893 0.953125 172.119 1.33594C172.346 1.71875 172.459 2.16602 172.459 2.67773C172.459 3.19336 172.346 3.64258 172.119 4.02539C171.893 4.4082 171.564 4.70508 171.135 4.91602C170.705 5.12695 170.186 5.23242 169.576 5.23242H167.766V7.75195L168.721 7.91602V8.6543H165.656ZM167.766 4.33008H169.576C170.154 4.33008 170.586 4.17578 170.871 3.86719C171.16 3.55469 171.305 3.16211 171.305 2.68945C171.305 2.2168 171.16 1.82227 170.871 1.50586C170.586 1.18945 170.154 1.03125 169.576 1.03125H167.766V4.33008Z" fill="#777777"/>
<path d="M176.895 8.77734C176.344 8.77734 175.85 8.67188 175.412 8.46094C174.975 8.25 174.602 7.95312 174.293 7.57031C173.988 7.18359 173.754 6.72656 173.59 6.19922C173.43 5.67188 173.35 5.08984 173.35 4.45312V4.33008C173.35 3.69727 173.43 3.11719 173.59 2.58984C173.754 2.05859 173.988 1.59961 174.293 1.21289C174.602 0.826172 174.975 0.527344 175.412 0.316406C175.85 0.105469 176.344 0 176.895 0C177.477 0 177.988 0.105469 178.43 0.316406C178.871 0.527344 179.24 0.826172 179.537 1.21289C179.838 1.59961 180.064 2.05859 180.217 2.58984C180.369 3.11719 180.445 3.69727 180.445 4.33008V4.45312C180.445 5.08984 180.369 5.67188 180.217 6.19922C180.064 6.72656 179.838 7.18359 179.537 7.57031C179.24 7.95312 178.871 8.25 178.43 8.46094C177.988 8.67188 177.477 8.77734 176.895 8.77734ZM176.895 7.81641C177.461 7.81641 177.918 7.67578 178.266 7.39453C178.617 7.11328 178.875 6.7207 179.039 6.2168C179.203 5.70898 179.285 5.12109 179.285 4.45312V4.31836C179.285 3.6543 179.201 3.07227 179.033 2.57227C178.869 2.06836 178.611 1.67578 178.26 1.39453C177.908 1.10938 177.453 0.966797 176.895 0.966797C176.383 0.966797 175.949 1.10938 175.594 1.39453C175.238 1.67969 174.969 2.07422 174.785 2.57812C174.602 3.07812 174.51 3.6582 174.51 4.31836V4.45312C174.51 5.11719 174.602 5.70312 174.785 6.21094C174.969 6.71484 175.238 7.10938 175.594 7.39453C175.949 7.67578 176.383 7.81641 176.895 7.81641Z" fill="#777777"/>
<path d="M181.336 8.6543V7.91602L182.291 7.75195V1.03125L181.336 0.867188V0.128906H185.139C185.76 0.128906 186.283 0.222656 186.709 0.410156C187.139 0.59375 187.465 0.861328 187.688 1.21289C187.91 1.56445 188.021 1.99414 188.021 2.50195C188.021 3.00195 187.912 3.42188 187.693 3.76172C187.479 4.10156 187.172 4.35938 186.773 4.53516C186.375 4.70703 185.902 4.79883 185.355 4.81055L183.445 4.8457V7.75195L184.4 7.91602V8.6543H181.336ZM186.967 8.6543L185.068 4.39453L186.223 4.38281L187.799 7.79297L188.391 7.89844V8.6543H186.967ZM183.445 3.9375H185.021C185.666 3.9375 186.135 3.81445 186.428 3.56836C186.721 3.32227 186.867 2.96289 186.867 2.49023C186.867 2.04102 186.727 1.68555 186.445 1.42383C186.164 1.16211 185.729 1.03125 185.139 1.03125H183.445V3.9375Z" fill="#777777"/>
</svg>
