<svg width="204" height="112" viewBox="0 0 204 112" fill="none" xmlns="http://www.w3.org/2000/svg">
<path fill-rule="evenodd" clip-rule="evenodd" d="M145.031 0.857668C136.896 3.00603 128.883 9.55987 125.191 17.0866C122.181 23.2214 121.544 27.3161 121.75 39.1982C121.916 48.8003 121.997 49.4805 123.305 52.2835C126.203 58.4908 130.899 61.7912 137.482 62.2465C142.458 62.5914 146.488 61.0417 150.136 57.3815C154.237 53.266 155.125 50.3596 155.125 41.0438V33.6007H162.759H170.393L170.671 40.6642C171 49.0354 171.798 51.7195 175.031 55.3275C178.354 59.0367 181.498 60.4596 186.902 60.7021C190.988 60.886 191.574 60.7751 194.715 59.2228C198.732 57.2386 201.437 54.2959 202.933 50.2823C203.871 47.7666 204 46.13 204 36.7231C204 21.1669 202.518 16.618 194.987 9.06037C190.497 4.55573 186.29 2.06299 181.107 0.836876C176.343 -0.290081 149.318 -0.274621 145.031 0.857668ZM25.6843 1.64131C13.8927 3.72357 3.75913 13.1503 0.806438 24.7834C0.213032 27.1215 0 30.883 0 39.0239C0 48.796 0.124312 50.4204 1.06675 52.9477C5.4145 64.6086 20.5838 67.3514 28.9685 57.9929C32.3122 54.2613 33.0177 51.7611 33.3322 42.53L33.6005 34.6669H41.2377H48.875V41.5769C48.875 50.3052 49.8313 53.3353 53.864 57.3815C57.5115 61.0417 61.5416 62.5914 66.5183 62.2465C73.1 61.7912 77.7941 58.4924 80.6963 52.2835C82.0505 49.3862 82.0781 49.0967 82.0781 37.8655C82.0781 27.5176 81.9639 26.0394 80.9014 22.65C79.4203 17.9278 76.4936 13.3923 72.463 9.57426C68.7751 6.08144 65.8288 4.278 61.0938 2.61528C57.8659 1.48193 56.6865 1.39502 43.0312 1.28041C34.9961 1.21324 27.1899 1.3753 25.6843 1.64131ZM78.625 78.7649C75.2457 79.975 70.0512 85.2953 68.8877 88.7374C67.7636 92.0634 67.7477 97.7051 68.8532 100.961C70.0761 104.563 74.1386 108.808 78.0438 110.567L81.226 112L102.636 111.85L124.047 111.699L126.662 110.407C130.155 108.683 133.158 105.57 134.796 101.981C135.872 99.6232 136.14 98.1972 136.14 94.8323C136.14 91.1865 135.916 90.1725 134.45 87.1845C132.738 83.696 130.192 81.1313 126.438 79.1135C124.716 78.1881 122.963 78.1065 102.797 78.0111C83.9667 77.9226 80.6916 78.0244 78.625 78.7649Z" fill="black"/>
</svg>
