<svg width="242" height="271" viewBox="0 0 242 271" fill="none" xmlns="http://www.w3.org/2000/svg">
<circle cx="121.63" cy="144.63" r="112.63" fill="#EAE5DF"/>
<path d="M183.397 217.577C180.35 214.802 178.126 211.242 176.967 207.287C176.856 206.494 177.038 205.687 177.479 205.019C177.92 204.35 178.59 203.865 179.363 203.656C180.136 203.446 180.959 203.525 181.678 203.879C182.397 204.233 182.962 204.836 183.267 205.577C184.135 208.145 185.583 210.478 187.497 212.397C191.607 216.457 197.347 217.837 204.557 216.487C207.919 215.938 211.103 214.598 213.846 212.577C216.59 210.557 218.814 207.915 220.337 204.867C224.767 196.227 224.417 184.657 219.337 173.867C213.077 160.497 205.957 137.277 213.437 123.187C217.307 115.897 224.117 111.297 233.117 109.867C234.917 109.587 239.697 109.867 241.347 114.127C241.643 114.741 241.79 115.416 241.777 116.098C241.764 116.78 241.591 117.449 241.271 118.051C240.952 118.653 240.496 119.172 239.939 119.566C239.383 119.96 238.741 120.217 238.067 120.317C231.067 121.417 226.217 124.817 223.177 130.207C214.707 145.287 219.247 158.127 225.307 171.067C231.197 183.657 231.517 197.397 226.157 207.837C224.165 211.772 221.28 215.186 217.733 217.807C214.185 220.427 210.074 222.18 205.727 222.927C195.307 224.887 188.057 221.857 183.397 217.577Z" fill="#D6986E"/>
<path d="M222.967 130.717L223.227 130.217C226.227 124.827 231.137 121.427 238.117 120.327C238.791 120.227 239.433 119.969 239.989 119.576C240.546 119.182 241.002 118.663 241.321 118.061C241.641 117.459 241.814 116.79 241.827 116.108C241.84 115.426 241.693 114.751 241.397 114.137C239.747 109.837 234.967 109.597 233.167 109.877C224.407 111.267 217.727 115.667 213.817 122.617C215.979 126.179 219.169 129.003 222.967 130.717V130.717Z" fill="#AD7041"/>
<path d="M206.297 135.807C206.297 135.807 213.457 144.427 222.647 141.207" stroke="#AD7041" stroke-width="6" stroke-miterlimit="10"/>
<path d="M222.536 150.767C222.536 150.767 215.146 157.897 208.276 153.687" stroke="#AD7041" stroke-width="6" stroke-miterlimit="10"/>
<path d="M227.667 163.417C227.667 163.417 220.787 174.017 214.347 171.707" stroke="#AD7041" stroke-width="6" stroke-miterlimit="10"/>
<path d="M217.197 181.407C217.197 181.407 224.857 186.047 231.767 182.407" stroke="#AD7041" stroke-width="6" stroke-miterlimit="10"/>
<path d="M218.557 193.577C218.557 193.577 225.437 199.727 233.287 197.327" stroke="#AD7041" stroke-width="6" stroke-miterlimit="10"/>
<path d="M216.797 203.687C216.797 203.687 219.517 212.117 227.317 215.957" stroke="#AD7041" stroke-width="6" stroke-miterlimit="10"/>
<path d="M209.687 211.477C209.687 211.477 208.687 220.387 213.567 224.827" stroke="#AD7041" stroke-width="6" stroke-miterlimit="10"/>
<path d="M198.507 213.627C198.507 213.627 194.727 221.027 197.107 227.067" stroke="#AD7041" stroke-width="6" stroke-miterlimit="10"/>
<path d="M191.257 209.837C191.257 209.837 184.567 214.727 182.767 221.417" stroke="#AD7041" stroke-width="6" stroke-miterlimit="10"/>
<path d="M161.177 145.347L123.967 138.277C103.527 166.617 96.7169 227.277 99.9669 255.857C107.155 257.265 114.462 257.975 121.787 257.977C145.691 258.008 168.979 250.401 188.257 236.267C199.967 180.887 161.177 145.347 161.177 145.347Z" fill="#AD7041"/>
<path d="M152.907 210.677C152.907 210.677 171.567 244.247 180.907 248.577C190.247 252.907 198.237 253.247 201.577 250.917C204.917 248.587 204.907 238.177 203.577 232.247C202.247 226.317 177.917 183.577 171.907 174.247C165.897 164.917 154.577 146.247 139.907 155.917C125.237 165.587 144.027 192.447 152.907 210.677Z" fill="#E0A375"/>
<path d="M126.077 47.747C126.757 50.857 122.817 53.797 120.017 52.427C119.437 52.137 120.477 52.047 120.687 51.987C121.669 51.7201 122.587 51.2575 123.387 50.627C124.038 50.1379 124.62 49.5626 125.117 48.917C125.287 48.697 125.817 47.577 126.077 47.747Z" fill="#231012"/>
<path d="M59.5669 106.917C61.7469 108.727 68.7268 108.677 75.8968 106.077C83.0668 103.477 79.8969 94.077 79.2269 87.747C78.5569 81.417 83.1568 74.577 85.6168 74.747C88.0768 74.917 118.547 49.157 118.547 49.157C118.547 49.157 127.897 48.867 131.547 40.557C135.197 32.247 133.707 24.077 131.547 22.917C129.387 21.757 123.997 25.747 118.857 26.417C118.857 26.417 124.277 23.577 125.857 15.247C127.437 6.91698 124.367 2.24698 121.727 0.416978C119.087 -1.41302 115.067 3.24698 103.987 6.24698C92.9068 9.24698 79.7368 13.077 64.9068 15.077C50.0768 17.077 35.0768 23.917 35.7368 41.247C36.3968 58.577 50.9068 75.917 54.7368 88.247C58.5668 100.577 56.3969 104.287 59.5669 106.917Z" fill="#915933"/>
<path d="M121.717 49.0171C121.717 49.0171 125.897 60.2471 135.227 64.4171C135.227 64.4171 130.137 71.0771 123.897 72.2471L121.717 49.0171Z" fill="#CE8061"/>
<path d="M104.477 19.577C114.547 20.577 120.727 35.827 123.977 51.327C127.227 66.827 126.447 94.327 121.717 96.577C116.987 98.827 102.227 97.327 96.4771 98.827C90.7271 100.327 101.227 130.827 101.227 130.827L62.4771 138.077C62.4771 138.077 66.2271 120.077 59.9771 96.077C53.7271 72.077 39.1271 46.337 48.1271 34.697C57.1271 23.057 86.4771 17.827 104.477 19.577Z" fill="#E0A375"/>
<path d="M115.567 35.577C114.427 37.307 113.087 38.887 111.907 40.577C110.727 42.267 109.627 44.027 108.227 45.577C106.627 41.247 110.777 35.047 115.567 35.577Z" fill="#915933"/>
<path d="M119.967 66.737C120.237 72.977 114.297 78.317 106.697 78.647C99.0968 78.977 92.6968 74.187 92.4268 67.937C92.1568 61.687 98.0968 56.367 105.707 56.027C113.317 55.687 119.657 60.487 119.967 66.737Z" fill="#E5806E"/>
<path d="M118.217 51.2669C119.627 49.7169 120.067 47.1269 118.667 45.5269C118.377 45.5269 118.437 46.7669 118.387 47.0469C118.235 48.0459 117.917 49.0125 117.447 49.9069C117.256 49.6506 117.001 49.4486 116.708 49.3206C116.416 49.1926 116.094 49.143 115.777 49.1769C114.637 49.3869 113.987 51.0468 114.327 52.8768C114.667 54.7068 115.877 56.0269 117.017 55.8069C118.157 55.5869 118.807 53.9369 118.457 52.1069C118.405 51.8195 118.325 51.538 118.217 51.2669V51.2669Z" fill="#231012"/>
<path d="M111.897 72.2471C111.897 72.2471 116.467 80.5871 125.847 78.6671" stroke="#B76C53" stroke-width="0.75" stroke-linecap="round" stroke-linejoin="round"/>
<path d="M86.2368 84.417C86.2368 84.417 87.3968 99.707 95.2368 108.287C94.4468 103.287 94.4968 99.347 96.4768 98.827C102.227 97.327 116.977 98.827 121.717 96.577C121.717 96.577 99.8968 96.247 95.2268 92.917C91.9369 90.4109 88.9232 87.5615 86.2368 84.417Z" fill="#CE8061"/>
<path d="M121.717 0.416902C119.067 -1.4231 115.057 3.2469 103.977 6.2469C92.8971 9.2469 79.7271 13.0769 64.8971 15.0769C50.0671 17.0769 35.0671 23.9169 35.7271 41.2469C36.3871 58.5769 50.8971 75.9169 54.7271 88.2469C58.5571 100.577 56.3971 104.247 59.5671 106.917C61.7471 108.727 68.727 108.677 75.897 106.077C83.067 103.477 79.8971 94.0769 79.2271 87.7469C78.6271 82.0169 82.3271 75.9069 84.8471 74.9069L86.1171 62.0369C99.9671 52.5069 94.897 37.5769 94.897 37.5769C101.727 35.9169 113.187 33.0469 118.897 26.4169L119.987 25.6669C123.161 23.0341 125.254 19.3247 125.867 15.2469C127.397 6.9169 124.357 2.2469 121.717 0.416902Z" fill="#AD7041"/>
<path d="M94.6368 51.257C94.6368 51.257 60.2768 55.897 38.1768 29.657C38.1768 29.657 66.9768 50.657 95.7668 45.537" stroke="#915933" stroke-width="0.5" stroke-linecap="round" stroke-linejoin="round"/>
<path d="M123.967 2.66699C123.967 2.66699 120.427 17.247 104.757 20.747C89.0868 24.247 57.0668 11.967 39.7568 27.187" stroke="#915933" stroke-width="0.5" stroke-linecap="round" stroke-linejoin="round"/>
<path d="M121.317 24.447C121.317 24.447 103.887 33.037 80.0566 20.147" stroke="#915933" stroke-width="0.5" stroke-linecap="round" stroke-linejoin="round"/>
<path d="M90.9669 79.887L86.7369 63.117C86.7369 63.117 81.3569 52.387 74.2069 57.977C67.0569 63.567 78.2369 83.687 90.9669 79.887Z" fill="#E0A375"/>
<path d="M90.9666 79.8868L86.7366 63.1168C86.7366 63.1168 86.5167 62.6868 86.1067 62.0368C84.617 61.4057 82.9778 61.2144 81.3829 61.4855C79.788 61.7567 78.3041 62.4789 77.1067 63.5668C75.1067 65.3468 74.5567 68.5668 74.8567 72.0268C78.3167 77.4768 84.4366 81.8368 90.9666 79.8868Z" fill="#CE8061"/>
<path d="M21.9068 15.817C-3.55322 16.607 -2.92322 43.997 4.40678 58.737C11.7368 73.477 32.7368 115.657 4.57677 132.487C4.57677 132.487 22.5768 134.487 35.7368 121.317C48.8968 108.147 50.9468 80.627 48.2368 57.817C45.5268 35.007 43.4068 15.157 21.9068 15.817Z" fill="#915933"/>
<path d="M31.6972 17.337C31.6972 17.337 19.0672 15.337 16.2272 29.637C13.3872 43.937 27.8272 63.917 31.6972 82.417C35.5672 100.917 25.0871 126.067 4.57715 132.487" stroke="#AD7041" stroke-width="0.5" stroke-linecap="round" stroke-linejoin="round"/>
<path d="M19.8271 130.717C19.8271 130.717 34.7472 121.247 32.4872 88.2471" stroke="#AD7041" stroke-width="0.5" stroke-linecap="round" stroke-linejoin="round"/>
<path d="M8.20676 20.147C8.20676 20.147 0.12676 29.867 4.57676 46.717C10.5768 69.417 31.2568 95.097 21.5768 120.717" stroke="#AD7041" stroke-width="0.5" stroke-linecap="round" stroke-linejoin="round"/>
<path d="M41.2271 28.7471C41.2271 28.7471 68.7271 101.077 33.7271 126.077" stroke="#915933" stroke-width="0.5" stroke-linecap="round" stroke-linejoin="round"/>
<path d="M1.06699 37.5769C1.06699 37.5769 -1.75303 47.7469 4.57697 64.2469C10.907 80.7469 21.577 110.747 7.89698 126.077" stroke="#915933" stroke-width="0.5" stroke-linecap="round" stroke-linejoin="round"/>
<path d="M51.4971 145.347C51.4971 145.347 56.2371 134.887 59.8971 130.717C63.5571 126.547 90.7171 119.917 103.977 123.917C117.237 127.917 121.837 135.917 121.837 135.917L51.4971 145.347Z" fill="#969269"/>
<path d="M144.607 141.147C125.277 131.717 102.607 124.727 70.6071 132.487C55.3371 136.187 36.8971 151.577 35.7471 164.577C34.8871 174.377 43.2771 211.247 54.8571 235.957C68.0853 245.717 83.2881 252.467 99.3999 255.732C115.512 258.996 132.143 258.698 148.127 254.857L149.477 219.477C149.477 219.477 152.937 227.577 155.267 229.577C157.597 231.577 172.607 225.577 180.937 217.577C189.267 209.577 193.607 201.577 190.937 194.917C188.267 188.257 163.967 150.577 144.607 141.147Z" fill="#7E7B44"/>
<path d="M32.3569 162.127C35.5769 159.857 38.8069 157.417 42.5269 156.007C46.1538 154.592 50.18 154.592 53.8069 156.007C55.0036 156.443 56.0253 157.257 56.7169 158.327C57.2329 159.265 57.4754 160.328 57.4169 161.397C57.1837 163.881 56.5839 166.318 55.6369 168.627C54.4369 172.227 51.9569 179.417 57.3069 180.847C59.5569 181.447 62.0469 181.017 64.3069 180.707C67.1548 180.207 70.0481 180.016 72.9369 180.137C75.6569 180.347 78.5269 181.137 80.4769 183.137C82.7469 185.507 83.0869 188.947 83.0269 192.077C83.0269 194.747 82.4069 197.537 80.5369 199.537C78.6506 201.321 76.264 202.487 73.6969 202.877C70.6969 203.517 67.4769 203.347 64.6069 204.527C63.2482 205.049 62.0943 205.996 61.3169 207.227C60.5303 208.619 60.2311 210.235 60.4669 211.817C60.6469 213.607 61.1069 215.437 60.7569 217.227C60.3119 218.851 59.4973 220.35 58.3769 221.607C56.9252 223.573 54.7803 224.913 52.3769 225.357C47.5569 226.047 43.0669 222.557 40.1169 219.127C36.7469 215.207 34.1169 210.037 33.9569 204.787C33.9221 204.211 33.9221 203.633 33.9569 203.057C33.9569 202.767 34.0169 202.487 34.0569 202.197C34.0969 201.907 34.3569 201.437 34.4269 201.027C34.4969 200.617 33.9869 200.577 33.9369 200.897C33.8869 201.217 33.6469 201.647 33.5769 202.067C33.5069 202.487 33.4969 202.647 33.4669 202.947C33.4103 203.538 33.3936 204.133 33.4169 204.727C33.4644 205.984 33.6387 207.234 33.9369 208.457C34.6058 211.115 35.6927 213.65 37.1569 215.967C39.7569 220.167 43.7369 224.367 48.6869 225.617C50.8026 226.187 53.0529 225.978 55.0269 225.027C57.4516 223.65 59.3879 221.553 60.5669 219.027C61.307 217.442 61.5308 215.665 61.2069 213.947C60.9969 212.217 60.5269 210.287 61.1469 208.587C62.4469 205.037 66.2169 204.287 69.5469 203.937C74.6569 203.407 80.6369 202.267 82.6769 196.857C83.1545 195.516 83.421 194.109 83.4669 192.687C83.5824 190.92 83.4716 189.146 83.1369 187.407C82.886 186.056 82.3328 184.78 81.5189 183.673C80.705 182.567 79.6514 181.659 78.4369 181.017C73.1869 178.317 67.1269 180.017 61.5869 180.497C59.5869 180.677 56.7969 180.867 55.3769 179.127C54.6687 178.113 54.3492 176.877 54.4769 175.647C54.5573 174.146 54.826 172.661 55.2769 171.227C56.0169 168.687 57.0469 166.227 57.5769 163.637C58.0169 161.517 58.0969 159.147 56.6369 157.387C55.7973 156.459 54.728 155.77 53.5369 155.387C51.7456 154.74 49.8513 154.425 47.9469 154.457C43.9469 154.517 40.3369 156.217 37.0469 158.307C35.3369 159.387 33.7069 160.567 32.0469 161.737C31.7869 161.917 32.0469 162.357 32.2969 162.167L32.3569 162.127Z" fill="#EAE5DF"/>
<path d="M118.567 129.327C111.387 128.957 104.567 133.417 100.917 139.377C99.1969 142.147 98.2369 145.787 99.4969 148.937C100.497 151.507 102.977 152.937 104.637 155.077C105.548 156.141 106.083 157.477 106.157 158.877C106.144 160.07 105.863 161.246 105.337 162.317C104.061 164.688 102.6 166.955 100.967 169.097C99.3727 171.181 98.3398 173.639 97.9669 176.237C97.8474 177.626 98.0671 179.023 98.6071 180.309C99.1471 181.595 99.9912 182.73 101.067 183.617C103.297 185.417 106.767 186.617 109.607 185.817C110.815 185.415 111.926 184.764 112.867 183.907C114.258 182.708 115.732 181.609 117.277 180.617C118.698 179.683 120.348 179.157 122.047 179.097C123.469 179.161 124.865 179.501 126.157 180.097C129.157 181.307 132.107 183.017 135.417 183.017C141.677 183.017 145.687 177.457 147.727 172.157C149.137 168.497 149.917 164.597 150.967 160.827C152.122 156.16 153.799 151.638 155.967 147.347C157.717 144.127 160.417 140.347 164.447 140.127C165.369 140.096 166.29 140.228 167.167 140.517C167.477 140.617 167.607 140.137 167.297 140.037C165.633 139.468 163.822 139.496 162.177 140.117C160.541 140.827 159.11 141.938 158.017 143.347C155.167 146.787 153.497 151.157 152.107 155.347C150.767 159.347 149.777 163.477 148.667 167.567C147.367 172.377 145.447 177.567 141.247 180.567C139.961 181.488 138.477 182.095 136.914 182.338C135.35 182.581 133.752 182.454 132.247 181.967C129.367 181.107 126.737 179.387 123.777 178.777C120.487 178.097 117.687 179.607 115.087 181.487C113.847 182.377 112.737 183.487 111.487 184.327C110.326 185.164 108.917 185.587 107.487 185.527C105.892 185.484 104.332 185.057 102.939 184.28C101.546 183.503 100.361 182.401 99.4869 181.067C98.8175 179.814 98.454 178.421 98.4262 177.001C98.3984 175.581 98.707 174.175 99.3269 172.897C100.541 170.501 101.978 168.225 103.617 166.097C104.947 164.167 106.337 162.097 106.617 159.657C106.897 156.987 105.367 154.927 103.547 153.147C102.518 152.237 101.577 151.233 100.737 150.147C99.8582 148.84 99.4075 147.292 99.4469 145.717C99.4469 142.007 101.607 138.657 104.077 136.047C106.589 133.369 109.768 131.405 113.287 130.357C115.005 129.883 116.788 129.691 118.567 129.787C118.887 129.787 118.887 129.307 118.567 129.287V129.327Z" fill="#EAE5DF"/>
<path d="M154.817 234.917C154.859 231.557 154.523 228.202 153.817 224.917C153.088 221.084 151.906 217.351 150.297 213.797C147.457 207.637 142.197 201.067 134.647 201.697C131.117 201.997 128.517 204.127 126.217 206.697C124.097 209.047 121.967 211.697 118.677 212.297C116.397 212.717 114.117 212.037 111.897 211.617C109.465 211.086 107.004 210.699 104.527 210.457C102.23 210.247 99.9139 210.446 97.6869 211.047C95.1293 211.823 92.7503 213.098 90.6869 214.797C88.9117 216.012 87.5728 217.765 86.8669 219.797C86.3573 222.056 86.6879 224.424 87.7969 226.457C88.7007 228.071 90.13 229.328 91.8469 230.017C93.9848 230.819 95.9726 231.975 97.7269 233.437C98.5539 234.192 99.1676 235.151 99.5063 236.218C99.8451 237.286 99.897 238.423 99.6569 239.517C99.0706 241.78 98.1577 243.947 96.9469 245.947C95.0969 249.437 93.3669 253.107 93.5369 257.157C93.8069 263.357 98.5969 267.887 104.227 269.747C110.137 271.747 117.157 271.077 122.227 267.347C123.538 266.379 124.704 265.227 125.687 263.927C126.783 262.326 127.692 260.605 128.397 258.797C129.977 255.177 131.797 251.177 134.987 248.677C138.177 246.177 142.497 246.397 146.267 247.767C148.415 248.667 150.624 249.415 152.877 250.007C154.938 250.502 157.086 250.502 159.147 250.007C161.172 249.438 162.917 248.142 164.047 246.367C164.217 246.097 163.787 245.847 163.607 246.107C162.99 247.071 162.175 247.893 161.216 248.519C160.258 249.144 159.178 249.56 158.047 249.737C155.858 250.001 153.638 249.793 151.537 249.127C149.307 248.507 147.247 247.457 145.037 246.807C143.152 246.208 141.159 246.027 139.197 246.277C135.717 246.807 133.147 249.277 131.287 252.107C130.174 253.854 129.201 255.687 128.377 257.587C127.648 259.437 126.771 261.226 125.757 262.937C122.117 268.367 115.477 270.767 109.117 270.227C103.337 269.737 97.1169 266.717 94.8369 261.057C93.7468 258.022 93.7468 254.702 94.8369 251.667C96.1669 247.387 99.4269 243.787 100.167 239.327C100.345 238.395 100.323 237.437 100.102 236.514C99.8816 235.592 99.4673 234.727 98.8869 233.977C97.3711 232.25 95.4552 230.922 93.3069 230.107C91.6169 229.357 89.8869 228.647 88.7669 227.107C88.0726 226.124 87.5792 225.014 87.315 223.84C87.0507 222.667 87.0208 221.452 87.2269 220.267C87.7069 217.937 89.5069 216.267 91.3269 214.847C93.3938 213.201 95.7761 211.996 98.3269 211.307C103.107 210.137 108.047 211.307 112.767 212.237C114.717 212.783 116.755 212.946 118.767 212.717C120.273 212.403 121.676 211.715 122.847 210.717C125.307 208.717 126.997 205.967 129.547 204.087C130.96 203.075 132.601 202.428 134.324 202.201C136.047 201.974 137.8 202.175 139.427 202.787C142.641 204.089 145.363 206.37 147.207 209.307C149.307 212.501 150.912 215.993 151.967 219.667C153.082 223.216 153.819 226.873 154.167 230.577C154.302 232.026 154.352 233.482 154.317 234.937C154.317 235.257 154.807 235.257 154.817 234.937V234.917Z" fill="#EAE5DF"/>
<path d="M182.227 173.327C179.441 173.112 176.65 173.666 174.157 174.927C171.253 176.274 168.943 178.641 167.667 181.577C167.059 183.085 166.936 184.746 167.317 186.327C167.651 187.532 168.349 188.604 169.317 189.397C171.117 190.957 173.597 191.957 174.887 194.037C175.242 194.62 175.474 195.269 175.568 195.945C175.663 196.621 175.618 197.309 175.437 197.967C174.994 199.293 174.316 200.529 173.437 201.617C172.602 202.659 171.9 203.801 171.347 205.017C170.847 206.417 170.716 207.922 170.967 209.387C171.646 212.537 173.243 215.415 175.557 217.658C177.871 219.9 180.797 221.407 183.967 221.987C190.067 222.757 195.797 218.727 198.387 213.397C198.765 212.613 199.099 211.808 199.387 210.987C199.487 210.687 199.007 210.557 198.897 210.857C197.837 214.062 195.833 216.872 193.147 218.917C190.922 220.617 188.207 221.554 185.407 221.587C182.432 221.522 179.564 220.466 177.257 218.587C174.528 216.536 172.538 213.655 171.587 210.377C171.171 208.838 171.171 207.216 171.587 205.677C172.029 204.478 172.664 203.36 173.467 202.367C174.917 200.367 176.467 198.247 175.977 195.627C175.567 193.417 173.777 192.037 172.037 190.837C171.038 190.208 170.095 189.495 169.217 188.707C168.675 188.191 168.244 187.57 167.95 186.883C167.656 186.195 167.506 185.455 167.507 184.707C167.417 181.027 170.207 177.807 173.197 176.007C175.875 174.363 179.005 173.614 182.137 173.867C182.457 173.867 182.457 173.407 182.137 173.367L182.227 173.327Z" fill="#EAE5DF"/>
<path d="M144.607 141.147C144.607 141.147 124.047 138.797 127.967 161.577C132.247 186.197 149.397 219.477 149.397 219.477" stroke="#514D27" stroke-width="0.75" stroke-linecap="round" stroke-linejoin="round"/>
<path d="M190.897 194.917C190.897 194.917 181.897 220.637 152.897 226.437" stroke="#514D27" stroke-width="0.75" stroke-linecap="round" stroke-linejoin="round"/>
<path d="M103.767 136.917C103.037 146.387 98.8368 152.697 92.6368 151.637C86.4368 150.577 84.3668 141.787 85.9768 132.427C87.5868 123.067 91.8168 119.007 98.0268 120.077C101.127 120.607 107.157 124.907 107.907 128.407C108.657 131.907 104.597 126.067 103.767 136.917Z" fill="#D6986E"/>
<path d="M89.1968 136.227C89.1968 136.227 87.3668 146.037 89.5768 150.227" stroke="#AD7041" stroke-width="0.75" stroke-linecap="round" stroke-linejoin="round"/>
<path d="M95.8671 137.367C95.8671 137.367 95.3671 144.437 98.7271 149.907" stroke="#AD7041" stroke-width="0.75" stroke-linecap="round" stroke-linejoin="round"/>
<path d="M148.307 104.467C148.307 104.467 148.017 93.707 134.777 83.647C134.777 83.647 126.867 88.697 122.937 105.747L148.307 104.467Z" fill="#AD7041"/>
<path d="M144.837 103.577C144.837 103.577 144.637 96.027 135.337 88.957C135.337 88.957 129.787 92.507 127.027 104.477L144.837 103.577Z" fill="#F5ADA1"/>
<path d="M165.137 111.687C165.137 111.687 173.137 104.467 189.547 107.117C189.547 107.117 191.337 116.327 181.697 130.937L165.137 111.687Z" fill="#AD7041"/>
<path d="M168.187 113.577C168.187 113.577 173.787 108.517 185.317 110.377C185.317 110.377 186.577 116.837 179.807 127.087L168.187 113.577Z" fill="#F5ADA1"/>
<path d="M183.847 155.857C185.977 148.247 178.427 139.417 178.427 139.417C178.427 139.417 186.507 146.997 186.197 138.037C185.887 129.077 175.427 114.677 157.197 106.877C138.967 99.0769 121.367 101.437 114.657 107.387C107.947 113.337 119.017 113.967 119.017 113.967C119.017 113.967 107.417 114.587 103.367 121.387C99.3172 128.187 114.157 132.667 114.157 132.667C114.31 135.179 114.863 137.65 115.797 139.987C117.297 143.537 129.007 149.737 137.297 153.287C145.587 156.837 158.157 161.047 161.767 159.687C164.366 158.653 166.904 157.471 169.367 156.147C169.367 156.147 181.717 163.477 183.847 155.857Z" fill="#D6986E"/>
<path d="M149.967 107.737L160.037 112.047L160.547 111.187C157.245 109.832 153.733 109.061 150.167 108.907C150.058 108.908 149.952 108.945 149.865 109.012C149.779 109.079 149.717 109.172 149.689 109.277C149.661 109.383 149.667 109.494 149.709 109.595C149.75 109.697 149.823 109.781 149.917 109.837C152.517 111.427 155.007 113.177 157.577 114.837L157.827 113.907C155.397 113.687 153.017 113.007 150.577 112.907C150.177 112.907 149.877 113.487 150.227 113.757C151.677 114.897 152.657 116.497 154.387 117.277L154.637 116.347C153.06 116.339 151.495 116.086 149.997 115.597C149.537 115.417 149.117 116.127 149.507 116.437C150.717 117.377 151.677 118.637 153.107 119.287L153.357 118.357C152.187 118.344 151.017 118.41 149.857 118.557C149.759 118.561 149.664 118.593 149.584 118.649C149.504 118.706 149.442 118.784 149.405 118.874C149.368 118.965 149.358 119.064 149.376 119.161C149.394 119.257 149.439 119.346 149.507 119.417C150.187 120.247 150.637 121.167 151.667 121.647L151.787 120.737C150.809 120.999 149.798 121.114 148.787 121.077C148.147 121.077 148.147 122.077 148.787 122.077C149.89 122.122 150.993 121.994 152.057 121.697C152.427 121.567 152.597 120.987 152.177 120.787C151.257 120.347 150.837 119.467 150.177 118.707L149.817 119.557C150.977 119.41 152.147 119.344 153.317 119.357C153.425 119.352 153.529 119.313 153.613 119.245C153.698 119.177 153.758 119.083 153.786 118.979C153.814 118.874 153.808 118.763 153.768 118.662C153.729 118.561 153.658 118.475 153.567 118.417C152.217 117.807 151.317 116.617 150.177 115.727L149.687 116.557C151.273 117.07 152.929 117.336 154.597 117.347C154.706 117.346 154.812 117.309 154.898 117.242C154.984 117.176 155.046 117.082 155.074 116.977C155.103 116.872 155.096 116.76 155.055 116.659C155.014 116.558 154.94 116.473 154.847 116.417C153.207 115.677 152.277 114.137 150.897 113.057L150.537 113.907C152.977 113.987 155.357 114.667 157.787 114.907C158.307 114.907 158.427 114.217 158.037 113.967C155.477 112.327 152.977 110.577 150.377 108.967L150.127 109.897C153.515 110.039 156.854 110.762 159.997 112.037C160.587 112.287 161.097 111.427 160.507 111.177L150.437 106.857C149.847 106.607 149.337 107.467 149.927 107.727L149.967 107.737Z" fill="#AD7041"/>
<path d="M133.287 105.677C136.377 106.547 139.607 106.337 142.767 106.677L142.637 105.677C140.267 106.327 137.827 106.727 135.637 107.887C135.542 107.943 135.469 108.029 135.428 108.131C135.387 108.233 135.381 108.346 135.41 108.452C135.44 108.558 135.504 108.651 135.592 108.717C135.68 108.783 135.787 108.818 135.897 108.817C137.537 108.747 139.057 109.427 140.667 109.587L140.417 108.657C139.06 109.561 137.62 110.335 136.117 110.967C135.777 111.107 135.557 111.687 135.997 111.877C137.207 112.417 138.237 113.247 139.447 113.787L139.697 112.847C138.697 112.947 137.787 113.627 136.767 113.727C136.337 113.727 136.007 114.437 136.517 114.657L138.667 115.577L138.787 114.667C138.177 114.887 137.507 114.907 136.887 115.127C136.267 115.347 136.547 116.317 137.157 116.127C137.767 115.937 138.437 115.887 139.057 115.657C139.407 115.537 139.607 114.937 139.177 114.747L137.017 113.827L136.767 114.757C137.767 114.657 138.677 113.977 139.697 113.877C140.127 113.877 140.447 113.177 139.947 112.947C138.747 112.417 137.707 111.577 136.507 111.047L136.387 111.957C137.986 111.312 139.52 110.515 140.967 109.577C141.055 109.517 141.122 109.431 141.158 109.331C141.194 109.23 141.198 109.122 141.17 109.019C141.141 108.916 141.081 108.825 140.998 108.759C140.915 108.692 140.813 108.653 140.707 108.647C139.087 108.487 137.597 107.807 135.937 107.877L136.187 108.807C138.297 107.697 140.667 107.327 142.947 106.697C143.537 106.537 143.347 105.787 142.817 105.697C139.747 105.317 136.607 105.527 133.597 104.697C133.464 104.663 133.323 104.682 133.205 104.752C133.087 104.821 133.001 104.934 132.967 105.067C132.932 105.2 132.952 105.341 133.021 105.459C133.091 105.577 133.204 105.663 133.337 105.697L133.287 105.677Z" fill="#AD7041"/>
<path d="M175.137 122.577C172.457 120.977 170.437 118.577 168.047 116.577C167.96 116.493 167.846 116.444 167.726 116.438C167.605 116.431 167.487 116.469 167.392 116.543C167.297 116.617 167.232 116.723 167.209 116.842C167.186 116.96 167.207 117.083 167.267 117.187C168.536 119.185 169.585 121.314 170.397 123.537L171.237 123.057C170.137 121.797 168.617 121.187 167.377 120.127C167.299 120.053 167.198 120.006 167.091 119.993C166.984 119.981 166.876 120.003 166.783 120.057C166.689 120.111 166.616 120.194 166.573 120.293C166.531 120.392 166.522 120.502 166.547 120.607C166.837 122.255 167.282 123.873 167.877 125.437L168.497 124.827C167.277 124.317 165.957 124.147 164.747 123.647C164.227 123.427 163.997 124.147 164.257 124.477C164.887 125.287 165.007 126.387 165.647 127.207L166.247 126.417L164.097 125.497C164.002 125.44 163.89 125.416 163.78 125.429C163.67 125.442 163.567 125.491 163.488 125.569C163.409 125.647 163.358 125.749 163.343 125.859C163.329 125.969 163.351 126.081 163.407 126.177C163.677 126.777 164.117 127.277 164.407 127.877C164.697 128.477 165.527 127.947 165.267 127.367C165.007 126.787 164.557 126.267 164.267 125.667L163.577 126.357L165.737 127.277C165.841 127.337 165.964 127.358 166.082 127.335C166.2 127.312 166.306 127.247 166.381 127.152C166.455 127.057 166.492 126.939 166.486 126.818C166.48 126.698 166.43 126.584 166.347 126.497C165.707 125.687 165.597 124.587 164.957 123.777L164.467 124.607C165.687 125.107 167.007 125.287 168.217 125.787C168.302 125.811 168.392 125.812 168.477 125.791C168.563 125.769 168.641 125.725 168.704 125.663C168.767 125.601 168.813 125.523 168.836 125.438C168.859 125.352 168.86 125.262 168.837 125.177C168.241 123.612 167.793 121.995 167.497 120.347L166.667 120.827C167.897 121.897 169.427 122.517 170.517 123.757C170.594 123.836 170.696 123.887 170.805 123.902C170.915 123.918 171.026 123.896 171.122 123.841C171.218 123.786 171.293 123.701 171.336 123.599C171.378 123.497 171.386 123.384 171.357 123.277C170.517 120.967 169.431 118.754 168.117 116.677L167.327 117.287C169.787 119.287 171.867 121.787 174.627 123.427C174.74 123.478 174.867 123.485 174.985 123.448C175.103 123.41 175.203 123.33 175.265 123.223C175.327 123.116 175.348 122.989 175.322 122.868C175.296 122.747 175.227 122.64 175.127 122.567L175.137 122.577Z" fill="#AD7041"/>
<path d="M167.067 144.377C169.393 144.148 171.731 144.065 174.067 144.127C175.117 144.127 176.247 144.187 177.437 144.277C178.627 144.367 179.897 144.437 181.197 144.597C182.497 144.757 183.837 144.947 185.197 145.147C186.557 145.347 187.927 145.657 189.297 145.957C190.667 146.257 192.017 146.607 193.297 147.047C194.577 147.487 195.907 147.847 197.117 148.357C198.302 148.796 199.464 149.296 200.597 149.857C201.657 150.417 202.717 150.857 203.597 151.427C204.477 151.997 205.317 152.427 206.037 152.927C206.757 153.427 207.307 153.877 207.797 154.237L209.307 155.417L207.687 154.417C207.167 154.097 206.567 153.677 205.837 153.257C205.107 152.837 204.237 152.437 203.327 151.937C202.417 151.437 201.327 151.047 200.327 150.547C199.327 150.047 198.047 149.667 196.847 149.207C195.647 148.747 194.337 148.407 193.047 147.987C191.757 147.567 190.397 147.307 189.047 146.987C187.697 146.667 186.347 146.407 185.047 146.147C183.747 145.887 182.387 145.657 181.097 145.517C179.807 145.377 178.577 145.167 177.387 145.047C176.197 144.927 175.087 144.827 174.047 144.737C171.977 144.597 170.247 144.487 169.047 144.467C167.847 144.447 167.067 144.377 167.067 144.377Z" fill="white"/>
<path d="M173.767 148.757C173.767 148.757 176.267 149.307 179.897 150.527C180.807 150.817 181.767 151.207 182.807 151.577C183.847 151.947 184.937 152.327 186.027 152.807L189.417 154.277C190.577 154.767 191.727 155.327 192.867 155.907L196.257 157.627C197.397 158.167 198.427 158.867 199.467 159.457L202.467 161.237C203.467 161.787 204.267 162.377 205.057 162.937C206.627 164.027 207.907 164.937 208.817 165.627L210.217 166.627L208.707 165.747C207.707 165.167 206.367 164.377 204.707 163.367C203.85 162.809 202.965 162.295 202.057 161.827L199.057 160.187C198.007 159.627 196.967 158.977 195.827 158.447L192.437 156.757C191.317 156.177 190.177 155.607 189.037 155.117L185.687 153.577C184.607 153.077 183.537 152.647 182.537 152.207C181.537 151.767 180.597 151.347 179.697 151.017C178.797 150.687 178.007 150.347 177.287 150.017C176.567 149.687 175.927 149.497 175.407 149.297L173.767 148.757Z" fill="white"/>
<path d="M167.667 150.717C167.667 150.717 168.097 151.117 168.887 151.797C169.277 152.137 169.727 152.567 170.287 153.017C170.847 153.467 171.467 154.017 172.137 154.567C172.807 155.117 173.577 155.717 174.367 156.347C175.157 156.977 175.977 157.657 176.877 158.347L179.597 160.347C180.507 161.067 181.497 161.707 182.467 162.347L185.347 164.347C186.297 165.007 187.277 165.587 188.207 166.177L190.887 167.897C191.727 168.467 192.577 168.897 193.347 169.347C194.887 170.207 196.147 170.977 197.047 171.487L198.447 172.327L196.957 171.667C196.027 171.217 194.667 170.667 193.077 169.847C192.277 169.457 191.397 169.057 190.527 168.527L187.747 166.927C186.797 166.347 185.747 165.817 184.817 165.157L181.887 163.157C180.887 162.477 179.887 161.817 179.027 161.077L176.327 158.967C175.437 158.297 174.667 157.547 173.897 156.877C173.127 156.207 172.397 155.577 171.767 154.957C171.137 154.337 170.547 153.767 170.037 153.257C169.527 152.747 169.107 152.257 168.747 151.907C168.037 151.177 167.667 150.717 167.667 150.717Z" fill="white"/>
<path d="M126.277 126.777C126.277 126.777 125.807 126.267 124.937 125.407C124.067 124.547 122.817 123.357 121.297 121.947C120.527 121.247 119.697 120.487 118.787 119.727C117.877 118.967 116.907 118.167 115.897 117.347C114.887 116.527 113.797 115.747 112.737 114.907C111.677 114.067 110.507 113.317 109.357 112.547C108.207 111.777 107.067 111.017 105.867 110.357C104.667 109.697 103.557 108.977 102.387 108.437C101.217 107.897 100.127 107.247 99.0269 106.827C97.9269 106.407 96.9168 105.827 95.9268 105.567C94.9368 105.307 94.0469 104.927 93.2469 104.647C92.4469 104.367 91.7169 104.257 91.1369 104.097L89.2769 103.617L91.1669 103.907C91.7669 104.017 92.5069 104.107 93.3369 104.287C94.1669 104.467 95.0969 104.747 96.1069 105.037C97.1169 105.327 98.1668 105.757 99.2968 106.147C100.484 106.582 101.646 107.083 102.777 107.647C103.977 108.177 105.147 108.867 106.357 109.527C107.567 110.187 108.717 110.987 109.917 111.717C111.117 112.447 112.207 113.317 113.307 114.137C114.407 114.957 115.477 115.797 116.457 116.667C117.437 117.537 118.407 118.357 119.267 119.187C120.127 120.017 120.947 120.807 121.687 121.537C123.326 123.185 124.859 124.935 126.277 126.777V126.777Z" fill="white"/>
<path d="M118.497 124.907L116.927 124.127C116.427 123.887 115.827 123.577 115.117 123.257C114.407 122.937 113.617 122.577 112.757 122.167C111.897 121.757 110.937 121.357 109.947 120.917C108.957 120.477 107.897 120.007 106.787 119.567L103.387 118.197C102.237 117.697 101.047 117.267 99.8468 116.847L96.2968 115.577C95.1368 115.117 93.9468 114.797 92.8168 114.427L89.5568 113.347C88.5568 112.977 87.5568 112.717 86.6068 112.477C84.7668 111.997 83.2468 111.527 82.1668 111.237L80.4868 110.737L82.2168 111.047C83.3068 111.267 84.8768 111.537 86.7568 111.937C87.6968 112.117 88.7068 112.337 89.7568 112.647L93.0868 113.577C94.2268 113.937 95.4368 114.207 96.6168 114.667L100.197 115.947C101.407 116.387 102.597 116.837 103.747 117.347L107.137 118.807C108.247 119.267 109.267 119.807 110.247 120.297C111.227 120.787 112.167 121.227 113.007 121.707C116.387 123.467 118.497 124.907 118.497 124.907Z" fill="white"/>
<path d="M121.257 130.687C121.257 130.687 120.667 130.737 119.637 130.737C119.117 130.737 118.487 130.737 117.767 130.737C117.047 130.737 116.227 130.737 115.337 130.647C114.447 130.557 113.497 130.487 112.477 130.407C111.457 130.327 110.387 130.267 109.297 130.077L105.907 129.567C104.747 129.407 103.587 129.137 102.427 128.897L98.977 128.137C97.837 127.897 96.747 127.517 95.667 127.217L92.607 126.297C91.607 126.017 90.727 125.657 89.897 125.347C88.237 124.717 86.897 124.137 85.897 123.767L84.397 123.137L85.967 123.577C86.967 123.877 88.377 124.267 90.067 124.807C90.907 125.067 91.807 125.377 92.807 125.597L95.887 126.367C96.957 126.637 98.057 126.957 99.187 127.197L102.627 127.917C103.767 128.167 104.917 128.447 106.067 128.617L109.407 129.207C110.497 129.417 111.557 129.527 112.557 129.687C113.557 129.847 114.497 129.997 115.377 130.087C116.257 130.177 117.067 130.277 117.777 130.367C118.487 130.457 119.117 130.497 119.627 130.557C120.667 130.647 121.257 130.687 121.257 130.687Z" fill="white"/>
<path d="M131.097 127.057C130.097 129.347 130.547 131.697 132.017 132.307C133.487 132.917 135.457 131.577 136.417 129.307C137.377 127.037 136.957 124.677 135.487 124.057C134.017 123.437 132.057 124.777 131.097 127.057Z" fill="#3A130E"/>
<path d="M132.017 132.307C130.547 131.697 130.137 129.307 131.097 127.057C131.348 126.471 131.685 125.925 132.097 125.437L135.887 130.337C134.807 131.957 133.247 132.827 132.017 132.307Z" fill="#231012"/>
<path d="M134.657 127.577C134.357 128.297 134.417 129.007 134.777 129.157C135.137 129.307 135.687 128.857 135.987 128.157C136.287 127.457 136.237 126.737 135.867 126.587C135.497 126.437 134.967 126.887 134.657 127.577Z" fill="#EFF6FE"/>
<path d="M155.337 137.447C154.337 139.737 154.797 142.087 156.267 142.707C157.737 143.327 159.707 141.967 160.667 139.707C161.627 137.447 161.207 135.067 159.737 134.447C158.267 133.827 156.297 135.167 155.337 137.447Z" fill="#3A130E"/>
<path d="M156.267 142.707C154.797 142.087 154.377 139.707 155.337 137.447C155.591 136.862 155.928 136.316 156.337 135.827L160.117 140.727C159.057 142.347 157.497 143.217 156.267 142.707Z" fill="#231012"/>
<path d="M158.907 137.997C158.607 138.707 158.657 139.417 159.027 139.567C159.397 139.717 159.937 139.267 160.237 138.567C160.537 137.867 160.477 137.137 160.117 136.987C159.757 136.837 159.207 137.277 158.907 137.997Z" fill="#EFF6FE"/>
<path d="M145.507 134.257C148.697 135.597 150.817 137.687 149.897 138.797C148.977 139.907 145.477 140.397 143.047 140.127C141.147 138.577 139.047 135.747 139.187 134.307C139.327 132.867 142.317 132.917 145.507 134.257Z" fill="#231012"/>
<path d="M135.557 137.777C135.689 138.565 136.003 139.311 136.473 139.956C136.943 140.602 137.557 141.129 138.267 141.497C141.037 142.677 143.047 140.127 143.047 140.127C143.047 140.127 142.627 143.347 145.407 144.497C146.167 144.746 146.975 144.814 147.767 144.696C148.559 144.578 149.312 144.277 149.967 143.817" stroke="#231012" stroke-linecap="round" stroke-linejoin="round"/>
<path d="M165.887 171.907C160.697 179.857 153.977 183.367 149.047 179.457C144.117 175.547 146.537 166.847 152.447 159.407C158.357 151.967 164.027 150.457 168.957 154.407C171.417 156.407 174.627 163.037 173.607 166.457C172.587 169.877 171.837 162.787 165.887 171.907Z" fill="#D6986E"/>
<path d="M153.447 164.287C153.447 164.287 147.127 172.007 147.027 176.787" stroke="#AD7041" stroke-width="0.75" stroke-linecap="round" stroke-linejoin="round"/>
<path d="M158.737 168.497C158.737 168.497 154.907 174.497 155.227 180.867" stroke="#AD7041" stroke-width="0.75" stroke-linecap="round" stroke-linejoin="round"/>
<path d="M152.447 159.407C158.367 151.967 164.027 150.457 168.957 154.407C169.919 155.263 170.728 156.278 171.347 157.407" stroke="#AD7041" stroke-width="0.75" stroke-linecap="round" stroke-linejoin="round"/>
</svg>
