<svg width="249" height="271" viewBox="0 0 249 271" fill="none" xmlns="http://www.w3.org/2000/svg">
<circle cx="135.63" cy="147.63" r="112.63" fill="#EAE5DF"/>
<path d="M185.302 171.986C182.302 159.736 159.692 130.686 155.232 126.596C152.232 123.846 134.602 128.436 134.602 128.436L101.652 139.436C101.652 139.436 79.0516 150.266 78.0516 154.266C77.0516 158.266 90.5516 209.266 99.4316 225.016C108.312 240.766 108.332 246.766 107.692 251.266C107.301 253.328 106.8 255.368 106.192 257.376C133.917 264.531 163.326 260.881 188.462 247.166C186.992 240.476 185.692 234.906 185.602 232.986C185.302 227.486 188.302 184.236 185.302 171.986Z" fill="#969269"/>
<path d="M97.7915 121.846C97.7915 121.846 103.332 127.906 101.652 139.406C101.652 139.406 117.002 153.076 129.842 146.576C139.922 141.466 134.602 128.436 134.602 128.436C134.602 128.436 129.912 123.706 127.272 112.896L97.7915 121.846Z" fill="#BA6E4D"/>
<path d="M129.382 119.506C128.519 117.357 127.814 115.148 127.272 112.896L97.7915 121.846C98.5463 122.764 99.1845 123.772 99.6915 124.846C105.482 127.076 114.402 129.486 121.142 126.586C125.812 124.556 128.192 121.886 129.382 119.506Z" fill="#AA5044"/>
<path d="M60.8017 88.8864C63.8017 94.9964 61.3017 102.886 54.8017 106.576C48.3017 110.266 44.3318 105.976 44.3318 105.976C41.3318 110.886 32.5018 116.236 23.5018 111.696C14.5018 107.156 15.8318 95.9064 15.8318 95.9064C10.0018 97.2364 1.50177 92.2364 0.171773 82.0764C-1.15823 71.9164 5.67177 69.5764 5.67177 69.5764C4.00177 58.5764 13.6718 60.2364 13.6718 60.2364C13.6718 60.2364 11.8418 49.4764 25.6718 45.2364C39.0018 41.1564 45.1718 52.6364 45.1718 52.6364C47.2573 51.2963 49.727 50.6825 52.1972 50.8905C54.6673 51.0985 56.9997 52.1165 58.8318 53.7864C65.6018 59.7064 57.8318 71.8864 57.8318 71.8864L60.8017 88.8864Z" fill="#231012"/>
<path d="M13.4015 60.3064C13.6043 60.9542 13.9417 61.5518 14.3915 62.0602C14.8412 62.5685 15.3933 62.9762 16.0116 63.2564C17.0116 63.7764 18.6416 63.9564 19.2016 62.6864C19.4275 62.1655 19.5202 61.5966 19.4713 61.031C19.4224 60.4653 19.2335 59.9208 18.9216 59.4464C18.7552 59.2489 18.5273 59.1132 18.2745 59.061C18.0216 59.0088 17.7586 59.0432 17.5277 59.1586C17.2968 59.2741 17.1114 59.4639 17.0015 59.6975C16.8915 59.9311 16.8634 60.1948 16.9216 60.4464C17.2416 63.2564 22.0516 65.1464 23.2316 61.9464C23.5516 61.0664 23.1115 59.2664 22.0515 59.0064C20.9915 58.7464 21.1115 60.6764 21.4115 61.2364C22.5215 63.3064 26.9416 64.3664 28.3316 62.0864C28.366 62.0294 28.3764 61.961 28.3605 61.8963C28.3446 61.8316 28.3036 61.7759 28.2465 61.7414C28.1895 61.7069 28.1211 61.6965 28.0564 61.7124C27.9917 61.7284 27.936 61.7694 27.9015 61.8264C26.9015 63.3964 24.3416 62.8264 23.0416 62.1164C22.6607 61.9508 22.331 61.6864 22.0866 61.3506C21.8422 61.0148 21.692 60.6197 21.6515 60.2064C21.6515 59.8564 21.7415 59.2764 22.1615 59.6464C22.5116 60.0004 22.7423 60.4549 22.8216 60.9464C22.8517 61.2375 22.8175 61.5317 22.7215 61.8082C22.6254 62.0847 22.4699 62.3368 22.2658 62.5466C22.0617 62.7564 21.814 62.9189 21.5403 63.0225C21.2666 63.1261 20.9734 63.1684 20.6815 63.1464C20.13 63.0942 19.5967 62.921 19.1197 62.6393C18.6426 62.3576 18.2336 61.9742 17.9216 61.5164C17.5738 61.1237 17.3943 60.6102 17.4216 60.0864C17.4486 59.9658 17.5104 59.8559 17.5994 59.7703C17.6884 59.6846 17.8007 59.627 17.9221 59.6047C18.0436 59.5823 18.169 59.5961 18.2827 59.6444C18.3964 59.6927 18.4933 59.7734 18.5615 59.8764C18.7713 60.2412 18.902 60.6461 18.9451 61.0648C18.9882 61.4834 18.9426 61.9065 18.8115 62.3064C18.4215 63.6064 16.8915 63.3064 15.9915 62.7264C15.4881 62.4723 15.0404 62.1203 14.6746 61.691C14.3089 61.2617 14.0325 60.7638 13.8616 60.2264C13.8116 59.9064 13.3215 60.0464 13.3815 60.3564L13.4015 60.3064Z" fill="#3A130E"/>
<path d="M51.1917 81.1164C49.8717 79.1164 46.9617 77.5164 44.5217 78.0564C42.7441 78.5944 41.1492 79.6116 39.9117 80.9964C39.1817 81.7464 37.7317 83.4164 38.8117 84.4464C39.6117 85.2064 41.6517 85.3764 41.8717 83.9964C42.0917 82.6164 40.9317 81.1964 39.8717 80.5464C37.9717 79.4264 35.6417 80.2664 34.2717 81.8464C32.7617 83.5864 32.3917 86.4564 34.7617 87.6164C35.3317 87.8964 36.2717 88.2064 36.8217 87.7264C37.3717 87.2464 36.9517 86.2264 36.5817 85.7264C35.4017 84.1364 33.6917 85.9164 32.9417 86.9864C32.3088 87.907 31.8199 88.9186 31.4917 89.9864C31.1558 90.842 31.0792 91.7776 31.2717 92.6764C31.3617 92.9864 31.8517 92.8564 31.7517 92.5464C31.3617 91.2764 32.0517 89.6864 32.6117 88.5464C33.1717 87.4064 34.0217 85.8464 35.2617 85.6264C35.8717 85.5164 36.2617 86.0564 36.4617 86.5564C36.5717 86.8164 36.7317 87.2164 36.4617 87.4064C36.1882 87.512 35.8852 87.512 35.6117 87.4064C35.2328 87.3194 34.8762 87.1544 34.5646 86.922C34.253 86.6895 33.9931 86.3948 33.8017 86.0564C33.5715 85.4565 33.5094 84.805 33.6222 84.1724C33.735 83.5397 34.0183 82.9499 34.4417 82.4664C35.5417 81.0264 37.5517 80.0064 39.3217 80.8164C39.8752 81.062 40.3594 81.4407 40.731 81.9187C41.1027 82.3968 41.3503 82.9594 41.4517 83.5564C41.4517 83.9464 41.4517 84.3564 41.0017 84.4764C40.7047 84.5401 40.3979 84.5419 40.1002 84.4816C39.8026 84.4214 39.5205 84.3005 39.2717 84.1264C38.3817 83.3664 39.8617 81.8464 40.3717 81.3164C41.4992 80.0973 42.9063 79.1707 44.4717 78.6164C46.7317 77.9464 49.5917 79.5164 50.8217 81.3764C51.0017 81.6464 51.4317 81.3764 51.2617 81.1264L51.1917 81.1164Z" fill="#3A130E"/>
<path d="M16.0513 93.7363C15.9486 94.743 15.5561 95.6983 14.9213 96.4863C14.4659 97.2174 13.8794 97.8581 13.1913 98.3763C12.2426 98.9902 11.1825 99.4115 10.0713 99.6163C9.6012 99.7464 9.09975 99.7002 8.66133 99.4863C8.48998 99.2781 8.38819 99.0214 8.37025 98.7524C8.35231 98.4833 8.41912 98.2154 8.56132 97.9863C8.87132 97.6063 9.45131 98.1363 9.68131 98.3763C10.1741 98.8887 10.4592 99.5658 10.4813 100.276C10.446 100.796 10.2857 101.299 10.0141 101.743C9.74246 102.187 9.36758 102.558 8.92134 102.826C7.91879 103.409 6.74852 103.634 5.60133 103.466C5.28133 103.466 5.28133 103.936 5.60133 103.966C6.78568 104.122 7.98901 103.902 9.04133 103.336C9.51157 103.065 9.92163 102.701 10.2466 102.266C10.5715 101.831 10.8045 101.334 10.9313 100.806C10.9952 100.379 10.9742 99.9442 10.8695 99.5255C10.7648 99.1068 10.5785 98.7129 10.3213 98.3663C10.1575 98.0894 9.93101 97.8547 9.6601 97.681C9.3892 97.5074 9.08139 97.3996 8.76133 97.3663C8.07133 97.3663 7.90134 98.2163 7.89134 98.7763C7.86785 99.0541 7.93638 99.3318 8.08637 99.5668C8.23637 99.8017 8.45949 99.9807 8.72132 100.076C10.0013 100.526 11.7213 99.7363 12.8413 99.1563C13.641 98.7012 14.3253 98.0682 14.8413 97.3063C15.7464 96.3133 16.3166 95.061 16.4713 93.7263C16.4713 93.4063 15.9813 93.4063 15.9713 93.7263L16.0513 93.7363Z" fill="#231012"/>
<path d="M33.5416 48.6465C37.2916 47.3365 35.8616 42.1265 33.8116 39.9165C33.0816 39.1365 31.5316 38.3565 30.9016 39.7165C30.5916 40.3765 31.0917 41.0065 31.6117 41.3765C32.3549 41.9025 33.2683 42.1309 34.1716 42.0165C34.8055 41.9009 35.389 41.595 35.8446 41.1394C36.3001 40.6839 36.6061 40.1003 36.7216 39.4665C37.1216 37.7065 36.1516 36.0065 35.1916 34.6165C35.0016 34.3565 34.5716 34.6165 34.7516 34.8665C35.6332 35.9296 36.1765 37.2321 36.3116 38.6065C36.3375 39.2032 36.1797 39.7935 35.8597 40.2977C35.5396 40.802 35.0726 41.1959 34.5216 41.4265C33.7517 41.6463 32.9264 41.5566 32.2216 41.1765C31.8016 40.9565 31.0616 40.4265 31.3916 39.8665C32.0016 38.8665 33.2516 39.9965 33.7016 40.5565C34.5745 41.6615 35.134 42.9809 35.3216 44.3765C35.5316 45.9765 35.0316 47.5565 33.4016 48.1265C33.1016 48.2365 33.2316 48.7165 33.5416 48.6065V48.6465Z" fill="#231012"/>
<path d="M133.371 58.3064C135.711 64.6764 143.111 68.4064 150.281 66.2564C157.451 64.1064 157.121 58.3064 157.121 58.3064C162.741 59.5564 172.731 56.9164 175.711 47.3064C178.691 37.6964 169.711 30.8264 169.711 30.8264C174.711 27.5564 177.031 17.9664 170.641 9.94638C164.251 1.92638 157.831 5.22638 157.831 5.22638C151.081 -3.61362 145.561 4.49638 145.561 4.49638C145.561 4.49638 139.081 -4.29362 126.431 2.70638C114.191 9.44638 118.191 21.8564 118.191 21.8564C115.778 22.4282 113.62 23.7812 112.054 25.7053C110.488 27.6293 109.601 30.0166 109.531 32.4964C109.061 41.4764 123.191 44.3764 123.191 44.3764L133.371 58.3064Z" fill="#231012"/>
<path d="M145.302 4.59648C145.723 5.33199 145.885 6.18782 145.762 7.02648C145.77 7.51102 145.67 7.99133 145.47 8.43244C145.269 8.87356 144.972 9.26438 144.602 9.57648C143.692 10.1465 142.712 9.28648 142.182 8.57648C141.911 8.27563 141.767 7.88117 141.782 7.47648C141.892 6.89648 142.622 6.89648 142.952 7.27648C143.221 7.69579 143.398 8.16786 143.471 8.6611C143.543 9.15434 143.509 9.65735 143.372 10.1365C143.042 11.4665 141.932 12.6365 140.472 12.1365C140.041 11.9936 139.682 11.6888 139.472 11.2865C139.211 10.9063 139.097 10.4443 139.152 9.98648C139.292 9.62648 139.692 9.98648 139.892 10.1565C140.226 10.4924 140.419 10.9431 140.432 11.4165C140.432 12.5399 140.036 13.6274 139.312 14.4865C139.045 14.9222 138.663 15.2754 138.207 15.5067C137.752 15.738 137.241 15.8383 136.732 15.7965C136.422 15.7265 136.282 16.2065 136.602 16.2765C139.112 16.8365 141.192 13.2765 140.902 11.1765C140.842 10.6235 140.583 10.1114 140.172 9.73648C139.852 9.46648 139.322 9.13648 138.922 9.42648C138.102 10.0365 139.012 11.6965 139.552 12.1865C139.834 12.4105 140.16 12.572 140.51 12.6601C140.859 12.7482 141.223 12.761 141.578 12.6977C141.933 12.6343 142.27 12.4962 142.567 12.2926C142.864 12.0889 143.115 11.8244 143.302 11.5165C143.683 10.9299 143.917 10.2603 143.985 9.5641C144.053 8.86791 143.952 8.16561 143.692 7.51648C143.604 7.2531 143.444 7.01967 143.23 6.84285C143.016 6.66602 142.757 6.55293 142.482 6.51648C142.226 6.50464 141.974 6.57766 141.764 6.72416C141.554 6.87066 141.399 7.08243 141.322 7.32648C141.032 8.45648 142.322 9.71648 143.262 10.1365C144.602 10.7565 145.672 9.53648 146.042 8.35648C146.412 7.17648 146.532 5.35648 145.752 4.35648C145.562 4.10648 145.132 4.35648 145.322 4.60648L145.302 4.59648Z" fill="#3A130E"/>
<path d="M134.942 45.8565C134.472 43.7365 135.262 40.7965 137.122 39.5165C138.32 38.8244 139.669 38.4332 141.052 38.3765C142.052 38.2665 143.942 38.0665 144.742 38.9165C145.102 39.2965 144.902 39.7965 144.662 40.1865C144.422 40.5765 144.072 41.1265 143.582 41.0365C142.582 40.8465 142.292 39.1165 142.322 38.3265C142.349 37.5644 142.622 36.8315 143.099 36.2369C143.577 35.6423 144.233 35.2177 144.972 35.0265C146.822 34.4665 150.092 35.0265 150.242 37.4365C150.292 38.0965 150.032 39.3865 149.322 39.6865C148.612 39.9865 148.322 38.5765 148.442 38.1065C148.792 36.8065 151.302 37.3865 152.152 37.6065C153.512 37.9465 155.452 38.6065 156.152 39.9065C156.302 40.1865 156.732 39.9065 156.582 39.6565C155.792 38.2165 153.742 37.4965 152.252 37.1265C151.112 36.8265 148.802 36.3565 148.052 37.6665C147.917 38.0145 147.874 38.3912 147.926 38.7607C147.979 39.1301 148.125 39.4799 148.352 39.7765C148.852 40.4965 149.612 40.2565 150.072 39.6265C150.379 39.2115 150.583 38.7296 150.668 38.2204C150.754 37.7111 150.717 37.1889 150.562 36.6965C150.332 36.1504 149.975 35.6669 149.521 35.2861C149.067 34.9053 148.529 34.638 147.952 34.5065C145.952 33.9565 143.322 34.5065 142.262 36.5065C141.909 37.1809 141.744 37.9379 141.784 38.698C141.825 39.4582 142.069 40.1934 142.492 40.8265C142.625 41.049 142.814 41.2326 143.04 41.359C143.267 41.4853 143.522 41.55 143.782 41.5465C144.432 41.4765 144.912 40.7765 145.182 40.2465C145.922 38.8065 144.622 38.0665 143.352 37.8965C141.513 37.6753 139.649 37.9088 137.922 38.5765C136.893 39.0525 136.014 39.8007 135.379 40.7401C134.745 41.6795 134.379 42.7744 134.322 43.9065C134.239 44.6106 134.273 45.3234 134.422 46.0165C134.492 46.3265 134.982 46.1965 134.912 45.8865L134.942 45.8565Z" fill="#3A130E"/>
<path d="M167.591 29.8365C168.543 30.5747 169.691 31.0165 170.891 31.1065C171.795 31.2915 172.728 31.2915 173.631 31.1065C174.449 30.8694 175.235 30.5336 175.971 30.1065C176.66 29.7856 177.227 29.253 177.591 28.5865C177.7 28.2979 177.704 27.9803 177.601 27.6894C177.499 27.3986 177.297 27.1532 177.031 26.9965C176.601 26.6665 176.031 26.3565 175.551 26.8365C174.711 27.7265 175.341 29.4765 176.011 30.2565C176.357 30.6046 176.773 30.8742 177.232 31.0468C177.691 31.2193 178.182 31.2909 178.671 31.2565C179.439 31.2036 180.186 30.9805 180.857 30.6035C181.528 30.2264 182.107 29.7048 182.551 29.0765C182.741 28.8265 182.391 28.4765 182.191 28.7265C181.001 30.2165 178.731 31.5265 176.881 30.3265C176.425 30.0141 176.073 29.5709 175.874 29.055C175.674 28.5392 175.635 27.9749 175.761 27.4365C175.941 26.8965 176.291 27.0365 176.681 27.3265C176.807 27.3867 176.917 27.4766 177 27.5885C177.083 27.7004 177.138 27.8308 177.16 27.9686C177.181 28.1064 177.169 28.2474 177.124 28.3794C177.079 28.5114 177.003 28.6305 176.901 28.7265C175.978 29.647 174.813 30.2882 173.541 30.5765C172.746 30.7365 171.927 30.7365 171.131 30.5765C169.978 30.5159 168.868 30.1158 167.941 29.4265C167.711 29.2065 167.351 29.5565 167.591 29.7765V29.8365Z" fill="#231012"/>
<path d="M123.102 10.3063C120.032 11.8663 117.722 7.7163 117.412 5.2063C117.309 4.66212 117.364 4.09981 117.572 3.58629C117.656 3.38856 117.813 3.23065 118.01 3.14508C118.207 3.05951 118.43 3.05279 118.632 3.1263C119.182 3.3663 119.002 4.2463 118.862 4.6863C118.743 5.18199 118.486 5.63385 118.121 5.98924C117.756 6.34464 117.297 6.58895 116.798 6.69374C116.3 6.79852 115.781 6.75946 115.304 6.5811C114.826 6.40274 114.41 6.09243 114.102 5.6863C113.274 4.64598 112.751 3.39622 112.592 2.0763C112.532 1.7563 112.052 1.8963 112.112 2.2063C112.295 3.54242 112.811 4.81116 113.612 5.8963C114.002 6.36612 114.504 6.73042 115.072 6.9558C115.64 7.18118 116.255 7.26044 116.862 7.1863C117.336 7.09478 117.782 6.89452 118.165 6.60126C118.549 6.30801 118.859 5.92977 119.072 5.49629C119.284 5.16252 119.42 4.78604 119.47 4.39367C119.52 4.00131 119.483 3.60271 119.362 3.22629C119.222 2.95696 118.984 2.75222 118.697 2.65521C118.409 2.55821 118.096 2.57653 117.822 2.7063C117.562 2.83813 117.343 3.03612 117.185 3.28022C117.027 3.52432 116.936 3.80585 116.922 4.0963C116.798 5.85414 117.313 7.59752 118.372 9.0063C119.532 10.6763 121.372 11.7663 123.372 10.7763C123.662 10.6263 123.372 10.1963 123.122 10.3363L123.102 10.3063Z" fill="#231012"/>
<path d="M88.8718 40.8564C72.5218 46.0364 56.4518 61.8564 63.7618 87.3164C71.4118 113.926 92.0718 127.316 114.062 120.316C136.052 113.316 145.402 89.1464 136.192 64.3764C126.802 39.3164 105.192 35.6764 88.8718 40.8564Z" fill="#BA6E4D"/>
<path d="M84.578 111.46C92.0715 110.13 97.2609 104.062 96.1688 97.9065C95.0767 91.7508 88.1168 87.8382 80.6233 89.1676C73.1298 90.497 67.9405 96.5649 69.0325 102.721C70.1246 108.876 77.0845 112.789 84.578 111.46Z" fill="#B25050"/>
<path d="M117.361 91.1765C120.011 96.8365 127.751 98.8065 134.641 95.5865C141.531 92.3665 144.971 85.1465 142.321 79.4865C139.671 73.8265 131.931 71.8465 125.041 75.0765C118.151 78.3065 114.711 85.5165 117.361 91.1765Z" fill="#B25050"/>
<path d="M101.651 71.8862C101.651 71.8862 102.911 83.2962 105.821 90.6262C105.821 90.6262 110.741 85.6262 113.061 88.3362C115.381 91.0462 110.571 100.046 110.571 100.046" fill="#BA6E4D"/>
<path d="M101.651 71.8862C101.651 71.8862 102.911 83.2962 105.821 90.6262C105.821 90.6262 110.741 85.6262 113.061 88.3362C115.381 91.0462 110.571 100.046 110.571 100.046" stroke="#AA5044" stroke-width="0.75" stroke-linecap="round" stroke-linejoin="round"/>
<path d="M99.4316 105.046C99.4316 105.046 113.082 111.346 120.432 98.3965Z" fill="#BA6E4D"/>
<path d="M99.4316 105.046C99.4316 105.046 113.082 111.346 120.432 98.3965" stroke="#AA5044" stroke-width="0.75" stroke-linecap="round" stroke-linejoin="round"/>
<path d="M80.9718 78.5664C80.2318 75.9464 81.6218 72.8464 83.3718 70.9364C84.2776 69.8782 85.4245 69.0534 86.7159 68.5313C88.0072 68.0092 89.4051 67.8051 90.7918 67.9364C89.1718 69.7164 87.0918 71.0764 85.5918 72.9364C83.9513 74.7282 82.409 76.6076 80.9718 78.5664V78.5664Z" fill="#231012"/>
<path d="M105.802 62.9264C107.132 61.1064 109.962 60.9264 111.942 61.4464C113.101 61.7211 114.179 62.2693 115.083 63.0452C115.988 63.8211 116.694 64.8021 117.142 65.9064C115.173 65.6009 113.242 65.088 111.382 64.3764C109.542 63.8364 107.692 63.3164 105.802 62.9264Z" fill="#231012"/>
<path d="M92.7917 83.5865C92.5943 82.9681 92.2785 82.3941 91.8617 81.8965C92.279 81.0909 92.4321 80.1744 92.2993 79.277C92.1665 78.3795 91.7545 77.5466 91.1217 76.8965C90.8317 76.8965 91.0517 78.1665 91.0517 78.4465C91.0257 79.3228 90.8776 80.1911 90.6117 81.0265C90.3287 80.9368 90.0248 80.9368 89.7417 81.0265C88.6417 81.3865 88.2217 83.1165 88.8017 84.8865C89.3817 86.6565 90.7417 87.8065 91.8017 87.4465C92.8617 87.0865 93.3717 85.3765 92.7917 83.5865Z" fill="#231012"/>
<path d="M115.952 76.4564C115.786 75.6823 115.421 74.965 114.892 74.3764C115.257 73.5917 115.373 72.714 115.224 71.8613C115.076 71.0086 114.67 70.2218 114.062 69.6064C113.772 69.6064 113.992 70.8664 113.992 71.1464C113.97 71.9913 113.832 72.8292 113.582 73.6364C113.442 73.6165 113.301 73.6165 113.162 73.6364C112.162 73.8664 111.582 75.2364 111.762 76.8264C111.762 76.8864 111.762 76.9164 111.762 76.9364C111.762 76.9564 111.762 77.2364 111.832 77.3864C112.242 79.2064 113.482 80.4764 114.612 80.2264C115.742 79.9764 116.362 78.2764 115.952 76.4564Z" fill="#231012"/>
<path d="M138.192 72.9663C117.842 70.7763 116.392 55.3763 116.392 55.3763C102.782 56.2863 91.0516 44.8663 91.0516 44.8663C94.8516 64.7563 78.1716 66.5663 78.1716 66.5663C83.7216 86.5663 65.7516 93.7263 65.7516 93.7263L59.5816 89.7263C45.2216 79.1963 55.0816 69.8263 55.0816 69.8263C46.8916 54.8263 61.2216 45.6063 61.2216 45.6063C65.3616 27.9263 82.6416 32.6663 82.6416 32.6663C86.6102 28.1221 92.1818 25.2879 98.1916 24.7563C108.352 23.8463 113.292 33.4963 113.292 33.4963C113.292 33.4963 121.002 31.5563 126.872 36.5963C132.742 41.6363 133.062 49.9563 133.062 49.9563C133.062 49.9563 140.712 54.8563 140.822 63.1663C140.932 71.4763 138.192 72.9663 138.192 72.9663Z" fill="#3A130E"/>
<path d="M60.9814 45.8064C61.2114 47.1864 61.7315 49.0564 63.1315 49.6964C63.4776 49.8349 63.8503 49.8942 64.2224 49.8699C64.5944 49.8457 64.9562 49.7386 65.2815 49.5564C65.7876 49.2298 66.171 48.7444 66.3715 48.1764C66.6715 47.4764 67.2315 45.6364 66.0315 45.4064C64.4415 45.0964 64.3115 47.0364 64.6215 48.0664C64.779 48.8009 65.17 49.4646 65.736 49.9584C66.3019 50.4523 67.0125 50.7498 67.7615 50.8064C68.5416 50.8652 69.3139 50.6168 69.9136 50.1143C70.5132 49.6118 70.8929 48.8949 70.9715 48.1164C71.0415 47.4164 70.8815 45.2064 69.6415 45.7864C68.4015 46.3664 68.4914 47.8564 68.9214 48.8464C69.2294 49.5328 69.6906 50.1393 70.2696 50.6195C70.8486 51.0997 71.53 51.4408 72.2615 51.6164C73.0285 51.7307 73.8099 51.5436 74.4419 51.0943C75.0739 50.645 75.5075 49.9684 75.6515 49.2064C75.6614 49.1454 75.6483 49.0829 75.6147 49.031C75.5812 48.9791 75.5297 48.9414 75.47 48.9252C75.4104 48.9091 75.3468 48.9156 75.2917 48.9435C75.2366 48.9714 75.1937 49.0188 75.1714 49.0764C75.0652 49.6309 74.7813 50.1357 74.3628 50.5145C73.9442 50.8934 73.4137 51.1257 72.8514 51.1764C71.8615 51.1116 70.9359 50.6631 70.2715 49.9264C69.9309 49.6093 69.6592 49.2255 69.4734 48.7988C69.2876 48.3722 69.1916 47.9118 69.1915 47.4464C69.1994 47.2089 69.2644 46.9767 69.381 46.7695C69.4976 46.5624 69.6624 46.3864 69.8615 46.2564C70.3215 46.0464 70.4515 46.7964 70.5015 47.1164C70.6433 47.7011 70.582 48.3167 70.3276 48.862C70.0731 49.4072 69.6407 49.8496 69.1014 50.1164C68.5025 50.3841 67.828 50.4305 67.1981 50.2474C66.5681 50.0643 66.0235 49.6635 65.6614 49.1164C65.2414 48.4264 64.4215 46.5864 65.4515 46.0464C66.6615 45.4264 66.2515 47.2764 66.0515 47.8164C65.9041 48.3143 65.6159 48.7588 65.2215 49.0964C64.9189 49.2937 64.5685 49.4052 64.2075 49.4193C63.8466 49.4334 63.4885 49.3495 63.1714 49.1764C62.0814 48.4764 61.7115 46.9064 61.5115 45.7264C61.5115 45.4064 60.9715 45.5364 61.0315 45.8564L60.9814 45.8064Z" fill="#231012"/>
<path d="M77.3415 66.6664C77.2069 67.4389 76.8607 68.1589 76.3415 68.7464C75.8218 69.383 75.161 69.8897 74.4114 70.2264C73.7414 70.5564 72.7614 70.9864 72.1014 70.4364C71.7214 70.1164 70.9115 69.0864 71.6815 68.7764C72.6815 68.3464 73.0615 69.6564 73.1515 70.4264C73.3111 71.4775 73.1832 72.5522 72.7815 73.5364C72.5677 73.8334 72.2891 74.0778 71.9669 74.251C71.6446 74.4243 71.2871 74.5219 70.9214 74.5364C69.9449 74.6685 68.9525 74.6244 67.9915 74.4064C67.6815 74.3364 67.5415 74.8164 67.8615 74.8864C68.8843 75.1227 69.9416 75.1701 70.9814 75.0264C71.4021 74.9973 71.8118 74.8798 72.184 74.6817C72.5562 74.4835 72.8825 74.2092 73.1415 73.8764C73.7273 72.6287 73.8821 71.2217 73.5815 69.8764C73.3715 68.7864 72.5815 67.6564 71.3415 68.3264C70.5515 68.7564 70.9015 69.6864 71.3415 70.2564C71.566 70.6034 71.8965 70.8687 72.2839 71.0128C72.6712 71.157 73.0947 71.1723 73.4915 71.0564C74.6363 70.7955 75.6793 70.2044 76.4915 69.3564C77.2584 68.6185 77.7699 67.6551 77.9515 66.6064C77.9515 66.5401 77.9251 66.4765 77.8782 66.4297C77.8314 66.3828 77.7678 66.3564 77.7015 66.3564C77.6352 66.3564 77.5716 66.3828 77.5247 66.4297C77.4778 66.4765 77.4515 66.5401 77.4515 66.6064L77.3415 66.6664Z" fill="#231012"/>
<path d="M112.622 33.3765C113.172 34.7765 112.702 36.6765 112.282 38.0465C112.002 38.9265 111.142 41.4965 109.772 40.8365C109.342 40.6365 108.472 39.8365 108.712 39.2465C108.952 38.6565 109.711 38.9265 110.051 39.0365C110.449 39.1692 110.806 39.3988 111.092 39.7044C111.378 40.0101 111.584 40.3822 111.69 40.7871C111.796 41.192 111.8 41.617 111.7 42.0237C111.601 42.4304 111.402 42.8059 111.122 43.1165C109.802 44.5865 106.742 44.8465 106.332 42.4565L106.152 42.7665C107.682 42.4565 109.222 43.9765 109.432 45.4165C109.662 47.0265 107.812 48.0965 106.592 48.6965C106.302 48.8365 106.592 49.2665 106.842 49.1265C108.362 48.3765 110.332 47.0665 109.842 45.1265C109.462 43.4865 107.732 41.9665 105.992 42.3165C105.928 42.335 105.874 42.3781 105.842 42.4363C105.81 42.4944 105.803 42.5628 105.822 42.6265C106.242 45.0665 109.142 45.2365 110.822 44.0065C111.236 43.7239 111.575 43.3443 111.81 42.9008C112.044 42.4572 112.167 41.9632 112.167 41.4615C112.167 40.9598 112.044 40.4657 111.81 40.0221C111.575 39.5786 111.236 39.199 110.822 38.9165C110.517 38.7039 110.167 38.5629 109.8 38.5041C109.433 38.4452 109.058 38.4699 108.702 38.5765C108.565 38.6329 108.442 38.719 108.343 38.8286C108.243 38.9381 108.169 39.0684 108.126 39.2099C108.083 39.3515 108.072 39.5009 108.094 39.6473C108.115 39.7937 108.169 39.9334 108.252 40.0565C108.414 40.4587 108.69 40.8055 109.044 41.0556C109.399 41.3056 109.818 41.4482 110.252 41.4665C111.052 41.3865 111.612 40.6165 111.972 39.9665C112.586 38.8686 112.999 37.6698 113.192 36.4265C113.439 35.3912 113.415 34.3096 113.122 33.2865C113.012 32.9865 112.522 33.1165 112.642 33.4165L112.622 33.3765Z" fill="#231012"/>
<path d="M132.681 49.6665C132.648 50.1808 132.476 50.6765 132.184 51.1008C131.892 51.5252 131.49 51.8624 131.021 52.0765C130.646 52.3156 130.218 52.4574 129.774 52.4888C129.33 52.5202 128.886 52.4404 128.481 52.2565C128.315 52.146 128.178 51.9977 128.081 51.8239C127.984 51.65 127.929 51.4556 127.921 51.2565C127.921 50.9765 127.921 50.3665 128.291 50.3665C128.661 50.3665 129.031 50.7765 129.231 51.0465C129.551 51.4827 129.71 52.0163 129.681 52.5565C129.551 54.3565 127.281 55.1665 125.751 54.8265C125.441 54.7565 125.301 55.2365 125.621 55.3065C127.321 55.6865 129.511 54.9165 130.071 53.1365C130.252 52.519 130.206 51.8574 129.942 51.2707C129.678 50.684 129.213 50.2109 128.631 49.9365C127.331 49.4665 127.231 51.3865 127.631 52.1565C128.211 53.1565 129.631 53.1565 130.631 52.8465C131.335 52.6469 131.959 52.2338 132.418 51.6641C132.876 51.0945 133.146 50.3964 133.191 49.6665C133.191 49.6002 133.165 49.5366 133.118 49.4897C133.071 49.4428 133.008 49.4165 132.941 49.4165C132.875 49.4165 132.811 49.4428 132.764 49.4897C132.718 49.5366 132.691 49.6002 132.691 49.6665H132.681Z" fill="#231012"/>
<path d="M138.391 92.7762L138.031 73.7162C138.031 73.7162 139.201 59.7162 146.941 60.7962C154.681 61.8762 159.451 82.3762 138.391 92.7762Z" fill="#BA6E4D"/>
<path d="M153.511 73.6263C152.911 80.1263 148.761 87.6963 138.331 92.7763L138.111 74.2663C141.441 71.1863 149.721 64.8163 153.511 73.6263Z" fill="#AA5044"/>
<path d="M76.3315 110.516L66.9215 93.9463C66.9215 93.9463 58.7815 82.5163 52.6715 87.3763C46.5615 92.2363 52.9015 112.296 76.3315 110.516Z" fill="#BA6E4D"/>
<path d="M53.6316 101.486C57.3916 106.826 64.7516 111.326 76.3316 110.486L67.3316 94.3263C62.8916 93.3763 52.5416 91.9563 53.6316 101.486Z" fill="#AA5044"/>
<path d="M186.982 203.926C184.04 201.259 181.889 197.834 180.762 194.026C180.652 193.626 180.622 193.208 180.674 192.796C180.726 192.384 180.859 191.986 181.064 191.625C181.27 191.265 181.545 190.948 181.873 190.693C182.201 190.439 182.576 190.251 182.977 190.141C183.377 190.032 183.795 190.002 184.207 190.054C184.619 190.106 185.017 190.239 185.378 190.444C185.739 190.65 186.055 190.925 186.31 191.253C186.564 191.581 186.752 191.956 186.862 192.356C187.69 194.824 189.08 197.066 190.922 198.906C194.862 202.806 200.372 204.126 207.292 202.826C210.517 202.301 213.571 201.017 216.203 199.08C218.835 197.143 220.97 194.609 222.432 191.686C226.692 183.396 226.352 172.286 221.522 161.966C215.522 149.136 208.672 126.846 215.852 113.326C219.562 106.326 226.102 101.916 234.742 100.546C236.472 100.276 241.052 100.546 242.642 104.636C242.926 105.226 243.068 105.874 243.056 106.529C243.044 107.183 242.878 107.826 242.571 108.404C242.264 108.983 241.826 109.481 241.291 109.858C240.756 110.235 240.139 110.482 239.492 110.576C232.792 111.636 228.112 114.896 225.202 120.066C217.072 134.536 221.432 146.857 227.202 159.287C232.852 171.357 233.202 184.556 228.012 194.576C226.098 198.351 223.328 201.625 219.923 204.137C216.518 206.65 212.572 208.331 208.402 209.046C198.422 210.926 191.462 208.006 186.982 203.926Z" fill="#D6632C"/>
<path d="M224.952 120.546C225.032 120.386 225.112 120.226 225.202 120.066C228.112 114.896 232.792 111.636 239.492 110.576C240.139 110.481 240.756 110.235 241.291 109.858C241.825 109.481 242.264 108.983 242.571 108.404C242.878 107.826 243.044 107.183 243.056 106.529C243.068 105.874 242.926 105.226 242.642 104.636C241.052 100.506 236.472 100.276 234.742 100.546C226.332 101.876 219.921 106.106 216.161 112.776C218.242 116.193 221.306 118.901 224.952 120.546Z" fill="#EFD79A"/>
<path d="M208.962 125.437C208.962 125.437 215.832 133.697 224.652 130.607" stroke="#EFD79A" stroke-width="6" stroke-miterlimit="10"/>
<path d="M224.552 139.797C224.552 139.797 217.452 146.627 210.862 142.597" stroke="#EFD79A" stroke-width="6" stroke-miterlimit="10"/>
<path d="M229.462 151.927C229.462 151.927 222.872 162.097 216.692 159.927" stroke="#EFD79A" stroke-width="6" stroke-miterlimit="10"/>
<path d="M219.422 169.197C219.422 169.197 226.772 173.657 233.422 170.137" stroke="#EFD79A" stroke-width="6" stroke-miterlimit="10"/>
<path d="M220.722 180.906C220.722 180.906 227.332 186.806 234.862 184.496" stroke="#EFD79A" stroke-width="6" stroke-miterlimit="10"/>
<path d="M219.042 190.577C219.042 190.577 221.652 198.667 229.132 202.357" stroke="#EFD79A" stroke-width="6" stroke-miterlimit="10"/>
<path d="M212.192 198.057C212.192 198.057 211.242 206.607 215.922 210.867" stroke="#EFD79A" stroke-width="6" stroke-miterlimit="10"/>
<path d="M201.492 200.117C201.492 200.117 197.862 207.217 200.142 213.007" stroke="#EFD79A" stroke-width="6" stroke-miterlimit="10"/>
<path d="M194.532 196.477C194.532 196.477 188.102 201.177 186.382 207.597" stroke="#EFD79A" stroke-width="6" stroke-miterlimit="10"/>
<path d="M141.112 130.836C141.112 130.836 139.462 164.436 146.762 187.146C146.762 187.146 139.182 192.906 142.622 208.256C142.622 208.256 136.392 197.656 129.102 200.836C129.102 200.836 140.102 218.176 146.762 222.656H206.842C221.552 222.656 225.392 204.096 217.072 187.786C208.752 171.476 173.562 132.236 173.562 132.236L141.112 130.836Z" fill="#FF8326"/>
<path d="M201.402 181.376C201.402 181.376 173.242 181.836 174.682 214.236C174.682 214.236 166.862 200.566 158.222 205.686L174.612 222.686" stroke="#EB9B22" stroke-width="0.75" stroke-linecap="round" stroke-linejoin="round"/>
<path d="M156.191 150.826C156.191 150.826 152.781 164.436 145.111 168.266C137.441 172.096 128.191 173.376 121.101 181.376C114.011 189.376 117.261 197.046 122.701 196.096C128.141 195.146 130.701 189.096 136.161 186.496C136.161 186.496 152.781 183.616 158.221 179.776C163.661 175.936 172.291 167.936 179.811 168.256" fill="#FF8326"/>
<path d="M122.632 184.306C122.632 184.306 118.222 185.866 117.262 192.306" stroke="#EB9B22" stroke-width="0.75" stroke-linecap="round" stroke-linejoin="round"/>
<path d="M124.432 187.786C123.27 188.828 122.348 190.11 121.73 191.543C121.112 192.976 120.812 194.526 120.852 196.086" stroke="#EB9B22" stroke-width="0.75" stroke-linecap="round" stroke-linejoin="round"/>
<path d="M145.932 184.376C150.572 183.196 155.642 181.596 158.222 179.776C163.652 175.936 172.292 167.936 179.812 168.256" stroke="#EB9B22" stroke-width="0.75" stroke-linecap="round" stroke-linejoin="round"/>
<path d="M156.191 150.826C156.191 150.826 152.781 164.436 145.111 168.266C144.391 168.636 143.651 168.976 142.901 169.266" stroke="#EB9B22" stroke-width="0.75" stroke-linecap="round" stroke-linejoin="round"/>
<path d="M173.562 132.236L141.111 130.836C141.111 130.836 140.822 136.736 141.022 145.246C144.412 149.886 150.432 156.396 158.222 157.636C165.822 158.846 179.501 153.936 188.921 149.966C180.491 139.956 173.562 132.236 173.562 132.236Z" fill="#D6632C"/>
<path d="M162.031 101.306C155.901 85.0164 143.411 79.8364 143.411 79.8364C132.661 95.9264 138.951 110.526 138.951 110.526L162.031 101.306Z" fill="#D6632C"/>
<path d="M157.941 101.876C153.621 90.4164 144.831 86.7664 144.831 86.7664C137.271 98.0964 141.691 108.376 141.691 108.376L157.941 101.876Z" fill="#F5ADA1"/>
<path d="M177.781 105.606C191.341 94.7065 204.721 96.6065 204.721 96.6065C205.791 115.926 192.951 125.296 192.951 125.296L177.781 105.606Z" fill="#D6632C"/>
<path d="M181.001 108.186C190.551 100.516 200.001 101.846 200.001 101.846C200.751 115.446 191.711 122.046 191.711 122.046L181.001 108.186Z" fill="#F5ADA1"/>
<path d="M194.722 117.686C191.992 112.206 183.342 104.056 170.722 100.596C158.072 97.1365 146.472 99.7465 141.332 103.076C136.192 106.406 121.932 124.276 124.532 134.666C124.532 134.666 131.972 134.586 140.612 140.266C149.252 145.946 151.352 147.136 157.532 148.826C163.712 150.516 166.132 150.576 176.462 150.076C186.792 149.576 193.152 153.426 193.152 153.426C200.642 145.816 197.462 123.176 194.722 117.686Z" fill="#FF8326"/>
<path d="M128.102 119.466C138.592 114.746 150.022 115.366 150.022 115.366C144.058 113.147 137.578 112.713 131.372 114.116C130.189 115.842 129.098 117.627 128.102 119.466V119.466Z" fill="#EFD79A"/>
<path d="M124.912 127.096C124.132 129.543 123.988 132.148 124.492 134.666C126.039 134.709 127.578 134.917 129.082 135.286C136.002 125.916 146.902 121.286 146.902 121.286C139.115 120.556 131.322 122.615 124.912 127.096V127.096Z" fill="#EFD79A"/>
<path d="M137.441 138.376C139.503 134.437 142.101 130.802 145.161 127.576C140.381 129.576 136.161 133.716 133.651 136.656C134.944 137.163 136.209 137.737 137.441 138.376Z" fill="#EFD79A"/>
<path d="M197.742 138.506C191.122 129.106 180.962 123.826 180.962 123.826C187.224 124.949 193.023 127.871 197.652 132.236C197.787 134.324 197.817 136.416 197.742 138.506V138.506Z" fill="#EFD79A"/>
<path d="M196.601 146.707C196.037 149.21 194.834 151.525 193.111 153.427C191.753 152.682 190.322 152.079 188.841 151.627C187.661 140.037 180.651 130.477 180.651 130.477C187.724 133.824 193.377 139.577 196.601 146.707V146.707Z" fill="#EFD79A"/>
<path d="M180.062 150.076C180.286 145.635 179.899 141.183 178.911 136.846C182.001 140.996 183.492 146.686 184.192 150.516C182.825 150.289 181.446 150.142 180.062 150.076V150.076Z" fill="#EFD79A"/>
<path d="M173.192 127.316C172.712 129.406 173.422 131.316 174.762 131.656C176.102 131.996 177.592 130.526 178.072 128.436C178.552 126.346 177.842 124.436 176.492 124.086C175.142 123.736 173.662 125.226 173.192 127.316Z" fill="#3A130E"/>
<path d="M174.751 131.656C173.411 131.356 172.751 129.406 173.181 127.316C173.278 126.891 173.422 126.479 173.611 126.086L177.711 129.486C177.051 130.986 175.861 131.916 174.751 131.656Z" fill="#231012"/>
<path d="M175.761 127.246C175.601 127.946 175.761 128.586 176.231 128.686C176.701 128.786 177.111 128.286 177.231 127.596C177.351 126.906 177.181 126.256 176.761 126.156C176.341 126.056 175.921 126.556 175.761 127.246Z" fill="#EFF6FE"/>
<path d="M163.022 127.376C164.732 127.766 169.462 129.156 169.232 130.636C169.002 132.116 161.692 133.206 161.692 133.206C161.692 133.206 155.592 129.046 156.022 127.616C156.452 126.186 161.322 126.986 163.022 127.376Z" fill="#231012"/>
<path d="M153.481 132.196C153.481 132.196 154.061 135.746 157.321 136.046C158.272 136.198 159.245 135.991 160.052 135.466C160.86 134.942 161.444 134.136 161.691 133.206C161.51 134.152 161.685 135.132 162.184 135.956C162.682 136.779 163.469 137.389 164.391 137.666C167.461 138.806 169.521 135.856 169.521 135.856" stroke="#231012" stroke-linecap="round" stroke-linejoin="round"/>
<path d="M149.851 121.986C149.371 124.076 150.081 125.986 151.421 126.326C152.761 126.666 154.251 125.186 154.721 123.096C155.191 121.006 154.501 119.096 153.151 118.756C151.801 118.416 150.331 119.896 149.851 121.986Z" fill="#231012"/>
<path d="M151.421 126.376C150.081 126.066 149.371 124.126 149.851 122.036C149.948 121.611 150.092 121.199 150.281 120.806L154.381 124.206C153.721 125.656 152.531 126.576 151.421 126.376Z" fill="#231012"/>
<path d="M152.432 121.916C152.272 122.616 152.432 123.256 152.892 123.356C153.352 123.456 153.772 122.956 153.892 122.266C154.012 121.576 153.892 120.926 153.432 120.826C152.972 120.726 152.592 121.216 152.432 121.916Z" fill="#EFF6FE"/>
<path d="M238.292 233.056C235.292 239.126 185.212 230.396 160.052 226.406C155.862 226.406 145.052 224.326 135.992 223.096C126.932 221.866 111.872 220.946 111.662 219.096C111.522 217.886 127.662 216.006 125.602 215.826C123.542 215.646 103.312 213.356 104.782 212.136C106.252 210.916 128.942 209.136 125.432 208.626C121.922 208.116 98.8818 204.326 100.072 202.406C101.262 200.486 127.362 204.346 125.252 203.306C123.142 202.266 100.252 194.466 101.252 193.026C102.252 191.586 113.982 194.526 116.942 195.466C119.902 196.406 139.482 199.226 140.392 198.156C141.302 197.086 139.462 195.426 135.862 192.226C132.262 189.026 131.252 185.046 131.482 182.836C131.802 179.836 134.672 181.056 140.232 187.036C143.642 190.706 148.712 193.306 154.702 196.386C159.372 198.796 162.012 205.916 162.952 208.926C180.362 207.196 206.202 203.926 212.042 202.426C222.192 199.876 244.692 220.216 238.292 233.056Z" fill="#AA5044"/>
<path d="M233.272 214.616C232.992 213.436 217.202 217.126 219.032 216.266C220.862 215.406 239.192 206.376 237.382 205.736C235.572 205.096 213.622 211.096 216.762 209.446C219.902 207.796 240.271 196.386 238.501 194.986C236.731 193.586 213.501 206.066 215.121 204.376C216.741 202.686 235.602 187.586 234.202 186.566C232.802 185.546 222.732 192.296 220.262 194.186C217.792 196.076 200.342 205.376 199.132 204.676C197.922 203.976 199.071 201.796 201.371 197.556C203.671 193.316 203.271 189.246 202.301 187.246C200.971 184.486 198.701 186.646 195.501 194.156C193.501 198.766 189.651 202.936 185.061 207.866C181.491 211.716 181.421 219.316 181.561 222.456C164.561 226.746 133.071 234.836 127.171 233.596C120.401 232.186 111.441 205.316 105.171 190.826C98.9015 176.336 85.8915 146.436 79.0915 152.756C69.9215 161.256 66.9815 190.416 85.3315 226.236C98.4815 251.886 110.491 269.646 118.911 270.706C125.641 271.556 167.911 250.196 190.251 237.906C194.171 236.426 203.621 230.906 211.751 226.616C219.881 222.326 233.692 216.376 233.272 214.616Z" fill="#BA6E4D"/>
<path d="M159.811 162.521C160.878 160.242 159.895 157.53 157.615 156.463C155.336 155.397 152.624 156.38 151.558 158.659C150.491 160.938 151.474 163.65 153.753 164.717C156.032 165.783 158.745 164.8 159.811 162.521Z" fill="#989898"/>
<path d="M159.015 161.29C159.152 160.633 159.091 159.949 158.84 159.326C158.589 158.703 158.159 158.168 157.604 157.79C157.048 157.411 156.394 157.206 155.722 157.199C155.05 157.193 154.391 157.386 153.829 157.754C153.267 158.122 152.827 158.648 152.564 159.266C152.301 159.884 152.227 160.567 152.352 161.227C152.477 161.887 152.794 162.495 153.265 162.975C153.735 163.454 154.337 163.784 154.995 163.921C155.432 164.014 155.883 164.019 156.322 163.937C156.761 163.855 157.179 163.687 157.552 163.442C157.926 163.198 158.248 162.882 158.499 162.513C158.749 162.143 158.925 161.728 159.015 161.29V161.29Z" fill="#C0C0C0"/>
<path d="M154.133 160.097L154.487 160.171L154.413 160.525L154.059 160.451L154.133 160.097ZM155.771 159.331L156.125 159.405L155.977 160.113L155.623 160.039L155.771 159.331ZM155.195 160.319L155.903 160.467L155.755 161.175L155.401 161.101L155.475 160.747L155.121 160.673L155.195 160.319ZM156.257 160.541L156.611 160.615L156.537 160.969L156.891 161.043L156.965 160.689L157.319 160.763L157.245 161.117L156.891 161.043L156.817 161.397L157.171 161.471L157.023 162.178L156.669 162.105L156.595 162.458L156.241 162.385L156.315 162.031L155.607 161.883L155.533 162.237L155.179 162.163L155.327 161.455L156.035 161.603L156.109 161.249L156.463 161.323L156.537 160.969L156.183 160.895L156.257 160.541ZM156.669 162.105L156.817 161.397L156.463 161.323L156.315 162.031L156.669 162.105ZM156.553 159.125L157.614 159.347L157.393 160.409L156.331 160.187L156.553 159.125ZM156.833 159.553L156.759 159.907L157.113 159.981L157.187 159.627L156.833 159.553ZM154.429 158.681L155.491 158.903L155.269 159.965L154.207 159.743L154.429 158.681ZM154.709 159.109L154.635 159.463L154.989 159.537L155.063 159.183L154.709 159.109ZM153.985 160.805L155.047 161.027L154.825 162.089L153.763 161.867L153.985 160.805ZM154.265 161.233L154.191 161.587L154.545 161.661L154.619 161.307L154.265 161.233Z" fill="#5A5A5A"/>
<path d="M157.421 152.305L156.507 156.682" stroke="white" stroke-width="2" stroke-linecap="round" stroke-linejoin="round"/>
<path d="M185.698 151.683L175.339 152.561C163.05 153.603 150.829 149.888 141.199 142.184V142.184" stroke="#FF5252" stroke-width="2" stroke-linecap="round" stroke-linejoin="round"/>
</svg>
