<svg width="387" height="148" viewBox="0 0 387 148" fill="none" xmlns="http://www.w3.org/2000/svg">
<path d="M267.256 112.894C264.859 113.858 261.009 119.383 261.005 121.865C261.004 122.69 261.79 124.914 262.752 126.806C264.171 129.6 265.63 130.643 270.5 132.345C275.021 133.925 276.576 134.966 276.808 136.568C277.317 140.075 273.519 140.497 269.088 137.426C264.826 134.473 262.3 134.821 261.38 138.488C259.788 144.83 272.204 149.396 280.033 145.348C283.193 143.714 286 139.253 286 135.865C286 130.92 283.238 128.006 276.742 126.098C271.774 124.638 270.435 123.815 270.18 122.065C269.912 120.215 270.34 119.865 272.871 119.865C274.527 119.865 276.16 120.315 276.5 120.865C277.629 122.692 280.932 121.899 282.563 119.409C284.506 116.443 283.82 115.105 279.41 113.263C275.655 111.694 270.621 111.541 267.256 112.894Z" fill="#1E1E1D"/>
<path d="M311.75 112.621C310.305 112.944 310 114.133 310 119.438V125.865H297.095L296.5 113.365H289.5V146.365H296.5L297.091 132.865H309.909L310.5 146.365H317.5V129.98C317.5 114.488 317.391 113.557 315.5 112.913C314.4 112.538 312.712 112.407 311.75 112.621Z" fill="#1E1E1D"/>
<path fill-rule="evenodd" clip-rule="evenodd" d="M331.5 113.53C326.867 115.978 324.877 118.018 322.881 122.365C320.466 127.623 320.529 132.261 323.086 137.542C328.038 147.773 340.416 150.435 349.091 143.135C358.374 135.324 356.498 119.189 345.698 113.961C340.587 111.486 335.651 111.337 331.5 113.53ZM344.411 135.788C348.735 130.65 347.366 123.751 341.538 121.317C339.628 120.518 337.937 119.901 337.782 119.944C332.588 121.397 330 124.604 330 129.585C330 138.372 338.983 142.239 344.411 135.788Z" fill="#1E1E1D"/>
<path fill-rule="evenodd" clip-rule="evenodd" d="M233.746 25.4084C229.481 26.6974 225.544 28.0294 224.996 28.3684C222.595 29.8514 224.694 37.8654 227.484 37.8654C230.552 37.8654 245.007 32.7054 245.115 31.5714C245.396 28.6304 244.719 26.2444 243.171 24.7144C241.617 23.1794 240.956 23.2274 233.746 25.4084ZM110 35.8654C108.9 36.9654 108 38.7654 108 39.8654C108 41.5554 107.333 41.8654 103.7 41.8654C98.761 41.8654 97 43.1794 97 46.8654C97 51.1644 98.64 51.8654 108.7 51.8654H118L118.015 73.6154C118.024 85.5774 118.405 95.9554 118.862 96.6764C119.412 97.5444 121.351 97.8824 124.597 97.6764L129.5 97.3654L130.5 52.3654L150.5 51.3654L150.818 48.0504C151.3 43.0294 149.711 41.8654 142.378 41.8654C136.354 41.8654 136 41.7354 136 39.5204C136 34.9774 133.282 33.8654 122.171 33.8654C113.333 33.8654 111.738 34.1274 110 35.8654ZM227.5 41.7584C221.609 43.2564 216.899 46.1834 212.493 51.0844C195.971 69.4614 208.588 98.8454 233 98.8454C249.025 98.8454 260.408 86.8044 260.396 69.8654C260.39 60.9894 257.496 54.2634 251.365 48.8814C244.7 43.0294 234.488 39.9814 227.5 41.7584ZM352.792 42.2294C343.526 44.7984 335.524 52.7204 332.993 61.8304C331.23 68.1784 331.809 76.9144 334.357 82.3854C337.196 88.4804 345.309 96.0424 350.764 97.6764C370.008 103.442 386.964 90.4004 386.99 69.8114C386.998 63.6934 386.512 61.2794 384.433 57.1064C378.577 45.3554 364.83 38.8924 352.792 42.2294ZM1.75 42.9454C0.153 43.8754 0 46.2744 0 70.3084C0 93.4074 0.195001 96.7264 1.582 97.2584C4.061 98.2094 10.818 97.9694 11.475 96.9064C11.801 96.3784 12.337 93.0594 12.667 89.5294L13.266 83.1114L20.383 82.6464C34.185 81.7454 43.045 73.7064 42.978 62.1474C42.931 54.0494 36.081 45.0924 28.277 42.9254C23.459 41.5874 4.057 41.6024 1.75 42.9454ZM50.655 43.6944C49.21 45.2914 49 48.6274 49 70.0034C49 89.5664 49.285 94.8734 50.419 96.4244C51.738 98.2274 53.184 98.3654 70.766 98.3654C85.338 98.3654 90.073 98.0494 91.346 96.9934C93.288 95.3814 93.587 88.8524 91.8 87.0654C90.979 86.2444 86.089 85.8654 76.3 85.8654H62V76.8654H71.066C82.488 76.8654 84 76.1244 84 70.5304C84 68.1844 83.46 65.7254 82.8 65.0654C82.03 64.2954 78.089 63.8654 71.8 63.8654H62V54.8654H75.929C91.544 54.8654 93 54.3104 93 48.3654C93 42.1594 92.009 41.8654 71.084 41.8654C54.166 41.8654 52.146 42.0464 50.655 43.6944ZM158.441 43.2844C156.607 44.6254 156.5 46.1164 156.5 70.2344C156.5 88.1424 156.843 96.1084 157.65 96.9154C159.171 98.4364 165.665 98.3884 167.527 96.8434C168.633 95.9254 169 93.2824 169 86.2434V76.8654H178.878C189.963 76.8654 191.4 76.1194 191.4 70.3654C191.4 64.6114 189.963 63.8654 178.878 63.8654H169V54.8654H183.3C193.089 54.8654 197.979 54.4864 198.8 53.6654C199.46 53.0054 200 50.5464 200 48.2004C200 45.0074 199.514 43.6754 198.066 42.9004C194.918 41.2164 160.818 41.5464 158.441 43.2844ZM268.75 42.9454C267.155 43.8744 267 46.2494 267 69.7924C267 92.5824 267.194 95.7824 268.651 96.9934C271.002 98.9464 300.462 99.4704 304 97.6224C306.822 96.1474 307.659 92.9654 306.028 89.9174C305.011 88.0164 304.011 87.8654 292.465 87.8654H280V66.5204C280 47.1114 279.834 45.0254 278.171 43.5204C276.132 41.6754 271.425 41.3874 268.75 42.9454ZM314.75 42.9454C313.155 43.8744 313 46.2494 313 69.7924L313 71.0769C312.999 90.6156 312.999 96.0125 315.41 97.5007C316.331 98.0687 317.602 98.0674 319.359 98.0656L319.663 98.0654C325.87 98.0654 326 97.4864 326 69.8294C326 47.2154 325.849 45.0384 324.171 43.5204C322.132 41.6754 317.425 41.3874 314.75 42.9454ZM242 57.7484C249.021 63.3604 249.829 75.2364 243.613 81.4524C233.6 91.4654 218 84.7124 218 70.3654C218 56.8394 231.792 49.5884 242 57.7484ZM365.729 55.8294C378.637 61.6884 377.092 81.9844 363.453 85.7504C358.129 87.2214 353.241 85.7404 349.012 81.3774C345.983 78.2524 345.547 77.1184 345.184 71.4094C344.672 63.3674 347.179 58.5964 353.405 55.7694C358.559 53.4284 360.461 53.4374 365.729 55.8294ZM27.811 56.9044C30.984 59.8604 30.769 65.1154 27.365 67.7924C25.38 69.3544 23.285 69.8654 18.865 69.8654H13V54.8654H19.311C24.281 54.8654 26.088 55.2994 27.811 56.9044Z" fill="#996A56"/>
<path fill-rule="evenodd" clip-rule="evenodd" d="M361 112.533C358.305 113.669 358.031 115.196 358.015 129.181C357.999 143.898 358.724 146.865 362.335 146.865C365.597 146.865 367 145.001 367 140.665V136.865H371.55C374.052 136.865 377.419 136.182 379.033 135.348C387.016 131.22 386.839 118.419 378.741 114.231C375.438 112.523 363.692 111.399 361 112.533ZM371.148 128.672C375.951 128.316 378.176 125.959 376.393 123.115C375.702 122.012 373.762 121.251 371.148 121.058L367 120.75V128.98L371.148 128.672Z" fill="#1E1E1D"/>
<path fill-rule="evenodd" clip-rule="evenodd" d="M140.141 1.30489C136.711 2.18726 133.333 4.87901 131.776 7.97035C130.508 10.49 130.239 12.1718 130.326 17.0519C130.396 20.9956 130.43 21.275 130.982 22.4262C132.203 24.9757 134.183 26.3312 136.958 26.5181C139.056 26.6598 140.755 26.0233 142.293 24.52C144.022 22.8297 144.396 21.636 144.396 17.8099V14.7529H150.832L150.95 17.654C151.088 21.0922 151.425 22.1946 152.788 23.6764C154.189 25.1999 155.514 25.7842 157.792 25.8839C159.515 25.9594 159.761 25.9139 161.086 25.2763C162.779 24.4613 163.919 23.2528 164.55 21.6043C164.946 20.5711 165 19.8989 165 16.0353C165 9.64618 164.375 7.77789 161.2 4.67386C159.308 2.82374 157.534 1.79994 155.349 1.29635C153.341 0.833496 141.948 0.839846 140.141 1.30489ZM89.8277 1.62675C84.8567 2.48196 80.5847 6.35363 79.34 11.1315C79.0898 12.0918 79 13.6367 79 16.9803C79 20.9939 79.0524 21.661 79.4497 22.699C81.2826 27.4883 87.6775 28.6148 91.2122 24.7712C92.6218 23.2385 92.9192 22.2116 93.0518 18.4203L93.1649 15.1908H99.6042V18.0289C99.6042 21.6137 100.007 22.8582 101.707 24.52C103.245 26.0233 104.944 26.6598 107.042 26.5181C109.817 26.3312 111.796 24.9763 113.019 22.4262C113.59 21.2362 113.602 21.1173 113.602 16.5045C113.602 12.2545 113.553 11.6474 113.105 10.2553C112.481 8.31585 111.247 6.45303 109.548 4.88492C107.993 3.45037 106.751 2.70967 104.755 2.02677C103.394 1.56128 102.897 1.52559 97.1406 1.47852C93.7533 1.45093 90.4624 1.51749 89.8277 1.62675ZM112.146 33.3025C110.721 33.7995 108.531 35.9846 108.041 37.3984C107.567 38.7644 107.56 41.0815 108.026 42.4186C108.542 43.8981 110.255 45.6418 111.901 46.3641L113.242 46.9526L131.294 46.8289L132.397 46.2984C133.869 45.5901 135.135 44.3119 135.826 42.8377C136.279 41.8693 136.392 41.2836 136.392 39.9016C136.392 38.4042 136.298 37.9878 135.68 36.7606C134.958 35.3278 133.885 34.2744 132.302 33.4457C131.576 33.0656 130.837 33.0321 122.336 32.9929C114.398 32.9566 113.017 32.9984 112.146 33.3025Z" fill="black"/>
</svg>
