<svg width="387" height="122" viewBox="0 0 387 122" fill="none" xmlns="http://www.w3.org/2000/svg">
<path fill-rule="evenodd" clip-rule="evenodd" d="M233.746 24.4558C229.481 25.7448 225.544 27.0768 224.996 27.4158C222.595 28.8988 224.694 36.9128 227.484 36.9128C230.552 36.9128 245.007 31.7528 245.115 30.6188C245.396 27.6778 244.719 25.2918 243.171 23.7618C241.617 22.2268 240.956 22.2748 233.746 24.4558ZM110 34.9128C108.9 36.0128 108 37.8128 108 38.9128C108 40.6028 107.333 40.9128 103.7 40.9128C98.761 40.9128 97 42.2268 97 45.9128C97 50.2118 98.64 50.9128 108.7 50.9128H118L118.015 72.6628C118.024 84.6248 118.405 95.0028 118.862 95.7238C119.412 96.5918 121.351 96.9298 124.597 96.7238L129.5 96.4128L130.5 51.4128L150.5 50.4128L150.818 47.0978C151.3 42.0768 149.711 40.9128 142.378 40.9128C136.354 40.9128 136 40.7828 136 38.5678C136 34.0248 133.282 32.9128 122.171 32.9128C113.333 32.9128 111.738 33.1748 110 34.9128ZM227.5 40.8058C221.609 42.3038 216.899 45.2308 212.493 50.1318C195.971 68.5088 208.588 97.8928 233 97.8928C249.025 97.8928 260.408 85.8518 260.396 68.9128C260.39 60.0368 257.496 53.3108 251.365 47.9288C244.7 42.0768 234.488 39.0288 227.5 40.8058ZM352.792 41.2768C343.526 43.8458 335.524 51.7678 332.993 60.8778C331.23 67.2258 331.809 75.9618 334.357 81.4328C337.196 87.5278 345.309 95.0898 350.764 96.7238C370.008 102.49 386.964 89.4478 386.99 68.8588C386.998 62.7408 386.512 60.3268 384.433 56.1538C378.577 44.4028 364.83 37.9398 352.792 41.2768ZM1.75 41.9928C0.153 42.9228 0 45.3218 0 69.3558C0 92.4548 0.195001 95.7738 1.582 96.3058C4.061 97.2568 10.818 97.0168 11.475 95.9538C11.801 95.4258 12.337 92.1068 12.667 88.5768L13.266 82.1588L20.383 81.6938C34.185 80.7928 43.045 72.7538 42.978 61.1948C42.931 53.0968 36.081 44.1398 28.277 41.9728C23.459 40.6348 4.057 40.6498 1.75 41.9928ZM50.655 42.7418C49.21 44.3388 49 47.6748 49 69.0508C49 88.6138 49.285 93.9208 50.419 95.4718C51.738 97.2748 53.184 97.4128 70.766 97.4128C85.338 97.4128 90.073 97.0968 91.346 96.0408C93.288 94.4288 93.587 87.8998 91.8 86.1128C90.979 85.2918 86.089 84.9128 76.3 84.9128H62V75.9128H71.066C82.488 75.9128 84 75.1718 84 69.5778C84 67.2318 83.46 64.7728 82.8 64.1128C82.03 63.3428 78.089 62.9128 71.8 62.9128H62V53.9128H75.929C91.544 53.9128 93 53.3578 93 47.4128C93 41.2068 92.009 40.9128 71.084 40.9128C54.166 40.9128 52.146 41.0938 50.655 42.7418ZM158.441 42.3318C156.607 43.6728 156.5 45.1638 156.5 69.2818C156.5 87.1898 156.843 95.1558 157.65 95.9628C159.171 97.4838 165.665 97.4358 167.527 95.8908C168.633 94.9728 169 92.3298 169 85.2908V75.9128H178.878C189.963 75.9128 191.4 75.1668 191.4 69.4128C191.4 63.6588 189.963 62.9128 178.878 62.9128H169V53.9128H183.3C193.089 53.9128 197.979 53.5338 198.8 52.7128C199.46 52.0528 200 49.5938 200 47.2478C200 44.0548 199.514 42.7228 198.066 41.9478C194.918 40.2638 160.818 40.5938 158.441 42.3318ZM268.75 41.9928C267.155 42.9218 267 45.2968 267 68.8398C267 91.6298 267.194 94.8298 268.651 96.0408C271.002 97.9938 300.462 98.5178 304 96.6698C306.822 95.1948 307.659 92.0128 306.028 88.9648C305.011 87.0638 304.011 86.9128 292.465 86.9128H280V65.5678C280 46.1588 279.834 44.0728 278.171 42.5678C276.132 40.7228 271.425 40.4348 268.75 41.9928ZM314.75 41.9928C313.155 42.9218 313 45.2968 313 68.8398L313 70.1242C312.999 89.6629 312.999 95.0598 315.41 96.5481C316.331 97.1161 317.602 97.1148 319.359 97.113L319.663 97.1128C325.87 97.1128 326 96.5338 326 68.8768C326 46.2628 325.849 44.0858 324.171 42.5678C322.132 40.7228 317.425 40.4348 314.75 41.9928ZM242 56.7958C249.021 62.4078 249.829 74.2838 243.613 80.4998C233.6 90.5128 218 83.7598 218 69.4128C218 55.8868 231.792 48.6358 242 56.7958ZM365.729 54.8768C378.637 60.7358 377.092 81.0318 363.453 84.7978C358.129 86.2688 353.241 84.7878 349.012 80.4248C345.983 77.2998 345.547 76.1658 345.184 70.4568C344.672 62.4148 347.179 57.6438 353.405 54.8168C358.559 52.4758 360.461 52.4848 365.729 54.8768ZM27.811 55.9518C30.984 58.9078 30.769 64.1628 27.365 66.8398C25.38 68.4018 23.285 68.9128 18.865 68.9128H13V53.9128H19.311C24.281 53.9128 26.088 54.3468 27.811 55.9518Z" fill="#996A56"/>
<path fill-rule="evenodd" clip-rule="evenodd" d="M140.141 0.352256C136.711 1.23462 133.333 3.92638 131.776 7.01771C130.508 9.53738 130.239 11.2191 130.326 16.0993C130.396 20.043 130.43 20.3224 130.982 21.4736C132.203 24.023 134.183 25.3785 136.958 25.5655C139.056 25.7072 140.755 25.0707 142.293 23.5674C144.022 21.8771 144.396 20.6834 144.396 16.8573V13.8003H150.832L150.95 16.7014C151.088 20.1395 151.425 21.2419 152.788 22.7238C154.189 24.2472 155.514 24.8316 157.792 24.9312C159.515 25.0068 159.761 24.9612 161.086 24.3236C162.779 23.5087 163.919 22.3001 164.55 20.6517C164.946 19.6184 165 18.9463 165 15.0827C165 8.69355 164.375 6.82526 161.2 3.72122C159.308 1.87111 157.534 0.847299 155.349 0.343717C153.341 -0.119141 141.948 -0.112791 140.141 0.352256ZM89.8277 0.674111C84.8567 1.52932 80.5847 5.401 79.34 10.1789C79.0898 11.1392 79 12.6841 79 16.0277C79 20.0412 79.0524 20.7084 79.4497 21.7464C81.2826 26.5357 87.6775 27.6622 91.2122 23.8185C92.6218 22.2859 92.9192 21.259 93.0518 17.4677L93.1649 14.2382H99.6042V17.0762C99.6042 20.6611 100.007 21.9056 101.707 23.5674C103.245 25.0707 104.944 25.7072 107.042 25.5655C109.817 25.3785 111.796 24.0237 113.019 21.4736C113.59 20.2836 113.602 20.1647 113.602 15.5519C113.602 11.3019 113.553 10.6947 113.105 9.30266C112.481 7.36321 111.247 5.5004 109.548 3.93229C107.993 2.49773 106.751 1.75703 104.755 1.07413C103.394 0.608648 102.897 0.572956 97.1406 0.525882C93.7533 0.498295 90.4624 0.564856 89.8277 0.674111ZM112.146 32.3499C110.721 32.8469 108.531 35.032 108.041 36.4457C107.567 37.8118 107.56 40.1289 108.026 41.466C108.542 42.9454 110.255 44.6892 111.901 45.4115L113.242 46L131.294 45.8763L132.397 45.3458C133.869 44.6375 135.135 43.3593 135.826 41.8851C136.279 40.9167 136.392 40.331 136.392 38.949C136.392 37.4516 136.298 37.0351 135.68 35.8079C134.958 34.3751 133.885 33.3218 132.302 32.4931C131.576 32.113 130.837 32.0795 122.336 32.0403C114.398 32.0039 113.017 32.0457 112.146 32.3499Z" fill="black"/>
<path d="M142.064 114.58C141.912 114.388 141.704 114.248 141.44 114.16C141.184 114.064 140.94 114.016 140.708 114.016C140.572 114.016 140.432 114.032 140.288 114.064C140.144 114.096 140.008 114.148 139.88 114.22C139.752 114.284 139.648 114.372 139.568 114.484C139.488 114.596 139.448 114.732 139.448 114.892C139.448 115.148 139.544 115.344 139.736 115.48C139.928 115.616 140.168 115.732 140.456 115.828C140.752 115.924 141.068 116.02 141.404 116.116C141.74 116.212 142.052 116.348 142.34 116.524C142.636 116.7 142.88 116.936 143.072 117.232C143.264 117.528 143.36 117.924 143.36 118.42C143.36 118.892 143.272 119.304 143.096 119.656C142.92 120.008 142.68 120.3 142.376 120.532C142.08 120.764 141.732 120.936 141.332 121.048C140.94 121.16 140.524 121.216 140.084 121.216C139.532 121.216 139.02 121.132 138.548 120.964C138.076 120.796 137.636 120.524 137.228 120.148L138.56 118.684C138.752 118.94 138.992 119.14 139.28 119.284C139.576 119.42 139.88 119.488 140.192 119.488C140.344 119.488 140.496 119.472 140.648 119.44C140.808 119.4 140.948 119.344 141.068 119.272C141.196 119.2 141.296 119.108 141.368 118.996C141.448 118.884 141.488 118.752 141.488 118.6C141.488 118.344 141.388 118.144 141.188 118C140.996 117.848 140.752 117.72 140.456 117.616C140.16 117.512 139.84 117.408 139.496 117.304C139.152 117.2 138.832 117.06 138.536 116.884C138.24 116.708 137.992 116.476 137.792 116.188C137.6 115.9 137.504 115.52 137.504 115.048C137.504 114.592 137.592 114.192 137.768 113.848C137.952 113.504 138.192 113.216 138.488 112.984C138.792 112.752 139.14 112.58 139.532 112.468C139.924 112.348 140.328 112.288 140.744 112.288C141.224 112.288 141.688 112.356 142.136 112.492C142.584 112.628 142.988 112.856 143.348 113.176L142.064 114.58Z" fill="#ED4B06"/>
<path d="M149.531 112.504H151.403V121H149.531V112.504Z" fill="#ED4B06"/>
<path d="M157.905 112.504H160.449L164.061 118.408H164.085V112.504H165.957V121H163.509L159.801 114.952H159.777V121H157.905V112.504Z" fill="#ED4B06"/>
<path d="M178.047 114.712C177.863 114.488 177.635 114.316 177.363 114.196C177.099 114.076 176.791 114.016 176.439 114.016C176.087 114.016 175.759 114.084 175.455 114.22C175.159 114.356 174.899 114.548 174.675 114.796C174.459 115.036 174.287 115.324 174.159 115.66C174.039 115.996 173.979 116.36 173.979 116.752C173.979 117.152 174.039 117.52 174.159 117.856C174.287 118.184 174.459 118.472 174.675 118.72C174.891 118.96 175.143 119.148 175.431 119.284C175.727 119.42 176.043 119.488 176.379 119.488C176.763 119.488 177.103 119.408 177.399 119.248C177.695 119.088 177.939 118.864 178.131 118.576L179.691 119.74C179.331 120.244 178.875 120.616 178.323 120.856C177.771 121.096 177.203 121.216 176.619 121.216C175.955 121.216 175.343 121.112 174.783 120.904C174.223 120.696 173.739 120.4 173.331 120.016C172.923 119.624 172.603 119.152 172.371 118.6C172.147 118.048 172.035 117.432 172.035 116.752C172.035 116.072 172.147 115.456 172.371 114.904C172.603 114.352 172.923 113.884 173.331 113.5C173.739 113.108 174.223 112.808 174.783 112.6C175.343 112.392 175.955 112.288 176.619 112.288C176.859 112.288 177.107 112.312 177.363 112.36C177.627 112.4 177.883 112.468 178.131 112.564C178.387 112.66 178.631 112.788 178.863 112.948C179.095 113.108 179.303 113.304 179.487 113.536L178.047 114.712Z" fill="#ED4B06"/>
<path d="M185.577 112.504H191.349V114.232H187.449V115.816H191.133V117.544H187.449V119.272H191.565V121H185.577V112.504Z" fill="#ED4B06"/>
<path d="M205.939 119.092L209.239 116.128C209.407 115.976 209.575 115.804 209.743 115.612C209.911 115.42 209.995 115.196 209.995 114.94C209.995 114.652 209.891 114.428 209.683 114.268C209.475 114.1 209.231 114.016 208.951 114.016C208.615 114.016 208.351 114.12 208.159 114.328C207.975 114.536 207.871 114.792 207.847 115.096L206.047 114.964C206.071 114.524 206.163 114.144 206.323 113.824C206.483 113.496 206.695 113.224 206.959 113.008C207.223 112.792 207.531 112.632 207.883 112.528C208.243 112.416 208.631 112.36 209.047 112.36C209.431 112.36 209.791 112.416 210.127 112.528C210.463 112.632 210.755 112.792 211.003 113.008C211.251 113.216 211.443 113.48 211.579 113.8C211.723 114.12 211.795 114.492 211.795 114.916C211.795 115.188 211.767 115.436 211.711 115.66C211.655 115.876 211.575 116.076 211.471 116.26C211.375 116.436 211.259 116.6 211.123 116.752C210.987 116.904 210.839 117.052 210.679 117.196L208.099 119.416H211.867V121H205.939V119.092Z" fill="#ED4B06"/>
<path d="M217.648 116.752C217.648 116.248 217.692 115.736 217.78 115.216C217.876 114.696 218.04 114.224 218.272 113.8C218.512 113.376 218.836 113.032 219.244 112.768C219.652 112.496 220.172 112.36 220.804 112.36C221.436 112.36 221.956 112.496 222.364 112.768C222.772 113.032 223.092 113.376 223.324 113.8C223.564 114.224 223.728 114.696 223.816 115.216C223.912 115.736 223.96 116.248 223.96 116.752C223.96 117.256 223.912 117.768 223.816 118.288C223.728 118.808 223.564 119.28 223.324 119.704C223.092 120.128 222.772 120.476 222.364 120.748C221.956 121.012 221.436 121.144 220.804 121.144C220.172 121.144 219.652 121.012 219.244 120.748C218.836 120.476 218.512 120.128 218.272 119.704C218.04 119.28 217.876 118.808 217.78 118.288C217.692 117.768 217.648 117.256 217.648 116.752ZM219.448 116.752C219.448 116.976 219.456 117.244 219.472 117.556C219.496 117.868 219.552 118.168 219.64 118.456C219.728 118.744 219.86 118.988 220.036 119.188C220.22 119.388 220.476 119.488 220.804 119.488C221.124 119.488 221.376 119.388 221.56 119.188C221.744 118.988 221.88 118.744 221.968 118.456C222.056 118.168 222.108 117.868 222.124 117.556C222.148 117.244 222.16 116.976 222.16 116.752C222.16 116.528 222.148 116.26 222.124 115.948C222.108 115.636 222.056 115.336 221.968 115.048C221.88 114.76 221.744 114.516 221.56 114.316C221.376 114.116 221.124 114.016 220.804 114.016C220.476 114.016 220.22 114.116 220.036 114.316C219.86 114.516 219.728 114.76 219.64 115.048C219.552 115.336 219.496 115.636 219.472 115.948C219.456 116.26 219.448 116.528 219.448 116.752Z" fill="#ED4B06"/>
<path d="M229.742 119.092L233.042 116.128C233.21 115.976 233.378 115.804 233.546 115.612C233.714 115.42 233.798 115.196 233.798 114.94C233.798 114.652 233.694 114.428 233.486 114.268C233.278 114.1 233.034 114.016 232.754 114.016C232.418 114.016 232.154 114.12 231.962 114.328C231.778 114.536 231.674 114.792 231.65 115.096L229.85 114.964C229.874 114.524 229.966 114.144 230.126 113.824C230.286 113.496 230.498 113.224 230.762 113.008C231.026 112.792 231.334 112.632 231.686 112.528C232.046 112.416 232.434 112.36 232.85 112.36C233.234 112.36 233.594 112.416 233.93 112.528C234.266 112.632 234.558 112.792 234.806 113.008C235.054 113.216 235.246 113.48 235.382 113.8C235.526 114.12 235.598 114.492 235.598 114.916C235.598 115.188 235.57 115.436 235.514 115.66C235.458 115.876 235.378 116.076 235.274 116.26C235.178 116.436 235.062 116.6 234.926 116.752C234.79 116.904 234.642 117.052 234.482 117.196L231.902 119.416H235.67V121H229.742V119.092Z" fill="#ED4B06"/>
<path d="M247.259 114.088H243.887L243.851 115.396C244.035 115.332 244.287 115.3 244.607 115.3C245.039 115.3 245.435 115.364 245.795 115.492C246.155 115.62 246.463 115.808 246.719 116.056C246.983 116.296 247.187 116.592 247.331 116.944C247.475 117.288 247.547 117.676 247.547 118.108C247.547 118.588 247.463 119.016 247.295 119.392C247.135 119.768 246.911 120.088 246.623 120.352C246.335 120.608 245.991 120.804 245.591 120.94C245.199 121.076 244.771 121.144 244.307 121.144C243.571 121.144 242.955 120.964 242.459 120.604C241.963 120.244 241.623 119.7 241.439 118.972L243.323 118.54C243.371 118.844 243.499 119.092 243.707 119.284C243.915 119.468 244.175 119.56 244.487 119.56C244.871 119.56 245.175 119.44 245.399 119.2C245.631 118.96 245.747 118.656 245.747 118.288C245.747 118.008 245.687 117.78 245.567 117.604C245.455 117.42 245.303 117.276 245.111 117.172C244.927 117.06 244.719 116.984 244.487 116.944C244.255 116.904 244.023 116.884 243.791 116.884C243.495 116.884 243.195 116.912 242.891 116.968C242.595 117.024 242.307 117.1 242.027 117.196L242.123 112.504H247.259V114.088Z" fill="#ED4B06"/>
</svg>
