<svg width="762" height="74" viewBox="0 0 762 74" fill="none" xmlns="http://www.w3.org/2000/svg">
<path d="M215.432 11.9642C215.432 6.76953 211.222 2.55887 206.027 2.55887C203.071 2.55887 200.435 3.92687 198.711 6.0602H198.708L165.916 39.5709C165.055 40.5495 163.807 41.1802 162.4 41.1802C160.98 41.1802 159.722 40.5362 158.859 39.5402L126.098 6.0602H126.095C124.371 3.92687 121.736 2.55887 118.779 2.55887C113.584 2.55887 109.374 6.76953 109.374 11.9642H109.364V71.0789H128.194V19.5215L154.092 43.8522L154.114 43.8535C156.215 46.0535 159.19 47.4309 162.496 47.4029C165.734 47.3749 168.627 46.0082 170.682 43.8549L170.714 43.8522L196.614 19.5215V71.0789H215.442V11.9642H215.432Z" fill="#2A64A6"/>
<path d="M683.206 2.58699H713.241L761.243 71.0803H731.209L683.206 2.58699Z" fill="#34AB67"/>
<path d="M604.156 2.587C612.714 2.587 617.2 2.579 625.758 2.579C633.362 2.579 636.618 6.45366 639.527 10.191L682.271 71.0803H652.159L604.156 2.587Z" fill="#34AB67"/>
<path d="M643.688 2.58699H673.762L721.765 71.0803H691.69L643.688 2.58699Z" fill="#34AB67"/>
<path d="M596.406 36.8829C604.977 31.0189 616.681 33.2136 622.545 41.7843C628.409 50.3536 626.214 62.0589 617.645 67.9229C609.074 73.7869 597.369 71.5923 591.505 63.0216C585.642 54.4523 587.837 42.7469 596.406 36.8829Z" fill="#FBC04F"/>
<path d="M539.289 9.13082V70.9695H558.101V2.43216C548.268 3.71482 539.289 9.13082 539.289 9.13082Z" fill="#2A64A6"/>
<path d="M511.072 60.5272L509.86 60.8538C509.86 60.8538 449.015 78.8552 449.015 34.2138C449.015 -7.85816 520.479 16.1138 520.479 16.1138V5.28318C520.479 5.28318 428.357 -19.2302 428.357 37.3485C428.357 93.9272 529.884 67.4192 529.884 67.4192V35.5698C520.051 36.8512 511.072 42.2672 511.072 42.2672V60.5272Z" fill="#2A64A6"/>
<path d="M400.139 60.5272L398.927 60.8538C398.927 60.8538 338.083 78.8552 338.083 34.2138C338.083 -7.85816 409.546 16.1138 409.546 16.1138V5.28318C409.546 5.28318 317.425 -19.2302 317.425 37.3485C317.425 93.9272 418.951 67.4192 418.951 67.4192V35.5698C409.118 36.8512 400.139 42.2672 400.139 42.2672V60.5272Z" fill="#2A64A6"/>
<path d="M324.88 71.0794L280.081 6.93135L280.069 6.93935C278.404 4.29935 275.469 2.54068 272.119 2.54068C268.769 2.54068 265.839 4.29668 264.172 6.93135H264.129L219.263 71.0794H230.548L266.472 19.7154L302.343 71.0794H324.88Z" fill="#2A64A6"/>
<path d="M105.616 71.0794L60.8173 6.93135L60.8053 6.93935C59.14 4.29935 56.2053 2.54068 52.8547 2.54068C49.5053 2.54068 46.5747 4.29668 44.908 6.93135H44.8653L0 71.0794H11.284L47.208 19.7154L83.0787 71.0794H105.616Z" fill="#2A64A6"/>
</svg>
