<svg width="174" height="70" viewBox="0 0 174 70" fill="none" xmlns="http://www.w3.org/2000/svg">
<path d="M95.3887 0.506531H125.423L173.426 68.9999H143.391L95.3887 0.506531Z" fill="#34AB67"/>
<path d="M16.3389 0.506531C24.8962 0.506531 29.3829 0.498535 37.9402 0.498535C45.5442 0.498535 48.8002 4.3732 51.7095 8.11053L94.4536 68.9999H64.3416L16.3389 0.506531Z" fill="#34AB67"/>
<path d="M55.8701 0.506531H85.9448L133.947 68.9999H103.873L55.8701 0.506531Z" fill="#34AB67"/>
<path d="M8.58907 34.8025C17.1597 28.9385 28.8637 31.1331 34.7277 39.7038C40.5917 48.2731 38.397 59.9785 29.8277 65.8425C21.257 71.7065 9.5517 69.5118 3.6877 60.9411C-2.17497 52.3718 0.0197334 40.6665 8.58907 34.8025Z" fill="#FBC04F"/>
</svg>
