<svg width="127" height="197" viewBox="0 0 127 197" fill="none" xmlns="http://www.w3.org/2000/svg">
<path fill-rule="evenodd" clip-rule="evenodd" d="M20.1131 43.6703C18.3372 43.9091 15.622 44.7344 14.0793 45.5051C11.6482 46.7187 11.0725 47.3032 9.76516 49.8804L8.25671 52.8555V119.868C8.25671 192.7 8.11391 189.018 11.072 192.379C14.8904 196.719 26.5552 198.327 35.8548 195.795C39.6787 194.754 42.1833 192.403 43.6339 188.493C44.6491 185.756 44.7109 184.696 44.7109 170.055V154.521H60.2324C77.5026 154.521 81.2024 154.125 88.7682 151.463C94.5401 149.433 97.1738 148.089 103.182 144.108C111.344 138.7 116.284 133.305 120.78 124.888C125.805 115.481 127.788 105.106 126.719 93.8152C125.775 83.8418 122.918 75.7759 117.393 67.4912C110.378 56.9725 96.3935 47.7241 82.6736 44.5323C78.4102 43.5399 76.5624 43.4722 50.7447 43.3578C35.6728 43.291 21.8886 43.4315 20.1131 43.6703ZM80.0222 82.4094C86.5262 85.6183 89.5416 89.9209 90.2616 97.0201C91.0757 105.045 88.0321 111.149 81.2351 115.124C76.9646 117.62 74.8573 117.884 59.1669 117.891L44.7109 117.897V80.2165L76.1928 80.52L80.0222 82.4094Z" fill="#996A56"/>
<path fill-rule="evenodd" clip-rule="evenodd" d="M84.7207 0.49945C79.9683 1.75052 75.2879 5.56705 73.1307 9.95013C71.3727 13.5227 71.0006 15.9071 71.1207 22.8265C71.2178 28.4181 71.265 28.8142 72.0294 30.4465C73.7222 34.0613 76.4656 35.9832 80.3106 36.2483C83.2178 36.4492 85.572 35.5467 87.7027 33.4153C90.0985 31.0187 90.617 29.3262 90.617 23.9012V19.5669H99.5357L99.6983 23.6802C99.8907 28.555 100.357 30.1181 102.245 32.2191C104.187 34.3792 106.023 35.2077 109.18 35.349C111.567 35.4561 111.909 35.3915 113.744 34.4875C116.09 33.3321 117.67 31.6184 118.544 29.2811C119.092 27.8162 119.168 26.8631 119.168 21.3851C119.168 12.3262 118.302 9.67726 113.902 5.27617C111.28 2.65296 108.822 1.20135 105.794 0.487342C103.012 -0.168925 87.2251 -0.159921 84.7207 0.49945ZM15.0036 0.955795C8.1155 2.16837 2.19591 7.65786 0.471085 14.4322C0.124444 15.7938 0 17.9843 0 22.725C0 28.4156 0.0726175 29.3615 0.623147 30.8333C3.16291 37.6239 12.0241 39.2211 16.9221 33.7713C18.8753 31.5983 19.2875 30.1423 19.4712 24.7667L19.6279 20.1878H28.5506V24.2117C28.5506 29.2945 29.1092 31.059 31.4649 33.4153C33.5956 35.5467 35.9498 36.4492 38.857 36.2483C42.7017 35.9832 45.4438 34.0622 47.1392 30.4465C47.9302 28.7593 47.9463 28.5907 47.9463 22.0504C47.9463 16.0245 47.8796 15.1636 47.259 13.1899C46.3937 10.44 44.6841 7.79879 42.3296 5.57543C40.1753 3.54144 38.4542 2.49123 35.6882 1.52297C33.8026 0.862977 33.1137 0.812372 25.1369 0.745628C20.4431 0.706512 15.8831 0.800886 15.0036 0.955795ZM45.9292 45.8676C43.9552 46.5723 40.9207 49.6704 40.2411 51.6749C39.5844 53.6118 39.5751 56.8971 40.2209 58.793C40.9353 60.8906 43.3084 63.363 45.5897 64.3871L47.4486 65.2215L72.4626 65.0462L73.9904 64.294C76.0305 63.2897 77.7851 61.4773 78.7419 59.3872C79.3703 58.0141 79.5267 57.1837 79.5267 55.2242C79.5267 53.1011 79.396 52.5106 78.5395 50.7706C77.5396 48.7391 76.0525 47.2456 73.8591 46.0706C72.8536 45.5317 71.8292 45.4842 60.0493 45.4286C49.0496 45.3771 47.1364 45.4364 45.9292 45.8676Z" fill="black"/>
</svg>
