<svg width="15" height="13" viewBox="0 0 15 13" fill="none" xmlns="http://www.w3.org/2000/svg">
<path d="M2.09172 4.571L2.00046 10.375C1.99557 10.554 2.0266 10.7321 2.09172 10.8989C2.15684 11.0657 2.25472 11.2178 2.37959 11.3461C2.50445 11.4744 2.65377 11.5764 2.81872 11.6461C2.98368 11.7157 3.16091 11.7516 3.33996 11.7516C3.51902 11.7516 3.69625 11.7157 3.8612 11.6461C4.02615 11.5764 4.17547 11.4744 4.30034 11.3461C4.42521 11.2178 4.52309 11.0657 4.58821 10.8989C4.65332 10.7321 4.68435 10.554 4.67946 10.375V9.928C4.67946 9.436 5.07846 9.036 5.57146 9.036H7.35846C7.85146 9.036 8.25146 9.435 8.25146 9.928V10.375C8.24657 10.554 8.2776 10.7321 8.34272 10.8989C8.40784 11.0657 8.50572 11.2178 8.63059 11.3461C8.75545 11.4744 8.90477 11.5764 9.06973 11.6461C9.23468 11.7157 9.41191 11.7516 9.59096 11.7516C9.77002 11.7516 9.94725 11.7157 10.1122 11.6461C10.2772 11.5764 10.4265 11.4744 10.5513 11.3461C10.6762 11.2178 10.7741 11.0657 10.8392 10.8989C10.9043 10.7321 10.9354 10.554 10.9305 10.375V6.803H12.7145C13.7005 6.803 14.5005 6.004 14.5005 5.018V4.125L11.8215 3.232V1H11.1395C10.808 1.00051 10.4832 1.09306 10.2012 1.26733C9.91921 1.4416 9.69117 1.69075 9.54246 1.987L8.25046 4.571H5.48446H2.09172ZM2.09172 4.571L0.5 4" stroke="black" stroke-linecap="round" stroke-linejoin="round"/>
<path d="M8.26245 4.45398C8.43745 5.17098 9.26245 6.64898 11.1575 6.82898" stroke="black" stroke-linecap="round" stroke-linejoin="round"/>
</svg>
