<svg width="430" height="377" viewBox="0 0 430 377" fill="none" xmlns="http://www.w3.org/2000/svg">
<path d="M366.419 337.789C282.589 389.639 146.689 389.639 62.8688 337.789C-20.9512 285.939 -20.9613 201.909 62.8688 150.069C146.699 98.2292 282.589 98.2292 366.419 150.069C450.249 201.909 450.239 285.949 366.419 337.789Z" fill="#F5F5F5"/>
<path d="M308.159 329.299C307.718 328.298 306.954 327.474 305.989 326.959C303.849 325.959 301.619 326.339 299.299 326.659C296.979 326.979 294.359 328.459 291.979 329.559C290.819 330.109 289.769 330.689 288.679 331.139C287.566 331.6 286.428 331.994 285.269 332.319C283.009 332.949 280.349 333.319 278.569 332.829C278.509 332.8 278.445 332.78 278.379 332.769C278.238 332.711 278.101 332.644 277.969 332.569C277.807 332.477 277.656 332.366 277.519 332.239C277.292 332.065 277.116 331.834 277.009 331.569C276.995 331.454 277.019 331.338 277.079 331.239C277.241 331.004 277.448 330.804 277.689 330.649C278.609 330.119 280.789 328.849 281.069 326.349C281.118 325.334 280.878 324.325 280.377 323.44C279.876 322.555 279.135 321.83 278.239 321.349C276.793 320.549 275.148 320.177 273.499 320.279C272.194 320.304 270.896 320.475 269.629 320.789C267.387 321.319 265.215 322.111 263.159 323.149C261.439 324.029 260.059 324.899 258.779 325.649C258.086 325.266 257.368 324.932 256.629 324.649C227.029 323.019 210.979 330.429 201.809 342.439C197.749 346.179 203.299 350.439 209.239 351.389C215.469 352.389 232.539 351.089 249.159 343.789C259.559 339.229 263.209 332.859 262.739 329.789C262.683 329.479 262.582 329.18 262.439 328.899C263.349 328.339 264.299 327.769 265.279 327.259C266.993 326.387 268.801 325.716 270.669 325.259C271.653 325.014 272.657 324.857 273.669 324.789C274.433 324.716 275.204 324.808 275.929 325.059C276.829 325.559 276.929 325.959 276.929 325.979C276.929 325.999 276.929 326.189 276.689 326.429C276.567 326.561 276.433 326.682 276.289 326.789L275.539 327.279C274.694 327.841 274.006 328.609 273.539 329.509C273.273 330.043 273.12 330.625 273.087 331.22C273.054 331.815 273.143 332.41 273.349 332.969C273.728 333.921 274.37 334.746 275.199 335.349C275.573 335.633 275.975 335.877 276.399 336.079C276.569 336.149 276.659 336.199 276.889 336.279L277.629 336.509C281.009 337.159 283.679 336.379 286.309 335.569C287.587 335.134 288.834 334.609 290.039 333.999C291.239 333.379 292.329 332.669 293.349 332.089C295.308 330.997 297.394 330.147 299.559 329.559C301.559 329.029 303.719 328.739 305.259 329.279C306.209 329.649 307.669 330.569 306.639 331.629C306.377 331.912 306.093 332.173 305.789 332.409C304.699 333.269 303.219 333.609 302.329 334.679C302.506 334.756 302.696 334.795 302.889 334.795C303.081 334.795 303.272 334.756 303.449 334.679C305.389 333.879 309.529 332.179 308.159 329.299Z" fill="#E6E6E6"/>
<path d="M156.689 302.639C156.565 302.425 156.401 302.237 156.205 302.087C156.009 301.936 155.786 301.825 155.547 301.761C155.308 301.697 155.059 301.681 154.814 301.713C154.569 301.745 154.333 301.826 154.119 301.949L146.459 306.369C144.37 307.405 142.07 307.945 139.739 307.945C137.407 307.945 135.107 307.405 133.019 306.369C131.599 305.549 130.789 304.529 130.789 303.579C130.789 302.629 131.599 301.579 133.019 300.789C135.669 299.259 137.129 297.109 137.129 294.729C137.129 292.349 135.669 290.209 133.019 288.679C128.189 285.889 118.949 286.859 112.019 290.889L109.239 292.489C107.719 289.349 104.829 286.399 100.559 283.929C87.2887 276.269 65.7788 276.269 52.5588 283.929C39.3388 291.589 39.2888 304.009 52.5588 311.669C65.8288 319.329 87.3388 319.329 100.609 311.669C107.959 307.429 111.229 301.729 110.439 296.179L113.949 294.179C119.669 290.879 127.579 289.869 131.219 291.969C132.639 292.789 133.449 293.809 133.449 294.759C133.449 295.709 132.639 296.759 131.219 297.549C128.569 299.089 127.099 301.239 127.099 303.609C127.099 305.979 128.569 308.129 131.219 309.669C133.869 311.021 136.802 311.724 139.777 311.718C142.752 311.713 145.683 311.001 148.329 309.639L155.989 305.209C156.206 305.089 156.397 304.926 156.55 304.731C156.703 304.535 156.815 304.311 156.881 304.072C156.946 303.832 156.962 303.582 156.93 303.336C156.897 303.09 156.815 302.853 156.689 302.639Z" fill="#E6E6E6"/>
<path d="M263.279 272.679C333.507 272.679 390.439 241.567 390.439 203.189C390.439 164.811 333.507 133.699 263.279 133.699C193.05 133.699 136.119 164.811 136.119 203.189C136.119 241.567 193.05 272.679 263.279 272.679Z" fill="#E4E4E4"/>
<path d="M77.9788 177.349L88.3288 171.439C88.3288 171.439 93.3288 144.119 89.5788 120.639C84.3688 87.6391 61.8888 76.2391 53.7288 79.5191C45.5688 82.7991 43.6188 92.5791 58.3288 111.639C67.0688 122.909 78.2588 146.709 77.9788 177.349Z" fill="#996A56"/>
<g opacity="0.1">
<path d="M77.9788 177.349L88.3288 171.439C88.3288 171.439 93.3288 144.119 89.5788 120.639C84.3688 87.6391 61.8888 76.2391 53.7288 79.5191C45.5688 82.7991 43.6188 92.5791 58.3288 111.639C67.0688 122.909 78.2588 146.709 77.9788 177.349Z" fill="black"/>
</g>
<path d="M81.7187 164.239H81.6187C81.4266 164.209 81.2536 164.106 81.136 163.951C81.0185 163.796 80.9657 163.602 80.9887 163.409C85.2587 132.499 72.8287 98.629 58.8687 84.979C58.7757 84.9208 58.6968 84.8426 58.6377 84.7501C58.5786 84.6576 58.5409 84.5531 58.5272 84.4442C58.5134 84.3353 58.5241 84.2248 58.5584 84.1205C58.5927 84.0163 58.6498 83.9209 58.7255 83.8415C58.8012 83.762 58.8936 83.7004 58.9961 83.661C59.0985 83.6217 59.2085 83.6056 59.3179 83.614C59.4273 83.6224 59.5335 83.655 59.6288 83.7095C59.7241 83.764 59.806 83.839 59.8687 83.929C74.0887 97.829 86.7587 132.239 82.4187 163.609C82.3952 163.78 82.312 163.937 82.1839 164.052C82.0558 164.167 81.891 164.234 81.7187 164.239Z" fill="white"/>
<path d="M49.3288 193.919C47.6988 194.849 44.3288 192.799 43.0388 191.919C40.8261 190.396 39.0423 188.33 37.8588 185.919C36.5294 183.2 36.0752 180.136 36.5588 177.149C36.8233 175.569 37.1942 174.009 37.6688 172.479C38.0988 170.969 38.5388 169.479 38.9688 167.949C39.4962 166.49 39.724 164.939 39.6388 163.389C39.2388 160.289 36.4888 158.119 33.9888 156.249C31.2288 154.179 28.3488 151.449 28.3688 147.719C28.3688 144.849 29.8688 142.169 31.6488 139.919C33.4288 137.669 35.5488 135.659 37.1588 133.279C38.4293 131.621 39.0929 129.577 39.0388 127.489C38.8657 126.209 38.4336 124.977 37.7688 123.869C36.4588 121.439 34.7688 119.219 33.7688 116.609C32.7688 113.999 32.9988 110.759 35.0288 108.899C36.6988 107.359 39.1788 107.149 41.4488 107.299C43.578 107.553 45.6259 108.27 47.4488 109.399C53.3688 112.689 56.7488 119.699 63.0288 122.229C65.4488 123.229 68.0988 123.419 70.6288 124.089C73.1588 124.759 75.7288 126.089 76.8988 128.379C79.1988 132.989 74.8988 138.659 76.5488 143.549C77.9788 147.869 82.1788 149.549 84.5488 153.429C85.5145 155.148 85.9036 157.132 85.6588 159.089C85.4467 162.397 84.6369 165.64 83.2688 168.659C81.7356 171.659 79.9807 174.54 78.0188 177.279C77.8788 177.449 49.5488 193.769 49.3288 193.919Z" fill="#996A56"/>
<path d="M66.0787 184.979C65.8816 184.971 65.6954 184.886 65.5606 184.742C65.4259 184.598 65.3533 184.406 65.3587 184.209C66.5787 154.949 52.7887 122.649 42.7687 113.269C42.6483 113.132 42.5831 112.954 42.5856 112.771C42.5882 112.589 42.6584 112.413 42.7826 112.279C42.9068 112.145 43.0763 112.061 43.2584 112.045C43.4405 112.028 43.6223 112.08 43.7687 112.189C53.9887 121.759 68.0587 154.599 66.8287 184.269C66.8185 184.461 66.735 184.642 66.5954 184.774C66.4559 184.906 66.2709 184.979 66.0787 184.979Z" fill="white"/>
<path d="M61.6987 150.409C61.6258 150.419 61.5517 150.419 61.4787 150.409C52.0787 147.499 40.3587 146.989 40.2487 146.979C40.152 146.976 40.0567 146.955 39.9684 146.915C39.8802 146.875 39.8007 146.818 39.7347 146.748C39.6686 146.677 39.6172 146.594 39.5836 146.503C39.55 146.412 39.5347 146.316 39.5387 146.219C39.5398 146.121 39.561 146.024 39.6009 145.935C39.6407 145.845 39.6985 145.764 39.7706 145.698C39.8427 145.632 39.9276 145.58 40.0202 145.548C40.1127 145.516 40.2109 145.502 40.3087 145.509C40.4287 145.509 52.3087 146.039 61.9087 148.999C62.0724 149.055 62.2114 149.166 62.3016 149.313C62.3918 149.461 62.4275 149.635 62.4026 149.806C62.3776 149.977 62.2936 150.134 62.165 150.25C62.0364 150.366 61.8715 150.432 61.6987 150.439V150.409Z" fill="white"/>
<path d="M139.739 308.129C136.737 308.185 133.771 307.465 131.129 306.039C128.479 304.509 127.009 302.359 127.009 299.979C127.009 297.599 128.479 295.459 131.129 293.979C132.549 293.159 133.359 292.139 133.359 291.189C133.359 290.239 132.549 289.189 131.129 288.399C127.489 286.289 119.579 287.309 113.859 290.609L102.329 297.199C102.114 297.335 101.873 297.427 101.622 297.468C101.371 297.509 101.114 297.499 100.866 297.438C100.619 297.377 100.387 297.267 100.183 297.114C99.9794 296.961 99.8087 296.769 99.6813 296.548C99.5538 296.328 99.4723 296.084 99.4415 295.831C99.4107 295.578 99.4313 295.322 99.502 295.077C99.5728 294.833 99.6923 294.605 99.8532 294.408C100.014 294.21 100.213 294.048 100.439 293.929L111.939 287.289C118.939 283.289 128.149 282.289 132.939 285.079C135.589 286.609 137.049 288.759 137.049 291.139C137.049 293.519 135.589 295.659 132.939 297.199C131.519 298.009 130.709 299.029 130.709 299.979C130.709 300.929 131.519 301.979 132.939 302.779C135.027 303.815 137.327 304.355 139.659 304.355C141.99 304.355 144.29 303.815 146.379 302.779L154.039 298.349C154.47 298.138 154.965 298.098 155.424 298.238C155.883 298.378 156.271 298.688 156.51 299.104C156.749 299.52 156.821 300.011 156.712 300.478C156.602 300.945 156.318 301.353 155.919 301.619L148.329 306.039C145.693 307.462 142.734 308.182 139.739 308.129Z" fill="#996A56"/>
<g opacity="0.1">
<path d="M139.739 308.129C136.737 308.185 133.771 307.465 131.129 306.039C128.479 304.509 127.009 302.359 127.009 299.979C127.009 297.599 128.479 295.459 131.129 293.979C132.549 293.159 133.359 292.139 133.359 291.189C133.359 290.239 132.549 289.189 131.129 288.399C127.489 286.289 119.579 287.309 113.859 290.609L102.329 297.199C102.114 297.335 101.873 297.427 101.622 297.468C101.371 297.509 101.114 297.499 100.866 297.438C100.619 297.377 100.387 297.267 100.183 297.114C99.9794 296.961 99.8087 296.769 99.6813 296.548C99.5538 296.328 99.4723 296.084 99.4415 295.831C99.4107 295.578 99.4313 295.322 99.502 295.077C99.5728 294.833 99.6923 294.605 99.8532 294.408C100.014 294.21 100.213 294.048 100.439 293.929L111.939 287.289C118.939 283.289 128.149 282.289 132.939 285.079C135.589 286.609 137.049 288.759 137.049 291.139C137.049 293.519 135.589 295.659 132.939 297.199C131.519 298.009 130.709 299.029 130.709 299.979C130.709 300.929 131.519 301.979 132.939 302.779C135.027 303.815 137.327 304.355 139.659 304.355C141.99 304.355 144.29 303.815 146.379 302.779L154.039 298.349C154.47 298.138 154.965 298.098 155.424 298.238C155.883 298.378 156.271 298.688 156.51 299.104C156.749 299.52 156.821 300.011 156.712 300.478C156.602 300.945 156.318 301.353 155.919 301.619L148.329 306.039C145.693 307.462 142.734 308.182 139.739 308.129Z" fill="black"/>
</g>
<path d="M108.893 285.053C113.116 267.159 102.034 249.229 84.1399 245.006C66.246 240.783 48.3164 251.865 44.0931 269.759C39.8697 287.653 50.9519 305.582 68.8458 309.805C86.7398 314.029 104.669 302.947 108.893 285.053Z" fill="#996A56"/>
<mask id="mask0_4612_215" style="mask-type:luminance" maskUnits="userSpaceOnUse" x="43" y="244" width="67" height="67">
<path d="M108.893 285.053C113.116 267.159 102.034 249.229 84.1399 245.006C66.246 240.783 48.3164 251.865 44.0931 269.759C39.8697 287.653 50.9519 305.582 68.8458 309.805C86.7398 314.029 104.669 302.947 108.893 285.053Z" fill="white"/>
</mask>
<g mask="url(#mask0_4612_215)">
<path opacity="0.1" d="M119.929 307.579C111.985 305.364 104.485 301.791 97.7588 297.019C99.5043 297.402 101.271 297.682 103.049 297.859C107.049 298.329 111.919 299.069 115.099 296.149C115.699 295.599 114.819 295.149 114.339 295.229C110.285 295.72 106.201 295.92 102.119 295.829C97.3768 295.534 92.9315 293.42 89.7088 289.929C89.0388 289.219 88.3788 288.479 87.7088 287.729C90.7889 289.052 94.0598 289.875 97.3988 290.169C105.129 290.819 111.039 288.329 116.279 282.819C116.869 282.189 116.279 281.459 115.529 281.599C114.089 281.869 113.309 282.659 112.129 283.599C108.349 286.409 105.129 287.299 100.469 287.449C97.1786 287.54 93.901 287.007 90.8088 285.879C89.2388 285.289 87.8088 284.399 86.3188 283.679C84.759 282.978 83.4257 281.856 82.4688 280.439C81.7695 279.261 81.1482 278.038 80.6088 276.779C86.6988 280.449 96.7888 279.779 102.959 278.839C109.479 277.839 115.529 275.229 118.689 269.249C119.249 268.189 117.689 267.989 117.119 268.579C115.205 270.683 112.992 272.493 110.549 273.949C107.698 275.482 104.557 276.398 101.329 276.639C94.4388 277.409 85.7188 277.359 79.4688 273.859C79.0588 272.689 78.6888 271.509 78.3788 270.299C83.9088 271.679 89.9288 270.979 95.3788 269.539C98.6448 268.749 101.728 267.337 104.459 265.379C106.189 264.129 109.389 262.289 109.889 260.079C110.119 259.029 108.589 259.079 108.119 259.669C104.799 263.669 99.5488 266.039 94.6188 267.449C95.7788 263.009 97.0488 259.249 99.9988 255.449C101.426 253.688 102.963 252.018 104.599 250.449C105.109 249.929 105.699 249.449 105.779 248.739C105.899 247.649 104.069 248.199 103.779 248.879C103.839 248.699 102.779 249.119 102.779 249.149C101.825 249.811 100.99 250.629 100.309 251.569C99.0617 252.853 97.9024 254.219 96.8388 255.659C94.0888 259.489 92.8388 263.559 91.9588 268.089C89.6188 268.473 87.25 268.654 84.8788 268.629C84.3888 267.229 84.9988 264.859 85.1288 263.479C85.233 261.407 85.487 259.345 85.8888 257.309C87.0288 252.559 90.4388 248.309 91.3088 243.689C91.4088 243.149 90.3088 243.099 90.0788 243.429C86.4542 248.236 84.0272 253.837 82.9988 259.769C82.6388 262.079 81.7688 265.939 82.1688 268.699C81.5714 268.729 80.9727 268.679 80.3888 268.549C79.7527 268.448 79.1377 268.241 78.5688 267.939C77.2688 267.169 77.3388 265.579 77.1688 264.239C76.9657 262.68 76.8522 261.111 76.8288 259.539C76.7266 255.711 77.2294 251.891 78.3188 248.219C79.3188 245.219 81.4288 242.439 81.8488 239.219C82.0488 237.689 79.8488 237.909 79.4888 239.099C78.5488 242.279 76.1288 244.829 75.0988 248.099C73.842 252.436 73.2949 256.948 73.4788 261.459C73.7468 268.667 75.6916 275.714 79.1588 282.039C84.4275 291.296 92.0838 298.97 101.329 304.259C90.6295 299.553 81.5076 291.871 75.0488 282.129C67.6888 271.039 63.8588 254.849 68.7288 242.019C68.9088 241.529 67.9988 241.249 67.7288 241.589C63.5088 246.689 63.7288 255.289 64.7288 261.449C65.8988 268.449 67.4988 275.449 71.3288 281.609C75.5088 288.289 80.2688 294.149 86.7388 298.769C89.2588 300.559 91.9488 302.429 94.7388 304.039C90.7135 302.892 86.8718 301.178 83.3288 298.949C78.9158 295.821 74.8879 292.183 71.3288 288.109C65.4797 281.978 61.4047 274.375 59.5388 266.109C58.8211 262.575 58.4858 258.975 58.5388 255.369C58.5388 251.939 57.9488 247.649 59.2688 244.449C59.5588 243.719 58.0388 243.689 57.7488 244.199C56.4554 246.708 55.7703 249.486 55.7488 252.309C55.6588 253.869 55.7488 255.409 55.7488 256.959C55.8842 258.394 55.5845 259.837 54.8888 261.099C54.1808 262.007 53.3798 262.838 52.4988 263.579C51.7588 264.359 50.9788 265.109 50.2188 265.899C48.6672 267.522 47.2492 269.268 45.9788 271.119C41.8388 277.039 41.1288 284.119 41.0388 291.179C41.0388 291.919 42.4388 291.709 42.6088 291.179C44.6088 284.429 44.2788 277.699 48.7888 271.809C51.0388 268.879 53.7888 266.669 56.5288 264.269C56.5288 264.369 56.5288 264.479 56.5288 264.579C56.8088 266.329 57.1788 268.079 57.6288 269.799C57.9988 271.169 58.4088 272.709 57.3888 273.919C56.6183 274.653 55.7889 275.322 54.9088 275.919C54.0161 276.705 53.1807 277.554 52.4088 278.459C51.0488 279.989 49.8188 281.629 48.5388 283.229C44.3788 288.429 41.0388 296.439 42.1588 303.229C42.2044 303.38 42.3012 303.511 42.4326 303.598C42.564 303.686 42.7217 303.725 42.8788 303.709C42.5657 305.359 42.542 307.051 42.8088 308.709C42.8338 308.842 42.9045 308.962 43.0085 309.048C43.1126 309.135 43.2436 309.182 43.3788 309.182C43.514 309.182 43.645 309.135 43.7491 309.048C43.8532 308.962 43.9238 308.842 43.9488 308.709C45.1494 303.643 47.4392 298.9 50.6588 294.809C53.2788 299.109 58.8488 302.519 63.2188 303.889C66.5597 304.992 70.0508 305.572 73.5688 305.609C77.4281 305.705 81.2673 305.025 84.8588 303.609C89.573 306.265 94.852 307.76 100.259 307.969C100.515 307.951 100.763 307.87 100.979 307.732C101.196 307.594 101.374 307.404 101.499 307.179C102.701 307.572 103.931 307.873 105.179 308.079C105.532 308.071 105.872 307.945 106.144 307.72C106.416 307.495 106.605 307.184 106.679 306.839C110.666 308.426 114.917 309.244 119.209 309.249C119.999 309.159 121.129 307.939 119.929 307.579ZM64.4988 284.579C65.2288 285.579 65.9988 286.579 66.8288 287.579C68.5288 289.579 70.3588 291.579 72.2888 293.499C72.1488 293.359 71.0488 293.499 70.8288 293.499C70.3088 293.499 69.8288 293.499 69.2688 293.499C68.2615 293.47 67.2582 293.36 66.2688 293.169C64.3752 292.84 62.5705 292.122 60.9688 291.059C60.2199 290.48 59.5478 289.808 58.9688 289.059C58.4788 288.469 58.3088 287.689 59.0688 287.229C59.6088 286.899 60.1588 286.579 60.7188 286.279C61.8886 285.662 63.0941 285.114 64.3288 284.639L64.4988 284.579ZM44.7888 298.279C45.8478 293.421 47.9196 288.842 50.8688 284.839C53.4619 281.515 56.4242 278.495 59.6988 275.839C60.0709 276.877 60.5326 277.881 61.0788 278.839C61.4388 279.549 62.6188 280.999 62.3888 281.839C62.3394 281.998 62.2416 282.138 62.1088 282.239C61.8111 282.481 61.4724 282.667 61.1088 282.789C56.509 284.717 52.4608 287.758 49.3288 291.639C47.5658 293.664 46.0423 295.885 44.7888 298.259V298.279ZM75.1088 302.799C71.994 302.888 68.885 302.479 65.8988 301.589C61.2588 300.279 55.2588 297.009 52.6588 292.479C53.6154 291.466 54.6376 290.518 55.7188 289.639C57.0088 291.869 59.9788 293.769 61.9188 294.639C65.4388 296.189 70.9188 297.349 74.5888 295.639C77.1207 297.943 79.8364 300.037 82.7088 301.899C80.2128 302.455 77.6658 302.75 75.1088 302.779V302.799Z" fill="black"/>
</g>
<path d="M252.949 329.539C252.949 329.539 252.869 329.229 252.849 328.889C252.769 328.433 252.769 327.966 252.849 327.509C252.949 326.509 253.849 326.309 254.849 325.669L258.409 323.569C259.789 322.779 261.279 321.819 263.179 320.839C265.235 319.801 267.407 319.009 269.649 318.479C270.918 318.175 272.215 318.004 273.519 317.969C275.169 317.876 276.812 318.251 278.259 319.049C279.155 319.53 279.896 320.255 280.397 321.14C280.898 322.025 281.138 323.033 281.089 324.049C280.809 326.539 278.629 327.819 277.709 328.349C277.466 328.5 277.258 328.701 277.099 328.939C277.041 329.035 277.016 329.148 277.029 329.259C277.133 329.529 277.309 329.764 277.539 329.939C277.681 330.059 277.831 330.17 277.989 330.269C278.121 330.341 278.258 330.405 278.399 330.459L278.589 330.519C280.369 331.009 283.029 330.649 285.289 330.009C286.449 329.688 287.588 329.294 288.699 328.829C289.789 328.389 290.839 327.829 291.999 327.249C294.237 326.182 296.613 325.431 299.059 325.019C301.389 324.689 303.709 324.509 305.849 325.489C306.931 325.971 307.838 326.774 308.449 327.789C309.269 329.509 308.059 331.439 306.629 332.389C306.339 332.589 302.149 334.989 301.979 334.569C301.919 334.409 302.049 334.239 302.169 334.119C303.24 333.221 304.366 332.389 305.539 331.629C306.539 330.839 307.859 329.739 307.029 328.319C306.592 327.665 305.958 327.167 305.219 326.899C303.679 326.359 301.549 326.639 299.519 327.179C297.358 327.774 295.279 328.633 293.329 329.739C292.329 330.319 291.219 331.029 290.019 331.639C288.818 332.258 287.571 332.783 286.289 333.209C283.659 334.019 280.989 334.799 277.609 334.159L276.869 333.929C276.639 333.849 276.549 333.789 276.379 333.719C275.953 333.521 275.551 333.276 275.179 332.989C274.356 332.393 273.715 331.579 273.329 330.639C273.123 330.08 273.034 329.484 273.066 328.889C273.099 328.294 273.253 327.712 273.519 327.179C273.982 326.276 274.671 325.507 275.519 324.949L276.269 324.449C276.415 324.344 276.549 324.224 276.669 324.089C276.879 323.859 276.929 323.689 276.909 323.649C276.889 323.609 276.839 323.229 275.909 322.729C275.184 322.478 274.414 322.383 273.649 322.449C272.636 322.515 271.632 322.676 270.649 322.929C268.781 323.386 266.973 324.057 265.259 324.929C263.669 325.759 262.139 326.759 260.769 327.569L257.229 329.709C256.229 330.239 255.619 330.999 254.659 330.589C254.223 330.436 253.814 330.213 253.449 329.929C253.179 329.759 252.939 329.509 252.949 329.539Z" fill="#FFA8A7"/>
<path d="M260.099 325.639C260.099 322.289 258.439 314.049 252.099 310.309C245.099 306.149 236.689 304.069 225.689 310.309C215.219 316.239 202.069 334.189 201.689 340.689V340.909C201.689 340.909 201.689 340.979 201.689 341.009C201.629 342.879 202.589 344.469 204.899 345.809C211.899 349.869 230.399 346.059 243.379 341.009C253.329 337.139 261.419 331.639 260.099 325.639Z" fill="#8D8D8D"/>
<path d="M205.669 340.969C204.669 340.489 204.489 338.899 204.859 338.059C205.999 335.519 211.119 338.569 209.949 339.999C209.424 340.585 208.73 340.993 207.964 341.167C207.197 341.34 206.395 341.271 205.669 340.969Z" fill="#FFA8A7"/>
<path d="M208.079 327.759C208.079 327.759 203.809 325.649 203.759 321.469C203.709 317.289 207.219 315.419 210.709 316.339C215.349 317.559 214.709 323.609 212.469 326.529C212.469 326.529 212.079 327.299 210.159 327.759C209.472 327.896 208.765 327.896 208.079 327.759Z" fill="#5A5A5A"/>
<path d="M209.869 326.959C208.009 327.259 205.789 324.589 205.669 322.859C205.549 321.129 206.769 319.709 208.979 319.279C211.189 318.849 212.569 319.699 212.799 321.989C212.939 323.469 212.469 326.529 209.869 326.959Z" fill="#FFA8A7"/>
<path d="M221.259 330.219C221.259 330.219 220.409 325.539 223.739 323.009C227.069 320.479 230.659 322.179 231.999 325.529C233.789 329.979 228.559 333.089 224.859 333.019C224.859 333.019 224.009 333.159 222.499 331.889C221.98 331.419 221.559 330.852 221.259 330.219Z" fill="#5A5A5A"/>
<path d="M222.969 331.179C221.619 329.869 222.439 326.499 223.759 325.369C225.079 324.239 226.949 324.369 228.599 325.889C230.249 327.409 230.409 329.029 228.699 330.579C227.599 331.569 224.859 333.019 222.969 331.179Z" fill="#FFA8A7"/>
<path d="M217.099 332.879L218.099 333.559C218.34 333.696 218.545 333.888 218.698 334.119C218.851 334.35 218.947 334.614 218.979 334.889C219.044 335.564 218.904 336.243 218.578 336.837C218.251 337.431 217.753 337.913 217.149 338.219C216.893 338.347 216.61 338.413 216.324 338.413C216.038 338.413 215.755 338.347 215.499 338.219L214.559 337.579L214.709 337.289C214.61 337.094 214.542 336.885 214.509 336.669C214.446 335.995 214.587 335.317 214.913 334.724C215.24 334.13 215.736 333.648 216.339 333.339C216.508 333.265 216.686 333.211 216.869 333.179L217.099 332.879Z" fill="#37474F"/>
<path d="M218.039 334.239C218.107 334.914 217.969 335.594 217.642 336.189C217.315 336.783 216.815 337.265 216.209 337.569C215.965 337.714 215.687 337.794 215.403 337.803C215.119 337.811 214.838 337.748 214.585 337.618C214.332 337.488 214.116 337.296 213.958 337.06C213.8 336.824 213.704 336.552 213.679 336.269C213.614 335.594 213.753 334.916 214.08 334.322C214.406 333.727 214.904 333.246 215.509 332.939C215.753 332.794 216.031 332.714 216.315 332.705C216.599 332.697 216.88 332.76 217.133 332.89C217.386 333.02 217.602 333.212 217.76 333.448C217.918 333.684 218.014 333.956 218.039 334.239Z" fill="#455A64"/>
<path d="M215.869 334.139C215.879 334.264 215.853 334.39 215.792 334.5C215.732 334.611 215.64 334.701 215.529 334.759C215.484 334.787 215.432 334.802 215.379 334.804C215.327 334.806 215.274 334.794 215.227 334.77C215.18 334.746 215.14 334.711 215.11 334.667C215.081 334.623 215.063 334.572 215.059 334.519C215.047 334.394 215.073 334.267 215.134 334.157C215.194 334.046 215.287 333.957 215.399 333.899C215.445 333.874 215.496 333.861 215.548 333.86C215.6 333.86 215.651 333.872 215.697 333.895C215.743 333.919 215.783 333.954 215.813 333.996C215.843 334.038 215.862 334.088 215.869 334.139Z" fill="#37474F"/>
<path d="M217.119 334.709C217.134 334.835 217.109 334.962 217.048 335.073C216.987 335.185 216.893 335.274 216.779 335.329C216.734 335.357 216.682 335.372 216.629 335.374C216.576 335.376 216.524 335.364 216.477 335.34C216.43 335.316 216.39 335.281 216.36 335.237C216.331 335.193 216.313 335.142 216.309 335.089C216.298 334.964 216.325 334.838 216.385 334.728C216.446 334.618 216.538 334.528 216.649 334.469C216.694 334.442 216.746 334.426 216.798 334.424C216.851 334.422 216.904 334.434 216.951 334.458C216.998 334.482 217.038 334.518 217.068 334.562C217.097 334.606 217.115 334.656 217.119 334.709Z" fill="#37474F"/>
<path d="M215.149 335.329C215.161 335.455 215.135 335.581 215.074 335.691C215.013 335.802 214.921 335.892 214.809 335.949C214.763 335.974 214.712 335.987 214.66 335.988C214.608 335.988 214.557 335.976 214.511 335.953C214.464 335.929 214.425 335.895 214.395 335.852C214.365 335.81 214.346 335.761 214.339 335.709C214.328 335.584 214.355 335.458 214.416 335.348C214.476 335.238 214.568 335.148 214.679 335.089C214.724 335.062 214.776 335.046 214.828 335.044C214.881 335.042 214.934 335.054 214.981 335.078C215.028 335.102 215.068 335.138 215.098 335.182C215.127 335.226 215.145 335.276 215.149 335.329Z" fill="#37474F"/>
<path d="M216.409 335.899C216.419 336.023 216.392 336.147 216.331 336.256C216.271 336.364 216.179 336.452 216.069 336.509C216.024 336.537 215.972 336.552 215.919 336.554C215.867 336.556 215.814 336.544 215.767 336.52C215.72 336.496 215.68 336.46 215.65 336.417C215.621 336.373 215.603 336.322 215.599 336.269C215.585 336.145 215.61 336.019 215.671 335.91C215.732 335.8 215.826 335.713 215.939 335.659C215.984 335.632 216.036 335.616 216.088 335.614C216.141 335.612 216.194 335.624 216.241 335.648C216.288 335.672 216.328 335.708 216.358 335.752C216.387 335.796 216.405 335.846 216.409 335.899Z" fill="#37474F"/>
<path d="M206.769 328.759L207.769 329.449C208.011 329.585 208.217 329.776 208.37 330.007C208.523 330.239 208.619 330.503 208.649 330.779C208.714 331.454 208.574 332.132 208.248 332.727C207.921 333.321 207.423 333.802 206.819 334.109C206.564 334.234 206.283 334.3 205.999 334.3C205.715 334.3 205.434 334.234 205.179 334.109L204.239 333.469L204.389 333.179C204.294 332.983 204.227 332.774 204.189 332.559C204.124 331.884 204.263 331.206 204.59 330.612C204.916 330.017 205.414 329.536 206.019 329.229C206.188 329.154 206.366 329.101 206.549 329.069L206.769 328.759Z" fill="#37474F"/>
<path d="M207.709 330.129C207.777 330.804 207.638 331.484 207.312 332.079C206.985 332.673 206.485 333.155 205.879 333.459C205.634 333.604 205.357 333.684 205.073 333.693C204.789 333.702 204.508 333.638 204.255 333.508C204.002 333.378 203.786 333.186 203.628 332.95C203.47 332.714 203.374 332.442 203.349 332.159C203.284 331.484 203.423 330.806 203.75 330.212C204.076 329.618 204.574 329.136 205.179 328.829C205.423 328.684 205.701 328.604 205.985 328.595C206.269 328.587 206.55 328.65 206.803 328.78C207.056 328.91 207.271 329.102 207.43 329.338C207.588 329.574 207.684 329.846 207.709 330.129Z" fill="#455A64"/>
<path d="M205.539 330.029C205.549 330.154 205.523 330.28 205.462 330.39C205.402 330.501 205.31 330.591 205.199 330.649C205.154 330.677 205.102 330.692 205.049 330.694C204.996 330.696 204.944 330.684 204.897 330.66C204.85 330.636 204.81 330.601 204.78 330.557C204.751 330.513 204.733 330.462 204.729 330.409C204.717 330.284 204.743 330.157 204.804 330.047C204.864 329.936 204.957 329.847 205.069 329.789C205.115 329.764 205.166 329.751 205.218 329.75C205.269 329.75 205.321 329.762 205.367 329.785C205.413 329.809 205.453 329.844 205.483 329.886C205.513 329.928 205.532 329.978 205.539 330.029Z" fill="#37474F"/>
<path d="M206.789 330.639C206.804 330.765 206.779 330.892 206.718 331.003C206.657 331.114 206.563 331.204 206.449 331.259C206.403 331.284 206.352 331.297 206.3 331.298C206.248 331.299 206.197 331.286 206.151 331.263C206.104 331.239 206.065 331.205 206.035 331.162C206.005 331.12 205.986 331.071 205.979 331.019C205.968 330.894 205.995 330.768 206.056 330.658C206.116 330.548 206.208 330.458 206.319 330.399C206.364 330.372 206.416 330.356 206.468 330.354C206.521 330.352 206.574 330.364 206.621 330.388C206.668 330.412 206.708 330.448 206.738 330.492C206.767 330.536 206.785 330.586 206.789 330.639Z" fill="#37474F"/>
<path d="M204.819 331.219C204.834 331.345 204.809 331.472 204.748 331.583C204.687 331.695 204.593 331.784 204.479 331.839C204.433 331.864 204.381 331.877 204.328 331.877C204.275 331.877 204.224 331.865 204.177 331.84C204.131 331.815 204.091 331.779 204.062 331.736C204.032 331.692 204.014 331.642 204.009 331.589C203.999 331.465 204.026 331.341 204.087 331.233C204.147 331.124 204.238 331.036 204.349 330.979C204.394 330.952 204.446 330.936 204.498 330.934C204.551 330.932 204.604 330.944 204.651 330.968C204.698 330.992 204.738 331.028 204.768 331.072C204.797 331.116 204.815 331.166 204.819 331.219Z" fill="#37474F"/>
<path d="M206.079 331.789C206.089 331.913 206.062 332.037 206.001 332.146C205.941 332.254 205.849 332.342 205.739 332.399C205.694 332.427 205.642 332.442 205.589 332.444C205.537 332.446 205.484 332.434 205.437 332.41C205.39 332.386 205.35 332.351 205.32 332.307C205.291 332.263 205.273 332.212 205.269 332.159C205.255 332.035 205.28 331.909 205.341 331.8C205.402 331.69 205.496 331.603 205.609 331.549C205.654 331.522 205.706 331.506 205.758 331.504C205.811 331.502 205.864 331.514 205.911 331.538C205.958 331.562 205.998 331.598 206.028 331.642C206.057 331.686 206.075 331.736 206.079 331.789Z" fill="#37474F"/>
<path d="M412.689 132.399C409.943 132.41 407.226 131.833 404.722 130.707C402.217 129.58 399.983 127.931 398.169 125.869C388.239 114.929 387.009 91.3992 394.959 64.4592C400.959 44.2192 400.549 27.8992 393.959 19.6892C390.639 15.5692 385.719 13.6892 379.339 14.1892C369.039 14.9592 366.469 19.8992 362.929 26.7392C361.359 29.7392 360.169 33.2492 362.239 35.1992C359.019 38.6392 349.029 42.3492 342.239 42.5492C341.312 42.5768 340.388 42.4215 339.521 42.0922C338.654 41.7628 337.86 41.266 337.185 40.6299C336.51 39.9938 335.967 39.231 335.587 38.385C335.206 37.539 334.997 36.6263 334.969 35.6992C334.941 34.7721 335.097 33.8486 335.426 32.9815C335.755 32.1144 336.252 31.3206 336.888 30.6455C337.524 29.9704 338.287 29.4273 339.133 29.047C339.979 28.6667 340.892 28.4568 341.819 28.4292C345.819 28.3092 347.019 26.7692 350.419 20.2292C354.299 12.7492 360.159 1.45922 378.329 0.109216C389.279 -0.710784 398.749 3.10921 404.979 10.8092C414.709 22.8092 415.979 43.3292 408.579 68.4492C401.269 93.2292 403.519 110.659 408.699 116.369C409.36 117.169 410.24 117.76 411.23 118.07C412.22 118.381 413.279 118.398 414.279 118.119C415.19 117.944 416.126 117.95 417.034 118.136C417.943 118.323 418.806 118.686 419.574 119.206C420.342 119.726 421 120.393 421.51 121.167C422.021 121.941 422.374 122.808 422.549 123.719C422.724 124.63 422.718 125.566 422.532 126.475C422.345 127.383 421.982 128.246 421.462 129.014C420.942 129.782 420.276 130.44 419.501 130.95C418.727 131.461 417.86 131.814 416.949 131.989C415.545 132.261 414.119 132.399 412.689 132.399Z" fill="#5D5D5D"/>
<path opacity="0.5" d="M412.689 132.399C409.943 132.41 407.226 131.833 404.722 130.707C402.217 129.58 399.983 127.931 398.169 125.869C388.239 114.929 387.009 91.3992 394.959 64.4592C400.959 44.2192 400.549 27.8992 393.959 19.6892C390.639 15.5692 385.719 13.6892 379.339 14.1892C369.039 14.9592 366.469 19.8992 362.929 26.7392C361.359 29.7392 360.169 33.2492 362.239 35.1992C359.019 38.6392 349.029 42.3492 342.239 42.5492C341.312 42.5768 340.388 42.4215 339.521 42.0922C338.654 41.7628 337.86 41.266 337.185 40.6299C336.51 39.9938 335.967 39.231 335.587 38.385C335.206 37.539 334.997 36.6263 334.969 35.6992C334.941 34.7721 335.097 33.8486 335.426 32.9815C335.755 32.1144 336.252 31.3206 336.888 30.6455C337.524 29.9704 338.287 29.4273 339.133 29.047C339.979 28.6667 340.892 28.4568 341.819 28.4292C345.819 28.3092 347.019 26.7692 350.419 20.2292C354.299 12.7492 360.159 1.45922 378.329 0.109216C389.279 -0.710784 398.749 3.10921 404.979 10.8092C414.709 22.8092 415.979 43.3292 408.579 68.4492C401.269 93.2292 403.519 110.659 408.699 116.369C409.36 117.169 410.24 117.76 411.23 118.07C412.22 118.381 413.279 118.398 414.279 118.119C415.19 117.944 416.126 117.95 417.034 118.136C417.943 118.323 418.806 118.686 419.574 119.206C420.342 119.726 421 120.393 421.51 121.167C422.021 121.941 422.374 122.808 422.549 123.719C422.724 124.63 422.718 125.566 422.532 126.475C422.345 127.383 421.982 128.246 421.462 129.014C420.942 129.782 420.276 130.44 419.501 130.95C418.727 131.461 417.86 131.814 416.949 131.989C415.545 132.261 414.119 132.399 412.689 132.399Z" fill="black"/>
<path d="M205.959 170.409C202.669 180.789 196.699 187.109 184.809 194.569C172.919 202.029 159.809 212.359 155.809 218.189C152.119 223.639 151.529 227.639 154.009 229.639C154.009 229.639 155.009 234.129 160.119 231.809C160.119 231.809 162.639 234.809 165.709 233.139C169.429 231.139 171.219 226.639 174.129 222.939C177.605 218.697 182.219 215.533 187.429 213.819C193.149 211.899 220.229 204.379 228.609 192.509C236.989 180.639 238.249 175.939 242.199 165.429" fill="#5D5D5D"/>
<path opacity="0.7" d="M205.959 170.409C202.669 180.789 196.699 187.109 184.809 194.569C172.919 202.029 159.809 212.359 155.809 218.189C152.119 223.639 151.529 227.639 154.009 229.639C154.009 229.639 155.009 234.129 160.119 231.809C160.119 231.809 162.639 234.809 165.709 233.139C169.429 231.139 171.219 226.639 174.129 222.939C177.605 218.697 182.219 215.533 187.429 213.819C193.149 211.899 220.229 204.379 228.609 192.509C236.989 180.639 238.249 175.939 242.199 165.429" fill="black"/>
<path d="M236.159 189.879C232.859 200.259 226.899 206.589 215.009 214.049C203.119 221.509 190.009 231.829 186.009 237.659C182.279 243.099 181.689 247.109 184.179 249.079C184.179 249.079 185.179 253.579 190.279 251.249C190.279 251.249 192.809 254.249 195.879 252.589C199.599 250.589 201.389 246.089 204.299 242.389C207.77 238.146 212.381 234.982 217.589 233.269C223.319 231.349 253.589 225.729 261.949 213.859C270.309 201.989 274.869 196.859 279.519 186.249" fill="#5D5D5D"/>
<path d="M382.939 71.4592C382.939 49.4592 365.249 31.0892 343.359 28.6592C327.009 26.8392 310.959 32.5792 301.689 47.5892C295.971 56.9668 290.728 66.6256 285.979 76.5292C277.679 93.4392 264.329 126.639 239.749 119.999L236.749 164.199L211.409 173.049C221.219 172.539 222.299 187.529 238.899 195.789C255.499 204.049 265.899 204.929 276.689 192.079C285.129 182.079 313.349 175.909 333.639 155.009C345.069 143.229 346.829 134.149 346.829 134.149C350.078 141.331 354.077 148.148 358.759 154.489C362.189 158.819 358.479 175.969 358.179 182.149C351.459 185.439 349.799 189.399 355.489 192.479C359.709 194.759 363.879 193.369 367.199 191.029C368.398 190.098 369.304 188.841 369.809 187.409C374.329 176.169 385.329 143.829 378.329 138.309C373.329 134.399 380.139 98.8792 381.829 85.6792C382.497 80.9672 382.868 76.2178 382.939 71.4592Z" fill="#5D5D5D"/>
<path opacity="0.5" d="M343.999 141.219C345.259 138.999 346.221 136.621 346.859 134.149C342.639 129.079 342.149 98.1492 342.149 98.1492C342.149 98.1492 335.569 119.639 343.999 141.219Z" fill="black"/>
<path opacity="0.5" d="M292.719 181.639C292.719 181.639 290.099 182.969 288.899 179.219C287.699 175.469 292.719 165.389 292.719 165.389C292.719 165.389 281.659 184.679 276.719 192.069C279.829 188.389 285.629 185.219 292.719 181.639Z" fill="black"/>
<path d="M202.769 106.939C202.769 106.939 195.519 99.5293 187.629 96.8893C179.739 94.2493 176.629 94.0293 174.629 94.7993C170.849 96.2793 180.859 111.109 180.859 122.859L202.769 106.939Z" fill="#5D5D5D"/>
<path opacity="0.7" d="M202.769 106.939C202.769 106.939 195.519 99.5293 187.629 96.8893C179.739 94.2493 176.629 94.0293 174.629 94.7993C170.849 96.2793 180.859 111.109 180.859 122.859L202.769 106.939Z" fill="black"/>
<path d="M180.859 98.9192C176.469 95.9892 174.179 95.2692 173.809 96.1192C173.399 100.269 180.859 112.709 180.859 122.859L190.789 115.649C191.179 110.179 185.329 101.909 180.859 98.9192Z" fill="#E0E0E0"/>
<path d="M244.329 116.789C238.519 109.989 228.619 105.029 221.869 104.619C205.189 103.619 193.629 107.979 184.149 118.719C174.669 129.459 176.369 135.489 176.749 140.719C177.129 145.949 174.629 154.169 175.159 159.829C175.689 165.489 183.999 174.119 189.409 175.829C197.009 178.159 207.479 177.289 214.409 174.369C221.339 171.449 238.939 170.089 242.409 179.309L256.609 140.769C249.789 132.779 251.209 124.849 244.329 116.789Z" fill="#5D5D5D"/>
<path opacity="0.5" d="M382.939 71.4592C382.939 49.4592 365.249 31.0892 343.359 28.6592C327.009 26.8392 310.959 32.5792 301.689 47.5892C295.971 56.9668 290.728 66.6256 285.979 76.5292C278.549 91.6592 267.109 119.819 247.149 120.829C246.334 119.409 245.387 118.07 244.319 116.829C238.509 110.029 228.609 105.069 221.859 104.659C205.179 103.659 193.619 108.019 184.139 118.759C174.659 129.499 176.359 135.529 176.739 140.759C177.119 145.989 174.619 154.209 175.149 159.869C175.679 165.529 183.989 174.159 189.399 175.869C196.999 178.199 207.469 177.329 214.399 174.409C214.739 174.259 215.119 174.119 215.519 173.979C221.329 176.829 224.299 186.549 234.899 193.559C231.399 201.909 225.519 207.559 215.059 214.169C203.169 221.629 190.059 231.949 186.059 237.779C182.329 243.219 181.739 247.229 184.229 249.199C184.229 249.199 185.229 253.699 190.329 251.369C190.329 251.369 192.859 254.369 195.929 252.709C199.649 250.709 201.439 246.209 204.349 242.509C207.82 238.266 212.431 235.102 217.639 233.389C223.369 231.469 253.639 225.849 261.999 213.979C268.679 204.509 272.919 199.299 276.729 192.209C285.169 182.209 313.389 176.039 333.679 155.139C345.109 143.359 346.869 134.279 346.869 134.279C350.118 141.461 354.117 148.278 358.799 154.619C362.229 158.949 358.519 176.099 358.219 182.279C351.499 185.569 349.839 189.529 355.529 192.609C359.749 194.889 363.919 193.499 367.239 191.159C368.438 190.228 369.344 188.971 369.849 187.539C374.329 176.169 385.329 143.829 378.329 138.309C373.329 134.399 380.139 98.8792 381.829 85.6792C382.497 80.9672 382.868 76.2178 382.939 71.4592Z" fill="black"/>
<path d="M250.519 101.339C248.639 99.1792 240.269 97.0792 219.099 109.339L220.099 120.019C220.099 120.019 231.339 119.229 237.449 121.729C240.722 123.122 243.507 125.458 245.449 128.439C245.685 128.797 245.902 129.168 246.099 129.549C246.099 129.549 255.119 105.799 250.519 101.339Z" fill="#5D5D5D"/>
<path opacity="0.7" d="M250.519 101.339C248.639 99.1792 240.269 97.0792 219.099 109.339L220.099 120.019C220.099 120.019 231.339 119.229 237.449 121.729C240.722 123.122 243.507 125.458 245.449 128.439C245.685 128.797 245.902 129.168 246.099 129.549C246.099 129.549 255.119 105.799 250.519 101.339Z" fill="black"/>
<path d="M247.979 100.639C239.229 101.529 220.109 119.949 220.109 119.949C220.109 119.949 231.349 119.159 237.459 121.659C240.733 123.052 243.517 125.388 245.459 128.369V128.419C247.329 123.339 254.829 101.419 247.979 100.639Z" fill="#E0E0E0"/>
<path d="M207.329 146.529C207.329 146.289 208.739 141.189 212.729 140.689C213.885 140.554 215.056 140.758 216.098 141.277C217.14 141.795 218.009 142.606 218.599 143.609C218.408 144.763 217.895 145.839 217.121 146.714C216.346 147.59 215.34 148.229 214.219 148.559C210.139 149.949 207.329 146.529 207.329 146.529Z" fill="#BEBEBE"/>
<path d="M186.219 144.639C186.424 143.54 186.288 142.405 185.829 141.386C185.369 140.367 184.608 139.513 183.649 138.939C183.025 138.582 182.304 138.432 181.589 138.509C180.982 138.588 180.403 138.814 179.903 139.168C179.403 139.521 178.997 139.991 178.72 140.537C178.443 141.083 178.304 141.688 178.314 142.3C178.324 142.912 178.484 143.513 178.779 144.049C179.141 144.661 179.663 145.162 180.289 145.499C181.23 146.043 182.327 146.253 183.403 146.097C184.479 145.941 185.471 145.428 186.219 144.639Z" fill="#BEBEBE"/>
<path d="M220.479 158.149C220.403 158.159 220.325 158.159 220.249 158.149C214.117 156.008 207.441 156.008 201.309 158.149C201.135 158.225 200.939 158.228 200.762 158.159C200.586 158.09 200.444 157.953 200.369 157.779C200.293 157.606 200.29 157.409 200.359 157.233C200.429 157.056 200.565 156.915 200.739 156.839C201.099 156.679 209.629 153.089 220.739 156.839C220.917 156.903 221.064 157.033 221.148 157.203C221.232 157.373 221.247 157.569 221.189 157.749C221.126 157.881 221.024 157.99 220.897 158.061C220.77 158.133 220.624 158.164 220.479 158.149Z" fill="#BEBEBE"/>
<path d="M219.179 167.139C219.077 167.14 218.976 167.119 218.883 167.078C218.79 167.037 218.706 166.976 218.639 166.899C212.099 159.579 200.589 160.979 200.479 160.999C200.291 161.019 200.103 160.966 199.954 160.85C199.805 160.735 199.706 160.566 199.679 160.379C199.666 160.287 199.672 160.192 199.696 160.102C199.72 160.012 199.761 159.927 199.818 159.853C199.874 159.778 199.945 159.716 200.026 159.669C200.107 159.622 200.196 159.592 200.289 159.579C200.789 159.519 212.669 158.069 219.709 165.939C219.828 166.082 219.889 166.265 219.878 166.451C219.866 166.637 219.785 166.812 219.649 166.939C219.522 167.062 219.355 167.133 219.179 167.139Z" fill="#BEBEBE"/>
<path d="M178.829 156.569C178.633 156.568 178.442 156.509 178.279 156.399C173.575 152.828 167.657 151.248 161.799 151.999C161.705 152.013 161.609 152.008 161.518 151.983C161.426 151.959 161.341 151.915 161.267 151.856C161.193 151.797 161.131 151.723 161.087 151.64C161.043 151.556 161.016 151.464 161.009 151.369C160.989 151.181 161.044 150.993 161.162 150.845C161.28 150.697 161.451 150.602 161.639 150.579C167.768 149.824 173.953 151.449 178.919 155.119C179.003 155.152 179.081 155.2 179.149 155.259L179.219 155.319C179.317 155.398 179.402 155.492 179.469 155.599C179.525 155.749 179.529 155.914 179.48 156.066C179.431 156.219 179.332 156.35 179.199 156.439C179.095 156.526 178.964 156.572 178.829 156.569Z" fill="#BEBEBE"/>
<path d="M162.329 159.169C162.198 159.171 162.069 159.135 161.957 159.066C161.846 158.997 161.756 158.897 161.699 158.779C161.649 158.694 161.618 158.6 161.607 158.502C161.595 158.404 161.605 158.305 161.634 158.211C161.663 158.117 161.711 158.03 161.776 157.956C161.841 157.881 161.92 157.821 162.009 157.779C164.592 156.511 167.427 155.841 170.304 155.818C173.181 155.796 176.027 156.422 178.629 157.649C178.718 157.691 178.797 157.751 178.862 157.826C178.926 157.9 178.975 157.987 179.004 158.081C179.033 158.175 179.042 158.274 179.031 158.372C179.02 158.47 178.989 158.564 178.939 158.649C178.895 158.736 178.833 158.813 178.759 158.876C178.684 158.939 178.598 158.987 178.504 159.015C178.411 159.044 178.313 159.054 178.216 159.045C178.119 159.035 178.025 159.006 177.939 158.959C177.859 158.959 170.369 155.139 162.629 159.089C162.537 159.14 162.434 159.168 162.329 159.169Z" fill="#BEBEBE"/>
<path d="M196.669 168.709C194.788 168.726 192.943 168.194 191.359 167.179C190.337 166.611 189.51 165.746 188.989 164.699C188.652 162.132 188.997 159.521 189.989 157.129C190.004 157.043 190.038 156.961 190.089 156.89C190.14 156.819 190.207 156.761 190.285 156.72C190.362 156.68 190.448 156.657 190.535 156.655C190.623 156.652 190.71 156.67 190.789 156.707C190.869 156.743 190.939 156.798 190.994 156.866C191.049 156.933 191.087 157.013 191.107 157.099C191.126 157.184 191.126 157.273 191.105 157.358C191.085 157.443 191.045 157.522 190.989 157.589C190.118 159.789 189.822 162.174 190.129 164.519C190.359 165.029 193.609 168.759 199.529 167.179C199.675 167.139 199.83 167.159 199.962 167.234C200.093 167.309 200.189 167.433 200.229 167.579C200.269 167.725 200.249 167.881 200.174 168.012C200.099 168.143 199.975 168.239 199.829 168.279C198.8 168.563 197.737 168.708 196.669 168.709Z" fill="#BEBEBE"/>
<path d="M189.949 154.189C185.479 154.269 184.719 156.029 185.369 158.189C185.751 159.14 186.367 159.978 187.161 160.625C187.955 161.272 188.901 161.707 189.909 161.889C191.519 162.029 195.769 160.889 196.369 158.619C196.819 156.869 195.329 154.099 189.949 154.189Z" fill="#FFA8A7"/>
<path d="M185.979 167.049C185.512 167.043 185.047 166.996 184.589 166.909C184.515 166.895 184.445 166.866 184.383 166.825C184.32 166.783 184.267 166.73 184.225 166.668C184.183 166.605 184.154 166.535 184.139 166.462C184.124 166.388 184.124 166.313 184.139 166.239C184.168 166.09 184.255 165.958 184.38 165.872C184.505 165.786 184.659 165.753 184.809 165.779C187.949 166.379 188.999 164.439 189.039 164.349C189.109 164.215 189.229 164.114 189.373 164.068C189.517 164.021 189.673 164.032 189.809 164.099C189.944 164.166 190.047 164.283 190.095 164.426C190.144 164.568 190.135 164.724 190.069 164.859C189.654 165.565 189.053 166.143 188.332 166.529C187.61 166.916 186.796 167.096 185.979 167.049Z" fill="#BEBEBE"/>
</svg>
