<svg width="19" height="24" viewBox="0 0 19 24" fill="none" xmlns="http://www.w3.org/2000/svg">
<path opacity="0.95" fill-rule="evenodd" clip-rule="evenodd" d="M4.59375 0C7.42186 0 10.25 0 13.0781 0C13.6673 0.498267 14.2766 0.974827 14.9063 1.42969C15.0752 1.55661 15.1924 1.72067 15.2578 1.92188C15.3265 3.20074 15.3499 4.48199 15.3281 5.76562C16.0496 5.74523 16.7684 5.76867 17.4844 5.83594C17.8449 5.97764 18.0715 6.23545 18.1641 6.60938C18.1953 11.9219 18.1953 17.2344 18.1641 22.5469C18.0019 23.2949 17.5566 23.7792 16.8281 24C11.6719 24 6.51563 24 1.35938 24C0.630915 23.7792 0.185603 23.2949 0.0234387 22.5469C-0.00781289 17.2344 -0.00781289 11.9219 0.0234387 6.60938C0.116026 6.23545 0.342587 5.97764 0.703126 5.83594C1.24707 5.76975 1.79394 5.74631 2.34375 5.76562C2.33597 5.46834 2.34375 5.17148 2.36719 4.875C2.58099 4.52556 2.81536 4.50994 3.07031 4.82812C3.09375 5.14022 3.10153 5.45273 3.09375 5.76562C3.53124 5.76562 3.96877 5.76562 4.40625 5.76562C4.42186 4.23405 4.40625 2.70281 4.35938 1.17188C3.95667 1.47872 3.55824 1.79122 3.16406 2.10938C3.10388 2.57348 3.07261 3.04223 3.07031 3.51562C2.86524 3.74445 2.64647 3.76007 2.41406 3.5625C2.36156 3.30969 2.33813 3.05188 2.34375 2.78906C2.3003 2.38282 2.37061 2.00001 2.55469 1.64062C3.22964 1.08233 3.90933 0.535462 4.59375 0ZM5.15625 0.703125C7.59375 0.703125 10.0313 0.703125 12.4688 0.703125C12.4688 1.125 12.4688 1.54688 12.4688 1.96875C10.0313 1.96875 7.59375 1.96875 5.15625 1.96875C5.15625 1.54688 5.15625 1.125 5.15625 0.703125ZM13.2188 1.125C13.6964 1.44564 14.1417 1.80502 14.5547 2.20312C14.5781 3.39052 14.586 4.57802 14.5781 5.76562C14.125 5.76562 13.6719 5.76562 13.2188 5.76562C13.2188 4.21875 13.2188 2.67188 13.2188 1.125ZM5.15625 2.71875C7.59375 2.71875 10.0313 2.71875 12.4688 2.71875C12.4688 3.73438 12.4688 4.74998 12.4688 5.76562C10.0313 5.76562 7.59375 5.76562 5.15625 5.76562C5.15625 4.74998 5.15625 3.73438 5.15625 2.71875ZM0.984376 6.51562C6.39066 6.5078 11.7969 6.51562 17.2031 6.53906C17.2702 6.56086 17.3249 6.59995 17.3672 6.65625C17.4451 11.9181 17.4608 17.1837 17.4141 22.4531C17.2743 22.9648 16.9384 23.2382 16.4063 23.2734C11.5313 23.3047 6.65625 23.3047 1.78125 23.2734C1.25092 23.2387 0.914978 22.9653 0.773439 22.4531C0.742187 17.2187 0.742187 11.9844 0.773439 6.75C0.821486 6.64748 0.891798 6.56934 0.984376 6.51562Z" fill="#9A9A9A"/>
<path opacity="0.935" fill-rule="evenodd" clip-rule="evenodd" d="M3.18751 8.20313C7.12506 8.1953 11.0626 8.20313 15 8.22657C15.4655 8.37962 15.7233 8.69991 15.7734 9.18751C15.8047 13 15.8047 16.8125 15.7734 20.625C15.7141 21.1531 15.425 21.4734 14.9063 21.5859C13.5938 21.6172 12.2813 21.6172 10.9688 21.5859C10.6759 21.3744 10.6603 21.14 10.9219 20.8828C12.2031 20.8672 13.4844 20.8516 14.7656 20.8359C14.8984 20.7969 14.9844 20.7109 15.0234 20.5781C15.0547 16.7969 15.0547 13.0156 15.0234 9.23438C15.0048 9.10632 14.9345 9.0204 14.8125 8.97657C11 8.9453 7.1875 8.9453 3.37501 8.97657C3.30793 8.99837 3.25328 9.03746 3.21095 9.09376C3.15662 11.0285 3.13318 12.9661 3.14064 14.9063C3.14846 16.7969 3.15625 18.6875 3.16407 20.5781C3.20312 20.7109 3.28909 20.7969 3.42189 20.8359C5.48439 20.8516 7.54689 20.8672 9.60939 20.8828C9.8454 21.0241 9.90011 21.2194 9.77345 21.4688C9.71856 21.5341 9.64825 21.5731 9.56251 21.5859C7.46875 21.6172 5.37503 21.6172 3.28126 21.5859C2.7625 21.4734 2.47342 21.1531 2.41407 20.625C2.38281 16.7969 2.38281 12.9688 2.41407 9.14063C2.49493 8.67737 2.75275 8.36485 3.18751 8.20313Z" fill="#9A9A9A"/>
<path opacity="0.936" fill-rule="evenodd" clip-rule="evenodd" d="M8.06408 13.0302C8.5486 12.9814 8.8237 13.196 8.88939 13.674C8.82426 14.1571 8.54916 14.3662 8.06408 14.3012C7.61286 14.108 7.48629 13.7833 7.68443 13.3273C7.78496 13.1922 7.91149 13.0931 8.06408 13.0302Z" fill="#9A9A9A"/>
<path opacity="0.939" fill-rule="evenodd" clip-rule="evenodd" d="M10.507 13.0302C11.1679 13.0321 11.4155 13.3512 11.2498 13.9876C11.0171 14.3182 10.7145 14.4007 10.342 14.2352C10.0688 14.0456 9.97522 13.787 10.0614 13.4594C10.142 13.2411 10.2906 13.0981 10.507 13.0302Z" fill="#9A9A9A"/>
<path opacity="0.938" fill-rule="evenodd" clip-rule="evenodd" d="M6.54556 14.6148C7.20505 14.5644 7.47466 14.8615 7.35436 15.5061C7.14632 15.8761 6.84373 15.9806 6.44652 15.8198C6.14251 15.612 6.04898 15.3314 6.16591 14.9779C6.24828 14.808 6.37485 14.687 6.54556 14.6148Z" fill="#9A9A9A"/>
<path opacity="0.936" fill-rule="evenodd" clip-rule="evenodd" d="M11.9267 14.6148C12.5869 14.5651 12.8565 14.8622 12.7355 15.5062C12.5003 15.8993 12.1756 15.9929 11.7616 15.7868C11.4377 15.4642 11.4157 15.1231 11.6956 14.7634C11.7747 14.7131 11.8518 14.6636 11.9267 14.6148Z" fill="#9A9A9A"/>
<path opacity="0.974" fill-rule="evenodd" clip-rule="evenodd" d="M9.21952 14.8459C9.82022 14.7914 10.2329 15.0445 10.4575 15.6052C10.5748 15.7115 10.7013 15.805 10.8371 15.8858C11.2157 16.2949 11.2652 16.7406 10.9857 17.2228C10.8256 17.4211 10.622 17.5476 10.375 17.6025C9.75872 17.6245 9.1425 17.6245 8.52626 17.6025C7.94161 17.4293 7.68298 17.0387 7.75046 16.4305C7.79988 16.216 7.9044 16.0344 8.06408 15.8858C8.34878 15.7551 8.54138 15.5405 8.6418 15.2421C8.80158 15.0555 8.99414 14.9234 9.21952 14.8459Z" fill="#9A9A9A"/>
</svg>
