<svg width="234" height="256" viewBox="0 0 234 256" fill="none" xmlns="http://www.w3.org/2000/svg">
<circle cx="120.63" cy="139.73" r="112.63" fill="#EAE5DF"/>
<path d="M48.0957 208.673L58.8257 251.393" stroke="black" stroke-miterlimit="10"/>
<path d="M99.0958 124.803L64.6258 130.033C64.6258 130.033 61.1958 131.293 47.6258 130.583C34.0558 129.873 22.7058 137.323 18.7058 148.933C17.2058 153.263 14.2758 160.683 11.2158 168.453C14.9547 182.912 21.5399 196.48 30.5858 208.363C34.279 208.754 37.9925 208.921 41.7058 208.863C41.7058 208.863 43.7058 216.323 45.9558 224.863C66.0474 242.567 91.8097 252.499 118.586 252.863C127.393 249.996 135.913 246.313 144.036 241.863L140.036 197.583C140.036 197.583 151.366 194.203 161.366 182.863C163.556 180.393 139.366 139.053 132.366 130.583C125.366 122.113 99.0958 124.803 99.0958 124.803Z" fill="#7E7B44"/>
<path d="M114.192 194.165C122.165 182.995 119.574 167.476 108.404 159.502C97.2332 151.528 81.7139 154.12 73.7403 165.29C65.7666 176.461 68.3581 191.98 79.5285 199.953C90.6988 207.927 106.218 205.336 114.192 194.165Z" fill="#EFD79A"/>
<path d="M86.396 170.023L87.866 178.853" stroke="#7E7B44" stroke-linecap="round" stroke-linejoin="round"/>
<path d="M97.9658 168.083L99.4458 176.923" stroke="#7E7B44" stroke-linecap="round" stroke-linejoin="round"/>
<path d="M109.256 175.293C109.845 179.385 108.809 183.545 106.37 186.883C103.93 190.221 100.281 192.471 96.2033 193.152C92.1256 193.833 87.9433 192.89 84.5517 190.526C81.1601 188.162 78.8285 184.565 78.0562 180.503" stroke="#7E7B44" stroke-linecap="round" stroke-linejoin="round"/>
<path d="M60.6963 130.634C60.6963 130.634 76.6263 146.554 91.2563 142.684C103.876 139.354 101.356 124.624 101.356 124.624" stroke="#514D27" stroke-width="0.75" stroke-linecap="round" stroke-linejoin="round"/>
<path d="M57.1963 100.744C57.1963 100.744 63.6863 110.034 64.6263 130.034C64.6263 130.034 78.7263 141.034 88.6263 139.534C98.5263 138.034 99.0563 124.784 99.0563 124.784C94.2558 117.92 91.2855 109.945 90.4263 101.614L57.1963 100.744Z" fill="#FFB48C"/>
<path d="M82.0663 113.304C86.9063 112.544 89.9163 110.814 91.7963 108.954C91.163 106.552 90.7183 104.105 90.4663 101.634L57.1963 100.744C58.3827 102.633 59.3617 104.644 60.1163 106.744C65.6363 110.234 74.2663 114.524 82.0663 113.304Z" fill="#EF8D6F"/>
<path d="M34.8762 86.1835C34.8762 86.1835 20.2562 54.2535 17.3162 47.4035C14.3762 40.5535 24.1262 36.3035 24.1262 36.3035C24.1262 36.3035 21.0262 27.3035 32.5762 16.0535C44.1262 4.80347 67.3762 10.0535 76.6262 0.303467C76.6262 0.303467 75.8762 8.30347 72.3762 12.8035C72.3762 12.8035 90.8762 2.55347 109.376 16.3035C109.376 16.3035 109.376 28.3035 104.626 37.0535C104.626 37.0535 109.376 33.3035 111.876 23.0535C111.876 23.0535 118.876 48.4635 101.876 59.8835L34.8762 86.1835Z" fill="#D86224"/>
<path d="M68.4258 12.8036C68.4258 12.8036 84.8758 -1.69642 109.626 12.8036" stroke="#D86224" stroke-width="0.5" stroke-linecap="round" stroke-linejoin="round"/>
<path d="M109.376 16.3035C109.376 16.3035 102.876 26.3035 84.376 26.8035" stroke="#FF8326" stroke-width="0.5" stroke-linecap="round" stroke-linejoin="round"/>
<path d="M78.646 21.5535C86.3395 23.7774 94.4685 24.0319 102.286 22.2935" stroke="#FF8326" stroke-width="0.5" stroke-linecap="round" stroke-linejoin="round"/>
<path d="M61.2462 21.0335C85.0162 14.5535 97.0862 27.7735 103.246 49.3735C109.406 70.9735 109.306 95.6435 92.0362 101.154C74.7662 106.664 50.2362 105.744 39.7362 83.7135C29.2362 61.6835 25.8262 30.6735 61.2462 21.0335Z" fill="#FFB48C"/>
<path d="M91.4162 42.8336C87.7177 42.2913 84.1373 41.1283 80.8262 39.3936C83.8262 35.4136 91.4162 37.8136 91.4162 42.8336Z" fill="#D86224"/>
<path d="M68.4258 41.1736C66.7358 42.9336 64.9358 44.6336 63.4258 46.5336C61.6458 48.2036 60.5458 50.5336 58.8558 52.3036C58.3253 50.9565 58.1679 49.4913 58.4002 48.0623C58.6325 46.6332 59.2459 45.2933 60.1758 44.1836C61.9558 41.9136 65.5058 40.0336 68.4258 41.1736Z" fill="#D86224"/>
<path d="M89.6362 84.1834C89.6362 84.1834 77.9962 90.0334 68.8262 81.7334" stroke="#EF8D6F" stroke-width="0.75" stroke-linecap="round" stroke-linejoin="round"/>
<path d="M86.7361 58.0334C87.1461 59.7434 88.3461 60.9234 89.4061 60.6634C90.4661 60.4034 90.9961 58.8234 90.5861 57.1134C90.1761 55.4034 88.9861 54.2234 87.9161 54.4834C86.8461 54.7434 86.3261 56.3734 86.7361 58.0334Z" fill="#3A130E"/>
<path d="M64.7659 63.4735C65.1759 65.1835 66.3759 66.3535 67.4359 66.1035C68.4959 65.8535 69.0259 64.2535 68.6159 62.5435C68.2059 60.8335 67.0159 59.6635 65.9459 59.9135C64.8759 60.1635 64.3559 61.7635 64.7659 63.4735Z" fill="#3A130E"/>
<path d="M56.4117 87.0421C63.5141 85.966 68.5552 80.3643 67.6713 74.5303C66.7874 68.6964 60.3131 64.8394 53.2107 65.9155C46.1082 66.9916 41.0672 72.5934 41.9511 78.4273C42.835 84.2613 49.3092 88.1182 56.4117 87.0421Z" fill="#F27F52"/>
<path d="M102.636 54.4735C103.259 54.3809 103.887 54.3275 104.516 54.3135C106.201 61.1837 107.008 68.2401 106.916 75.3135C106.536 75.3935 106.156 75.4735 105.766 75.5235C98.6762 76.5835 92.2161 72.7035 91.3561 66.8835C90.4961 61.0635 95.5461 55.5235 102.636 54.4735Z" fill="#F27F52"/>
<path d="M78.646 47.4036C78.646 47.4036 78.926 57.7236 84.646 66.3436C84.646 66.3436 93.806 64.2636 94.766 65.9136C95.726 67.5636 89.766 77.9136 89.766 77.9136" fill="#FFB48C"/>
<path d="M78.646 47.4036C78.646 47.4036 78.926 57.7236 84.646 66.3436C84.646 66.3436 93.806 64.2636 94.766 65.9136C95.726 67.5636 89.766 77.9136 89.766 77.9136" stroke="#EF8D6F" stroke-width="0.75" stroke-linecap="round" stroke-linejoin="round"/>
<path d="M43.3762 40.9435C56.8762 41.1735 72.8762 25.0535 72.3762 12.8035C75.8762 8.30347 76.6262 0.303467 76.6262 0.303467C67.3762 10.0535 44.1162 4.80347 32.6262 16.0535C21.1362 27.3035 24.1262 36.3035 24.1262 36.3035C24.1262 36.3035 14.3762 40.5535 17.3162 47.4035C19.2162 51.8235 25.9862 66.7035 30.5462 76.6935C53.0262 68.2135 43.3762 40.9435 43.3762 40.9435Z" fill="#FF8326"/>
<path d="M23.8262 31.7835C23.8262 31.7835 28.2962 20.4735 44.8262 19.3935C61.3562 18.3135 67.3662 16.8035 72.3662 12.8035" stroke="#D86224" stroke-width="0.5" stroke-linecap="round" stroke-linejoin="round"/>
<path d="M76.626 0.303467C73.6786 5.18506 69.723 9.38115 65.0236 12.6112C60.3243 15.8412 54.9895 18.0308 49.376 19.0335" stroke="#D86224" stroke-width="0.5" stroke-linecap="round" stroke-linejoin="round"/>
<path d="M17.126 42.8335C17.126 42.8335 24.576 57.4235 45.226 57.6135" stroke="#D86224" stroke-width="0.5" stroke-linecap="round" stroke-linejoin="round"/>
<path d="M44.8261 91.7034L35.8261 74.1634C35.8261 74.1634 27.7461 63.1634 19.0461 69.8534C11.3861 75.7834 30.4461 101.853 44.8261 91.7034Z" fill="#FFB48C"/>
<path d="M35.4764 73.6734C35.7264 73.9734 35.8664 74.1634 35.8664 74.1634L44.8664 91.7034C35.8664 98.0534 25.0264 90.2234 20.0664 82.0134C23.3364 74.7934 30.2164 73.4734 35.4764 73.6734Z" fill="#EF8D6F"/>
<path d="M114.716 124.624C114.716 124.624 134.026 157.624 140.026 197.624C140.026 197.624 151.356 194.244 161.356 182.904C163.546 180.434 139.356 139.094 132.356 130.624C129.106 126.664 121.706 125.134 114.716 124.624Z" fill="#969269"/>
<path d="M139.236 192.833C139.236 192.833 149.646 189.163 160.506 178.833" stroke="#514D27" stroke-width="0.75" stroke-linecap="round" stroke-linejoin="round"/>
<path d="M131.236 41.0735L151.416 72.1735L114.086 88.8535L104.386 73.9535L131.236 41.0735Z" fill="#371315"/>
<path d="M187.556 41.0735L167.366 72.1735L204.696 88.8535L214.396 73.9535L187.556 41.0735Z" fill="#371315"/>
<path d="M220.966 190.784C213.506 156.004 201.876 133.104 201.876 133.104C201.876 133.104 210.606 127.184 212.616 122.394C214.626 117.604 209.226 90.2536 201.876 81.8036C194.526 73.3536 174.136 71.8936 159.396 71.8936C144.656 71.8936 124.256 73.3536 116.906 81.8036C109.556 90.2536 104.156 117.604 106.176 122.394C108.196 127.184 116.906 133.104 116.906 133.104C116.906 133.104 91.066 183.964 91.736 249.254C116.715 255.768 143.173 253.516 166.692 242.875C190.212 232.234 209.369 213.847 220.966 190.784V190.784Z" fill="#D0915E"/>
<path d="M181.826 114.113C195.306 121.113 206.146 118.773 212.896 115.523C211.946 105.453 207.496 88.2034 201.896 81.8034C195.566 74.5234 179.566 72.4334 165.826 71.9934C164.536 81.8834 163.826 104.713 181.826 114.113Z" fill="#AD7041"/>
<path d="M91.7361 248.674C91.7361 249.134 91.6061 249.223 92.1061 249.343C92.4561 249.443 92.8161 249.533 93.1661 249.613C93.8861 249.793 94.5961 249.963 95.3161 250.123C96.8828 250.483 98.4528 250.817 100.026 251.123C103.086 251.683 106.176 252.123 109.276 252.413C115.638 253.035 122.041 253.112 128.416 252.643C129.946 252.533 131.476 252.393 133.006 252.213C133.596 252.153 134.696 252.214 135.086 251.764C135.476 251.314 135.956 250.693 136.386 250.153C137.943 248.141 139.379 246.037 140.686 243.854C143.435 239.283 145.554 234.362 146.986 229.223C150.11 218.188 149.174 206.398 144.346 195.993C140.469 187.761 134.547 180.658 127.146 175.363C121.667 171.466 115.587 168.493 109.146 166.563C108.036 166.223 106.926 165.913 105.796 165.643L104.466 165.333C103.996 166.853 103.526 168.383 103.086 169.923C101.293 176.017 99.7061 182.167 98.3261 188.373C93.8285 208.169 91.6041 228.413 91.6961 248.713L91.7361 248.674Z" fill="#AD7041"/>
<path d="M220.826 190.344C217.581 175.2 213.102 160.347 207.436 145.934C202.436 150.134 199.836 156.384 199.076 162.744C197.876 172.804 200.266 184.144 206.206 192.454C208.193 195.257 210.653 197.694 213.476 199.654C213.796 199.874 214.126 200.084 214.476 200.294C214.826 200.504 215.156 200.944 215.476 200.444C216.156 199.374 216.816 198.284 217.476 197.184C218.136 196.084 218.746 194.974 219.356 193.854C219.826 192.934 221.086 191.374 220.826 190.344Z" fill="#AD7041"/>
<path d="M104.386 73.9534C103.046 70.6134 127.536 40.2234 131.236 41.0734C134.936 41.9234 141.166 80.8134 138.526 84.6234C135.886 88.4334 108.386 83.9734 104.386 73.9534Z" fill="#AD7041"/>
<path d="M214.396 73.9536C215.736 70.6136 191.256 40.2236 187.556 41.0736C183.856 41.9236 177.616 80.8136 180.256 84.6236C182.896 88.4336 210.396 83.9736 214.396 73.9536Z" fill="#D0915E"/>
<g style="mix-blend-mode:multiply">
<path d="M141.126 183.104C141.126 183.104 135.736 204.474 147.366 215.794C147.366 215.794 145.096 208.394 147.366 203.694C147.366 203.694 147.366 217.803 167.746 221.393C167.746 221.393 170.996 212.774 170.596 204.614C170.596 204.614 172.976 210.614 172.536 214.614C172.536 214.614 180.896 211.224 181.776 197.914" stroke="#EDC8B9" stroke-width="0.75" stroke-linejoin="round"/>
</g>
<path d="M134.626 108.933C136.813 108.933 138.586 106.78 138.586 104.123C138.586 101.467 136.813 99.3135 134.626 99.3135C132.439 99.3135 130.666 101.467 130.666 104.123C130.666 106.78 132.439 108.933 134.626 108.933Z" fill="#3A130E"/>
<path d="M134.626 108.934C136.816 108.934 138.626 106.774 138.626 104.124C138.627 103.35 138.471 102.584 138.166 101.874L130.916 105.694C131.101 106.562 131.563 107.347 132.232 107.931C132.901 108.515 133.741 108.867 134.626 108.934Z" fill="#231012"/>
<path d="M133.946 103.634C133.946 104.634 133.566 105.404 133.096 105.404C132.626 105.404 132.246 104.614 132.246 103.634C132.246 102.654 132.626 101.874 133.096 101.874C133.566 101.874 133.946 102.664 133.946 103.634Z" fill="#EFF6FE"/>
<path d="M188.126 104.123C188.126 106.773 186.346 108.933 184.126 108.933C181.906 108.933 180.126 106.773 180.126 104.123C180.126 101.473 181.896 99.3135 184.126 99.3135C186.356 99.3135 188.126 101.463 188.126 104.123Z" fill="#3A130E"/>
<path d="M184.156 108.934C186.346 108.934 188.156 106.774 188.156 104.124C188.157 103.35 188.001 102.584 187.696 101.874L180.446 105.694C180.632 106.562 181.093 107.347 181.762 107.931C182.431 108.515 183.271 108.867 184.156 108.934V108.934Z" fill="#231012"/>
<path d="M183.476 103.634C183.476 104.634 183.096 105.404 182.626 105.404C182.156 105.404 181.776 104.614 181.776 103.634C181.776 102.654 182.156 101.874 182.626 101.874C183.096 101.874 183.476 102.664 183.476 103.634Z" fill="#EFF6FE"/>
<path d="M159.396 114.114C159.299 115.85 158.636 117.506 157.507 118.829C156.378 120.151 154.846 121.066 153.146 121.434V131.114C153.146 132.771 153.804 134.361 154.977 135.533C156.149 136.705 157.738 137.364 159.396 137.364C161.054 137.364 162.643 136.705 163.815 135.533C164.988 134.361 165.646 132.771 165.646 131.114V121.434C163.945 121.069 162.411 120.155 161.281 118.832C160.152 117.509 159.489 115.851 159.396 114.114V114.114Z" fill="#F49A8E"/>
<path d="M159.396 114.104V129.014" stroke="#E27169" stroke-linecap="round" stroke-linejoin="round"/>
<path d="M159.396 100.514C152.866 100.514 142.786 101.974 143.036 105.614C143.286 109.254 152.036 113.384 159.396 114.114C166.696 113.384 175.516 109.254 175.756 105.614C175.996 101.974 165.926 100.514 159.396 100.514Z" fill="#231012"/>
<path d="M177.656 115.164C177.656 115.164 177.126 121.724 168.356 121.724C159.586 121.724 159.356 114.114 159.356 114.114C159.356 114.114 159.166 121.724 150.356 121.724C141.546 121.724 141.056 115.164 141.056 115.164" stroke="#231012" stroke-linecap="round" stroke-linejoin="round"/>
<path d="M202.166 133.684C197.346 135.914 178.896 143.814 159.396 143.814C139.896 143.814 121.396 135.914 116.616 133.684C116.256 134.434 115.616 135.884 114.616 137.984C118.006 142.314 131.616 156.984 159.376 156.984C187.136 156.984 200.736 142.274 204.136 137.984C203.226 135.884 202.526 134.434 202.166 133.684Z" fill="#EFD79A"/>
<path d="M170.281 173.535C171.702 167.514 167.973 161.482 161.953 160.061C155.933 158.64 149.901 162.369 148.48 168.389C147.059 174.409 150.788 180.441 156.808 181.862C162.828 183.283 168.86 179.555 170.281 173.535Z" fill="#989898"/>
<path d="M167.507 172.88C168.567 168.392 165.787 163.894 161.299 162.835C156.811 161.776 152.313 164.555 151.254 169.044C150.195 173.532 152.974 178.029 157.463 179.088C161.951 180.148 166.448 177.368 167.507 172.88Z" fill="#B2552D"/>
<path d="M167.746 170.974C167.746 169.322 167.256 167.708 166.339 166.335C165.421 164.961 164.117 163.891 162.591 163.259C161.066 162.627 159.387 162.462 157.767 162.784C156.147 163.106 154.659 163.901 153.492 165.069C152.324 166.237 151.529 167.725 151.206 169.345C150.884 170.964 151.05 172.643 151.682 174.169C152.313 175.695 153.384 176.999 154.757 177.916C156.13 178.834 157.744 179.324 159.396 179.324C160.494 179.327 161.581 179.114 162.596 178.696C163.611 178.278 164.533 177.663 165.309 176.887C166.085 176.111 166.7 175.188 167.118 174.174C167.537 173.159 167.75 172.071 167.746 170.974V170.974Z" fill="#C0C0C0"/>
<path d="M155.4 170.556H156.289V171.444H155.4V170.556ZM158.956 167.889H159.844V169.667H158.956V167.889ZM158.067 170.556H159.844V172.333H158.956V171.444H158.067V170.556ZM160.733 170.556H161.622V171.444H162.511V170.556H163.4V171.444H162.511V172.333H163.4V174.111H162.511V175H161.622V174.111H159.844V175H158.956V173.222H160.733V172.333H161.622V171.444H160.733V170.556ZM162.511 174.111V172.333H161.622V174.111H162.511ZM160.733 167H163.4V169.667H160.733V167ZM161.622 167.889V168.778H162.511V167.889H161.622ZM155.4 167H158.067V169.667H155.4V167ZM156.289 167.889V168.778H157.178V167.889H156.289ZM155.4 172.333H158.067V175H155.4V172.333ZM156.289 173.222V174.111H157.178V173.222H156.289Z" fill="#5A5A5A"/>
<path d="M159.396 150.154V161.144" stroke="white" stroke-width="2" stroke-linecap="round" stroke-linejoin="round"/>
<path d="M159.096 214.033C158.966 212.823 142.846 214.573 144.776 213.953C146.706 213.333 165.956 206.573 164.256 205.713C162.556 204.853 140.026 208.153 143.336 206.903C146.646 205.653 168.256 196.783 166.666 195.173C165.076 193.563 140.506 203.173 142.326 201.673C144.146 200.173 164.686 187.483 163.416 186.303C162.146 185.123 151.346 190.593 148.666 192.183C145.986 193.773 127.526 200.863 126.416 200.033C125.306 199.203 126.706 197.163 129.496 193.233C132.286 189.303 132.396 185.233 131.676 183.113C130.676 180.213 128.176 182.113 124.086 189.113C121.576 193.453 117.216 197.113 112.086 201.463C108.086 204.843 107.086 212.383 106.846 215.523C89.4863 217.723 57.4163 221.193 51.5063 219.993C48.6563 219.413 47.7263 190.763 48.3663 174.993C49.3063 151.933 46.7263 143.133 31.6063 147.093C20.1763 150.093 13.9463 161.953 17.6663 206.503C20.0663 235.223 30.5563 253.773 38.7863 255.843C45.3663 257.503 89.9362 241.413 113.576 231.903C117.646 230.903 127.696 226.533 136.286 223.303C144.876 220.073 159.306 215.833 159.096 214.033Z" fill="#FFB48C"/>
<path d="M51.6961 207.223C52.6161 205.673 55.8261 140.413 31.6961 133.933C25.5904 137.07 20.9326 142.444 18.6961 148.933C14.6961 160.533 0.356138 194.293 1.02614 197.583C1.69614 200.873 18.3561 209.203 41.6961 208.863C46.3561 208.883 50.6961 208.883 51.6961 207.223Z" fill="#969269"/>
<path d="M1.32617 195.463C1.32617 195.463 18.4362 206.033 52.0362 204.573" stroke="#514D27" stroke-width="0.75" stroke-linecap="round" stroke-linejoin="round"/>
</svg>
